<svg width="150" height="50" viewBox="0 0 150 50" fill="none" xmlns="http://www.w3.org/2000/svg">
<rect y="2" width="150" height="48" rx="16" fill="#6B47DC"/>
<rect y="2" width="150" height="48" rx="16" fill="#6B47DC"/>
<path d="M35.3673 31.14C34.0793 31.14 33.0806 30.8087 32.3713 30.146C31.6713 29.4833 31.298 28.55 31.2513 27.346C31.242 27.094 31.2373 26.6833 31.2373 26.114C31.2373 25.5353 31.242 25.1153 31.2513 24.854C31.298 23.6593 31.676 22.7307 32.3853 22.068C33.104 21.396 34.098 21.06 35.3673 21.06C36.198 21.06 36.9213 21.2047 37.5373 21.494C38.1533 21.774 38.6293 22.1613 38.9653 22.656C39.3013 23.1413 39.4786 23.692 39.4973 24.308V24.336C39.4973 24.4107 39.4646 24.476 39.3993 24.532C39.3433 24.5787 39.278 24.602 39.2033 24.602H37.8733C37.7613 24.602 37.6773 24.5787 37.6213 24.532C37.5653 24.4853 37.5186 24.3967 37.4813 24.266C37.332 23.678 37.0846 23.2673 36.7393 23.034C36.394 22.7913 35.932 22.67 35.3533 22.67C34.0093 22.67 33.3093 23.4213 33.2533 24.924C33.244 25.176 33.2393 25.5633 33.2393 26.086C33.2393 26.6087 33.244 27.0053 33.2533 27.276C33.3093 28.7787 34.0093 29.53 35.3533 29.53C35.932 29.53 36.394 29.4087 36.7393 29.166C37.094 28.9233 37.3413 28.5127 37.4813 27.934C37.5093 27.8033 37.5513 27.7147 37.6073 27.668C37.6726 27.6213 37.7613 27.598 37.8733 27.598H39.2033C39.2873 27.598 39.3573 27.626 39.4133 27.682C39.4786 27.738 39.5066 27.808 39.4973 27.892C39.4786 28.508 39.3013 29.0633 38.9653 29.558C38.6293 30.0433 38.1533 30.4307 37.5373 30.72C36.9213 31 36.198 31.14 35.3673 31.14ZM45.0986 31.14C43.8293 31.14 42.84 30.818 42.1306 30.174C41.4213 29.53 41.048 28.5733 41.0106 27.304C41.0013 27.0333 40.9966 26.6367 40.9966 26.114C40.9966 25.582 41.0013 25.1807 41.0106 24.91C41.048 23.6687 41.4306 22.7167 42.1586 22.054C42.8866 21.3913 43.8666 21.06 45.0986 21.06C46.3306 21.06 47.3106 21.3913 48.0386 22.054C48.776 22.7167 49.1633 23.6687 49.2006 24.91C49.2193 25.4513 49.2286 25.8527 49.2286 26.114C49.2286 26.366 49.2193 26.7627 49.2006 27.304C49.154 28.5733 48.776 29.53 48.0666 30.174C47.3573 30.818 46.368 31.14 45.0986 31.14ZM45.0986 29.53C45.724 29.53 46.2233 29.3433 46.5966 28.97C46.97 28.5873 47.1706 28.0087 47.1986 27.234C47.2173 26.674 47.2266 26.296 47.2266 26.1C47.2266 25.8853 47.2173 25.5073 47.1986 24.966C47.1706 24.1913 46.97 23.6173 46.5966 23.244C46.2233 22.8613 45.724 22.67 45.0986 22.67C44.4826 22.67 43.988 22.8613 43.6146 23.244C43.2413 23.6173 43.0406 24.1913 43.0126 24.966C43.0033 25.2367 42.9986 25.6147 42.9986 26.1C42.9986 26.576 43.0033 26.954 43.0126 27.234C43.0406 28.0087 43.2366 28.5873 43.6006 28.97C43.974 29.3433 44.4733 29.53 45.0986 29.53ZM51.592 31C51.4893 31 51.4053 30.972 51.34 30.916C51.2747 30.8507 51.242 30.7667 51.242 30.664V21.55C51.242 21.4473 51.2747 21.3633 51.34 21.298C51.4053 21.2327 51.4893 21.2 51.592 21.2H52.698C52.894 21.2 53.034 21.2887 53.118 21.466L55.82 26.506L58.55 21.466C58.6433 21.2887 58.7833 21.2 58.97 21.2H60.062C60.1647 21.2 60.2487 21.2327 60.314 21.298C60.3793 21.3633 60.412 21.4473 60.412 21.55V30.664C60.412 30.7667 60.3793 30.8507 60.314 30.916C60.2487 30.972 60.1647 31 60.062 31H58.886C58.7927 31 58.7133 30.9673 58.648 30.902C58.5827 30.8367 58.55 30.7573 58.55 30.664V24.602L56.59 28.34C56.4687 28.5453 56.31 28.648 56.114 28.648H55.54C55.344 28.648 55.1853 28.5453 55.064 28.34L53.104 24.602V30.664C53.104 30.7573 53.0713 30.8367 53.006 30.902C52.95 30.9673 52.8707 31 52.768 31H51.592ZM63.1007 31C63.0073 31 62.928 30.9673 62.8627 30.902C62.7973 30.8367 62.7647 30.7573 62.7647 30.664V21.55C62.7647 21.4473 62.7927 21.3633 62.8487 21.298C62.914 21.2327 62.998 21.2 63.1007 21.2H66.8527C67.9727 21.2 68.8547 21.466 69.4987 21.998C70.1427 22.5207 70.4647 23.2907 70.4647 24.308C70.4647 25.3253 70.1427 26.0953 69.4987 26.618C68.864 27.1313 67.982 27.388 66.8527 27.388H64.7667V30.664C64.7667 30.7573 64.734 30.8367 64.6687 30.902C64.6127 30.9673 64.5333 31 64.4307 31H63.1007ZM66.7827 25.834C67.324 25.834 67.7393 25.708 68.0287 25.456C68.318 25.1947 68.4627 24.812 68.4627 24.308C68.4627 23.8227 68.3227 23.4447 68.0427 23.174C67.7627 22.894 67.3427 22.754 66.7827 22.754H64.7387V25.834H66.7827ZM72.5042 31C72.4108 31 72.3315 30.9673 72.2662 30.902C72.2008 30.8367 72.1682 30.7573 72.1682 30.664V21.55C72.1682 21.4473 72.1962 21.3633 72.2522 21.298C72.3175 21.2327 72.4015 21.2 72.5042 21.2H76.1302C77.2688 21.2 78.1602 21.466 78.8042 21.998C79.4575 22.53 79.7842 23.286 79.7842 24.266C79.7842 24.9473 79.6162 25.5213 79.2802 25.988C78.9535 26.4453 78.4962 26.7767 77.9082 26.982L79.9522 30.552C79.9802 30.608 79.9942 30.6593 79.9942 30.706C79.9942 30.79 79.9615 30.86 79.8962 30.916C79.8402 30.972 79.7748 31 79.7002 31H78.4262C78.2768 31 78.1602 30.9673 78.0762 30.902C78.0015 30.8367 77.9315 30.7433 77.8662 30.622L76.0602 27.304H74.1142V30.664C74.1142 30.7573 74.0815 30.8367 74.0162 30.902C73.9602 30.9673 73.8808 31 73.7782 31H72.5042ZM76.0882 25.722C76.6482 25.722 77.0682 25.596 77.3482 25.344C77.6375 25.092 77.7822 24.728 77.7822 24.252C77.7822 23.776 77.6375 23.4073 77.3482 23.146C77.0682 22.8847 76.6482 22.754 76.0882 22.754H74.1142V25.722H76.0882ZM85.5017 31.14C84.2324 31.14 83.2431 30.818 82.5337 30.174C81.8244 29.53 81.4511 28.5733 81.4137 27.304C81.4044 27.0333 81.3997 26.6367 81.3997 26.114C81.3997 25.582 81.4044 25.1807 81.4137 24.91C81.4511 23.6687 81.8337 22.7167 82.5617 22.054C83.2897 21.3913 84.2697 21.06 85.5017 21.06C86.7337 21.06 87.7137 21.3913 88.4417 22.054C89.1791 22.7167 89.5664 23.6687 89.6037 24.91C89.6224 25.4513 89.6317 25.8527 89.6317 26.114C89.6317 26.366 89.6224 26.7627 89.6037 27.304C89.5571 28.5733 89.1791 29.53 88.4697 30.174C87.7604 30.818 86.7711 31.14 85.5017 31.14ZM85.5017 29.53C86.1271 29.53 86.6264 29.3433 86.9997 28.97C87.3731 28.5873 87.5737 28.0087 87.6017 27.234C87.6204 26.674 87.6297 26.296 87.6297 26.1C87.6297 25.8853 87.6204 25.5073 87.6017 24.966C87.5737 24.1913 87.3731 23.6173 86.9997 23.244C86.6264 22.8613 86.1271 22.67 85.5017 22.67C84.8857 22.67 84.3911 22.8613 84.0177 23.244C83.6444 23.6173 83.4437 24.1913 83.4157 24.966C83.4064 25.2367 83.4017 25.6147 83.4017 26.1C83.4017 26.576 83.4064 26.954 83.4157 27.234C83.4437 28.0087 83.6397 28.5873 84.0037 28.97C84.3771 29.3433 84.8764 29.53 85.5017 29.53ZM91.9811 31C91.8878 31 91.8085 30.9673 91.7431 30.902C91.6778 30.8367 91.6451 30.7573 91.6451 30.664V21.55C91.6451 21.4473 91.6731 21.3633 91.7291 21.298C91.7945 21.2327 91.8785 21.2 91.9811 21.2H96.0411C97.1331 21.2 97.9451 21.4427 98.4771 21.928C99.0185 22.404 99.2891 23.0573 99.2891 23.888C99.2891 24.3733 99.1678 24.7887 98.9251 25.134C98.6918 25.47 98.4165 25.7127 98.0991 25.862C98.4911 26.0393 98.8178 26.3287 99.0791 26.73C99.3498 27.1313 99.4851 27.5887 99.4851 28.102C99.4851 28.97 99.1911 29.67 98.6031 30.202C98.0245 30.734 97.2078 31 96.1531 31H91.9811ZM95.7891 25.218C96.2745 25.218 96.6431 25.1013 96.8951 24.868C97.1471 24.6347 97.2731 24.322 97.2731 23.93C97.2731 23.5287 97.1471 23.2207 96.8951 23.006C96.6431 22.782 96.2745 22.67 95.7891 22.67H93.5911V25.218H95.7891ZM95.9291 29.516C96.4145 29.516 96.7925 29.3853 97.0631 29.124C97.3338 28.8533 97.4691 28.5127 97.4691 28.102C97.4691 27.682 97.3338 27.3413 97.0631 27.08C96.7925 26.8093 96.4145 26.674 95.9291 26.674H93.5911V29.516H95.9291ZM100.693 31C100.618 31 100.548 30.972 100.483 30.916C100.427 30.86 100.399 30.79 100.399 30.706L100.427 30.58L103.801 21.55C103.866 21.3167 104.029 21.2 104.291 21.2H105.817C106.059 21.2 106.223 21.3167 106.307 21.55L109.681 30.58C109.69 30.608 109.695 30.65 109.695 30.706C109.695 30.79 109.667 30.86 109.611 30.916C109.555 30.972 109.489 31 109.415 31H108.197C108.075 31 107.982 30.972 107.917 30.916C107.851 30.86 107.809 30.7993 107.791 30.734L107.133 29.026H102.975L102.317 30.734C102.242 30.9113 102.107 31 101.911 31H100.693ZM106.643 27.416L105.047 23.09L103.465 27.416H106.643ZM111.513 31C111.419 31 111.34 30.9673 111.275 30.902C111.209 30.8367 111.177 30.7573 111.177 30.664V21.55C111.177 21.4473 111.205 21.3633 111.261 21.298C111.326 21.2327 111.41 21.2 111.513 21.2H115.139C116.277 21.2 117.169 21.466 117.813 21.998C118.466 22.53 118.793 23.286 118.793 24.266C118.793 24.9473 118.625 25.5213 118.289 25.988C117.962 26.4453 117.505 26.7767 116.917 26.982L118.961 30.552C118.989 30.608 119.003 30.6593 119.003 30.706C119.003 30.79 118.97 30.86 118.905 30.916C118.849 30.972 118.783 31 118.709 31H117.435C117.285 31 117.169 30.9673 117.085 30.902C117.01 30.8367 116.94 30.7433 116.875 30.622L115.069 27.304H113.123V30.664C113.123 30.7573 113.09 30.8367 113.025 30.902C112.969 30.9673 112.889 31 112.787 31H111.513ZM115.097 25.722C115.657 25.722 116.077 25.596 116.357 25.344C116.646 25.092 116.791 24.728 116.791 24.252C116.791 23.776 116.646 23.4073 116.357 23.146C116.077 22.8847 115.657 22.754 115.097 22.754H113.123V25.722H115.097Z" fill="#FFFFFE"/>
</svg>
