<svg width="150" height="50" viewBox="0 0 150 50" fill="none" xmlns="http://www.w3.org/2000/svg">
<rect y="2" width="150" height="48" rx="16" fill="#AB90FF"/>
<rect width="150" height="48" rx="16" fill="#D4CAF3"/>
<path d="M35.3673 29.14C34.0793 29.14 33.0806 28.8087 32.3713 28.146C31.6713 27.4833 31.298 26.55 31.2513 25.346C31.242 25.094 31.2373 24.6833 31.2373 24.114C31.2373 23.5353 31.242 23.1153 31.2513 22.854C31.298 21.6593 31.676 20.7307 32.3853 20.068C33.104 19.396 34.098 19.06 35.3673 19.06C36.198 19.06 36.9213 19.2047 37.5373 19.494C38.1533 19.774 38.6293 20.1613 38.9653 20.656C39.3013 21.1413 39.4786 21.692 39.4973 22.308V22.336C39.4973 22.4107 39.4646 22.476 39.3993 22.532C39.3433 22.5787 39.278 22.602 39.2033 22.602H37.8733C37.7613 22.602 37.6773 22.5787 37.6213 22.532C37.5653 22.4853 37.5186 22.3967 37.4813 22.266C37.332 21.678 37.0846 21.2673 36.7393 21.034C36.394 20.7913 35.932 20.67 35.3533 20.67C34.0093 20.67 33.3093 21.4213 33.2533 22.924C33.244 23.176 33.2393 23.5633 33.2393 24.086C33.2393 24.6087 33.244 25.0053 33.2533 25.276C33.3093 26.7787 34.0093 27.53 35.3533 27.53C35.932 27.53 36.394 27.4087 36.7393 27.166C37.094 26.9233 37.3413 26.5127 37.4813 25.934C37.5093 25.8033 37.5513 25.7147 37.6073 25.668C37.6726 25.6213 37.7613 25.598 37.8733 25.598H39.2033C39.2873 25.598 39.3573 25.626 39.4133 25.682C39.4786 25.738 39.5066 25.808 39.4973 25.892C39.4786 26.508 39.3013 27.0633 38.9653 27.558C38.6293 28.0433 38.1533 28.4307 37.5373 28.72C36.9213 29 36.198 29.14 35.3673 29.14ZM45.0986 29.14C43.8293 29.14 42.84 28.818 42.1306 28.174C41.4213 27.53 41.048 26.5733 41.0106 25.304C41.0013 25.0333 40.9966 24.6367 40.9966 24.114C40.9966 23.582 41.0013 23.1807 41.0106 22.91C41.048 21.6687 41.4306 20.7167 42.1586 20.054C42.8866 19.3913 43.8666 19.06 45.0986 19.06C46.3306 19.06 47.3106 19.3913 48.0386 20.054C48.776 20.7167 49.1633 21.6687 49.2006 22.91C49.2193 23.4513 49.2286 23.8527 49.2286 24.114C49.2286 24.366 49.2193 24.7627 49.2006 25.304C49.154 26.5733 48.776 27.53 48.0666 28.174C47.3573 28.818 46.368 29.14 45.0986 29.14ZM45.0986 27.53C45.724 27.53 46.2233 27.3433 46.5966 26.97C46.97 26.5873 47.1706 26.0087 47.1986 25.234C47.2173 24.674 47.2266 24.296 47.2266 24.1C47.2266 23.8853 47.2173 23.5073 47.1986 22.966C47.1706 22.1913 46.97 21.6173 46.5966 21.244C46.2233 20.8613 45.724 20.67 45.0986 20.67C44.4826 20.67 43.988 20.8613 43.6146 21.244C43.2413 21.6173 43.0406 22.1913 43.0126 22.966C43.0033 23.2367 42.9986 23.6147 42.9986 24.1C42.9986 24.576 43.0033 24.954 43.0126 25.234C43.0406 26.0087 43.2366 26.5873 43.6006 26.97C43.974 27.3433 44.4733 27.53 45.0986 27.53ZM51.592 29C51.4893 29 51.4053 28.972 51.34 28.916C51.2747 28.8507 51.242 28.7667 51.242 28.664V19.55C51.242 19.4473 51.2747 19.3633 51.34 19.298C51.4053 19.2327 51.4893 19.2 51.592 19.2H52.698C52.894 19.2 53.034 19.2887 53.118 19.466L55.82 24.506L58.55 19.466C58.6433 19.2887 58.7833 19.2 58.97 19.2H60.062C60.1647 19.2 60.2487 19.2327 60.314 19.298C60.3793 19.3633 60.412 19.4473 60.412 19.55V28.664C60.412 28.7667 60.3793 28.8507 60.314 28.916C60.2487 28.972 60.1647 29 60.062 29H58.886C58.7927 29 58.7133 28.9673 58.648 28.902C58.5827 28.8367 58.55 28.7573 58.55 28.664V22.602L56.59 26.34C56.4687 26.5453 56.31 26.648 56.114 26.648H55.54C55.344 26.648 55.1853 26.5453 55.064 26.34L53.104 22.602V28.664C53.104 28.7573 53.0713 28.8367 53.006 28.902C52.95 28.9673 52.8707 29 52.768 29H51.592ZM63.1007 29C63.0073 29 62.928 28.9673 62.8627 28.902C62.7973 28.8367 62.7647 28.7573 62.7647 28.664V19.55C62.7647 19.4473 62.7927 19.3633 62.8487 19.298C62.914 19.2327 62.998 19.2 63.1007 19.2H66.8527C67.9727 19.2 68.8547 19.466 69.4987 19.998C70.1427 20.5207 70.4647 21.2907 70.4647 22.308C70.4647 23.3253 70.1427 24.0953 69.4987 24.618C68.864 25.1313 67.982 25.388 66.8527 25.388H64.7667V28.664C64.7667 28.7573 64.734 28.8367 64.6687 28.902C64.6127 28.9673 64.5333 29 64.4307 29H63.1007ZM66.7827 23.834C67.324 23.834 67.7393 23.708 68.0287 23.456C68.318 23.1947 68.4627 22.812 68.4627 22.308C68.4627 21.8227 68.3227 21.4447 68.0427 21.174C67.7627 20.894 67.3427 20.754 66.7827 20.754H64.7387V23.834H66.7827ZM72.5042 29C72.4108 29 72.3315 28.9673 72.2662 28.902C72.2008 28.8367 72.1682 28.7573 72.1682 28.664V19.55C72.1682 19.4473 72.1962 19.3633 72.2522 19.298C72.3175 19.2327 72.4015 19.2 72.5042 19.2H76.1302C77.2688 19.2 78.1602 19.466 78.8042 19.998C79.4575 20.53 79.7842 21.286 79.7842 22.266C79.7842 22.9473 79.6162 23.5213 79.2802 23.988C78.9535 24.4453 78.4962 24.7767 77.9082 24.982L79.9522 28.552C79.9802 28.608 79.9942 28.6593 79.9942 28.706C79.9942 28.79 79.9615 28.86 79.8962 28.916C79.8402 28.972 79.7748 29 79.7002 29H78.4262C78.2768 29 78.1602 28.9673 78.0762 28.902C78.0015 28.8367 77.9315 28.7433 77.8662 28.622L76.0602 25.304H74.1142V28.664C74.1142 28.7573 74.0815 28.8367 74.0162 28.902C73.9602 28.9673 73.8808 29 73.7782 29H72.5042ZM76.0882 23.722C76.6482 23.722 77.0682 23.596 77.3482 23.344C77.6375 23.092 77.7822 22.728 77.7822 22.252C77.7822 21.776 77.6375 21.4073 77.3482 21.146C77.0682 20.8847 76.6482 20.754 76.0882 20.754H74.1142V23.722H76.0882ZM85.5017 29.14C84.2324 29.14 83.2431 28.818 82.5337 28.174C81.8244 27.53 81.4511 26.5733 81.4137 25.304C81.4044 25.0333 81.3997 24.6367 81.3997 24.114C81.3997 23.582 81.4044 23.1807 81.4137 22.91C81.4511 21.6687 81.8337 20.7167 82.5617 20.054C83.2897 19.3913 84.2697 19.06 85.5017 19.06C86.7337 19.06 87.7137 19.3913 88.4417 20.054C89.1791 20.7167 89.5664 21.6687 89.6037 22.91C89.6224 23.4513 89.6317 23.8527 89.6317 24.114C89.6317 24.366 89.6224 24.7627 89.6037 25.304C89.5571 26.5733 89.1791 27.53 88.4697 28.174C87.7604 28.818 86.7711 29.14 85.5017 29.14ZM85.5017 27.53C86.1271 27.53 86.6264 27.3433 86.9997 26.97C87.3731 26.5873 87.5737 26.0087 87.6017 25.234C87.6204 24.674 87.6297 24.296 87.6297 24.1C87.6297 23.8853 87.6204 23.5073 87.6017 22.966C87.5737 22.1913 87.3731 21.6173 86.9997 21.244C86.6264 20.8613 86.1271 20.67 85.5017 20.67C84.8857 20.67 84.3911 20.8613 84.0177 21.244C83.6444 21.6173 83.4437 22.1913 83.4157 22.966C83.4064 23.2367 83.4017 23.6147 83.4017 24.1C83.4017 24.576 83.4064 24.954 83.4157 25.234C83.4437 26.0087 83.6397 26.5873 84.0037 26.97C84.3771 27.3433 84.8764 27.53 85.5017 27.53ZM91.9811 29C91.8878 29 91.8085 28.9673 91.7431 28.902C91.6778 28.8367 91.6451 28.7573 91.6451 28.664V19.55C91.6451 19.4473 91.6731 19.3633 91.7291 19.298C91.7945 19.2327 91.8785 19.2 91.9811 19.2H96.0411C97.1331 19.2 97.9451 19.4427 98.4771 19.928C99.0185 20.404 99.2891 21.0573 99.2891 21.888C99.2891 22.3733 99.1678 22.7887 98.9251 23.134C98.6918 23.47 98.4165 23.7127 98.0991 23.862C98.4911 24.0393 98.8178 24.3287 99.0791 24.73C99.3498 25.1313 99.4851 25.5887 99.4851 26.102C99.4851 26.97 99.1911 27.67 98.6031 28.202C98.0245 28.734 97.2078 29 96.1531 29H91.9811ZM95.7891 23.218C96.2745 23.218 96.6431 23.1013 96.8951 22.868C97.1471 22.6347 97.2731 22.322 97.2731 21.93C97.2731 21.5287 97.1471 21.2207 96.8951 21.006C96.6431 20.782 96.2745 20.67 95.7891 20.67H93.5911V23.218H95.7891ZM95.9291 27.516C96.4145 27.516 96.7925 27.3853 97.0631 27.124C97.3338 26.8533 97.4691 26.5127 97.4691 26.102C97.4691 25.682 97.3338 25.3413 97.0631 25.08C96.7925 24.8093 96.4145 24.674 95.9291 24.674H93.5911V27.516H95.9291ZM100.693 29C100.618 29 100.548 28.972 100.483 28.916C100.427 28.86 100.399 28.79 100.399 28.706L100.427 28.58L103.801 19.55C103.866 19.3167 104.029 19.2 104.291 19.2H105.817C106.059 19.2 106.223 19.3167 106.307 19.55L109.681 28.58C109.69 28.608 109.695 28.65 109.695 28.706C109.695 28.79 109.667 28.86 109.611 28.916C109.555 28.972 109.489 29 109.415 29H108.197C108.075 29 107.982 28.972 107.917 28.916C107.851 28.86 107.809 28.7993 107.791 28.734L107.133 27.026H102.975L102.317 28.734C102.242 28.9113 102.107 29 101.911 29H100.693ZM106.643 25.416L105.047 21.09L103.465 25.416H106.643ZM111.513 29C111.419 29 111.34 28.9673 111.275 28.902C111.209 28.8367 111.177 28.7573 111.177 28.664V19.55C111.177 19.4473 111.205 19.3633 111.261 19.298C111.326 19.2327 111.41 19.2 111.513 19.2H115.139C116.277 19.2 117.169 19.466 117.813 19.998C118.466 20.53 118.793 21.286 118.793 22.266C118.793 22.9473 118.625 23.5213 118.289 23.988C117.962 24.4453 117.505 24.7767 116.917 24.982L118.961 28.552C118.989 28.608 119.003 28.6593 119.003 28.706C119.003 28.79 118.97 28.86 118.905 28.916C118.849 28.972 118.783 29 118.709 29H117.435C117.285 29 117.169 28.9673 117.085 28.902C117.01 28.8367 116.94 28.7433 116.875 28.622L115.069 25.304H113.123V28.664C113.123 28.7573 113.09 28.8367 113.025 28.902C112.969 28.9673 112.889 29 112.787 29H111.513ZM115.097 23.722C115.657 23.722 116.077 23.596 116.357 23.344C116.646 23.092 116.791 22.728 116.791 22.252C116.791 21.776 116.646 21.4073 116.357 21.146C116.077 20.8847 115.657 20.754 115.097 20.754H113.123V23.722H115.097Z" fill="#FFFFFE"/>
</svg>
