<svg width="112" height="16" viewBox="0 0 112 16" fill="none" xmlns="http://www.w3.org/2000/svg">
<path d="M6.792 7.208C7.44267 7.37867 7.944 7.69867 8.296 8.168C8.65867 8.63733 8.84 9.224 8.84 9.928C8.84 10.92 8.51467 11.6827 7.864 12.216C7.21333 12.7387 6.29067 13 5.096 13H1.064C0.861333 13 0.696 12.9413 0.568 12.824C0.450667 12.7067 0.392 12.552 0.392 12.36V2.36C0.392 2.168 0.450667 2.01333 0.568 1.896C0.696 1.77867 0.861333 1.72 1.064 1.72H4.92C6.08267 1.72 6.984 1.976 7.624 2.488C8.264 3 8.584 3.72533 8.584 4.664C8.584 5.272 8.424 5.79467 8.104 6.232C7.79467 6.66933 7.35733 6.99467 6.792 7.208ZM1.688 6.728H4.728C5.57067 6.728 6.20533 6.55733 6.632 6.216C7.06933 5.87467 7.288 5.37867 7.288 4.728C7.288 3.448 6.43467 2.808 4.728 2.808H1.688V6.728ZM4.968 11.912C5.85333 11.912 6.504 11.752 6.92 11.432C7.34667 11.1013 7.56 10.5893 7.56 9.896C7.56 8.50933 6.696 7.816 4.968 7.816H1.688V11.912H4.968ZM14.2933 13.112C13.5573 13.112 12.9066 12.9467 12.3412 12.616C11.7866 12.2853 11.3546 11.816 11.0452 11.208C10.7466 10.5893 10.5972 9.87467 10.5972 9.064C10.5972 8.25333 10.7466 7.544 11.0452 6.936C11.3546 6.31733 11.7866 5.84267 12.3412 5.512C12.9066 5.18133 13.5573 5.016 14.2933 5.016C15.0293 5.016 15.6799 5.18133 16.2453 5.512C16.8106 5.84267 17.2426 6.31733 17.5413 6.936C17.8506 7.544 18.0052 8.25333 18.0052 9.064C18.0052 9.87467 17.8506 10.5893 17.5413 11.208C17.2426 11.816 16.8106 12.2853 16.2453 12.616C15.6799 12.9467 15.0293 13.112 14.2933 13.112ZM14.2933 12.04C15.0613 12.04 15.6479 11.7893 16.0533 11.288C16.4693 10.776 16.6773 10.0347 16.6773 9.064C16.6773 8.11467 16.4693 7.384 16.0533 6.872C15.6373 6.34933 15.0506 6.088 14.2933 6.088C13.5359 6.088 12.9493 6.34933 12.5333 6.872C12.1173 7.384 11.9093 8.11467 11.9093 9.064C11.9093 10.024 12.1119 10.76 12.5173 11.272C12.9333 11.784 13.5253 12.04 14.2933 12.04ZM26.2723 1.64C26.4749 1.64 26.6349 1.69867 26.7523 1.816C26.8696 1.93333 26.9283 2.08267 26.9283 2.264V12.44C26.9283 12.632 26.8696 12.7867 26.7523 12.904C26.6349 13.0213 26.4749 13.08 26.2723 13.08C26.0696 13.08 25.9096 13.0213 25.7923 12.904C25.6856 12.7867 25.6323 12.632 25.6323 12.44V11.576C25.3976 12.0667 25.0509 12.4453 24.5923 12.712C24.1443 12.9787 23.6163 13.112 23.0083 13.112C22.3256 13.112 21.7229 12.9413 21.2002 12.6C20.6776 12.2587 20.2722 11.784 19.9842 11.176C19.6962 10.5573 19.5522 9.84267 19.5522 9.032C19.5522 8.232 19.6962 7.528 19.9842 6.92C20.2722 6.312 20.6776 5.84267 21.2002 5.512C21.7229 5.18133 22.3256 5.016 23.0083 5.016C23.6163 5.016 24.1443 5.14933 24.5923 5.416C25.0509 5.68267 25.3976 6.06133 25.6323 6.552V2.264C25.6323 2.072 25.6856 1.92267 25.7923 1.816C25.9096 1.69867 26.0696 1.64 26.2723 1.64ZM23.2643 12.04C24.0216 12.04 24.6029 11.784 25.0083 11.272C25.4243 10.7493 25.6323 10.0133 25.6323 9.064C25.6323 8.11467 25.4243 7.384 25.0083 6.872C24.6029 6.36 24.0216 6.104 23.2643 6.104C22.5069 6.104 21.9149 6.36 21.4883 6.872C21.0722 7.384 20.8642 8.104 20.8642 9.032C20.8642 9.98133 21.0722 10.7227 21.4883 11.256C21.9149 11.7787 22.5069 12.04 23.2643 12.04ZM35.0248 5.448C35.1421 5.192 35.3287 5.064 35.5848 5.064C35.7448 5.064 35.8888 5.11733 36.0168 5.224C36.1447 5.33067 36.2087 5.464 36.2087 5.624C36.2087 5.72 36.1874 5.80533 36.1448 5.88L31.6487 15.576C31.5954 15.6933 31.5154 15.784 31.4087 15.848C31.3127 15.912 31.2114 15.944 31.1047 15.944C30.9447 15.944 30.8007 15.8907 30.6727 15.784C30.5554 15.688 30.4967 15.56 30.4967 15.4C30.4967 15.3147 30.5181 15.2293 30.5607 15.144L31.6807 12.728L28.5127 5.88C28.4701 5.80533 28.4487 5.72533 28.4487 5.64C28.4487 5.48 28.5181 5.34133 28.6567 5.224C28.8061 5.10667 28.9661 5.048 29.1367 5.048C29.2434 5.048 29.3447 5.08 29.4407 5.144C29.5474 5.208 29.6274 5.29867 29.6807 5.416L32.3527 11.416L35.0248 5.448ZM48.5845 11.896C48.7765 11.896 48.9258 11.944 49.0325 12.04C49.1392 12.136 49.1925 12.2693 49.1925 12.44C49.1925 12.6213 49.1392 12.76 49.0325 12.856C48.9365 12.952 48.7872 13 48.5845 13H43.2885C43.0858 13 42.9312 12.952 42.8245 12.856C42.7285 12.76 42.6805 12.6213 42.6805 12.44C42.6805 12.2693 42.7338 12.136 42.8405 12.04C42.9472 11.944 43.0965 11.896 43.2885 11.896H45.2725V3.32L43.5285 4.456C43.4432 4.50933 43.3578 4.536 43.2725 4.536C43.1232 4.536 42.9898 4.46667 42.8725 4.328C42.7658 4.18933 42.7125 4.04 42.7125 3.88C42.7125 3.656 42.7978 3.496 42.9685 3.4L45.4005 1.816C45.5818 1.69867 45.7685 1.64 45.9605 1.64C46.1418 1.64 46.2912 1.69867 46.4085 1.816C46.5258 1.93333 46.5845 2.09867 46.5845 2.312V11.896H48.5845ZM51.2822 13.576C51.2396 13.7147 51.1702 13.8213 51.0742 13.896C50.9782 13.9707 50.8716 14.008 50.7542 14.008C50.6049 14.008 50.4716 13.9547 50.3542 13.848C50.2369 13.7413 50.1782 13.608 50.1782 13.448C50.1782 13.384 50.1942 13.3093 50.2262 13.224L54.0022 1.416C54.0449 1.27733 54.1142 1.17067 54.2102 1.096C54.3062 1.02133 54.4129 0.983999 54.5302 0.983999C54.6796 0.983999 54.8129 1.03733 54.9302 1.144C55.0476 1.25067 55.1062 1.38933 55.1062 1.56C55.1062 1.592 55.0956 1.66133 55.0742 1.768L51.2822 13.576ZM64.9975 12.184C65.0722 12.3013 65.1095 12.424 65.1095 12.552C65.1095 12.712 65.0455 12.8453 64.9175 12.952C64.8002 13.048 64.6615 13.096 64.5015 13.096C64.2562 13.096 64.0642 12.9893 63.9255 12.776L61.7815 9.384C61.5042 8.94667 61.2162 8.648 60.9175 8.488C60.6188 8.31733 60.2135 8.232 59.7015 8.232H57.6855V12.408C57.6855 12.6107 57.6268 12.776 57.5095 12.904C57.3922 13.0213 57.2375 13.08 57.0455 13.08C56.8428 13.08 56.6828 13.0213 56.5655 12.904C56.4482 12.776 56.3895 12.6107 56.3895 12.408V2.36C56.3895 2.168 56.4482 2.01333 56.5655 1.896C56.6935 1.77867 56.8588 1.72 57.0615 1.72H61.0295C62.2562 1.72 63.1895 1.992 63.8295 2.536C64.4802 3.08 64.8055 3.88 64.8055 4.936C64.8055 5.832 64.5442 6.552 64.0215 7.096C63.5095 7.64 62.7735 7.97067 61.8135 8.088C62.0802 8.17333 62.3202 8.312 62.5335 8.504C62.7468 8.696 62.9602 8.96267 63.1735 9.304L64.9975 12.184ZM60.9175 7.144C61.7922 7.144 62.4428 6.96267 62.8695 6.6C63.3068 6.23733 63.5255 5.688 63.5255 4.952C63.5255 4.22667 63.3122 3.688 62.8855 3.336C62.4588 2.984 61.8028 2.808 60.9175 2.808H57.6855V7.144H60.9175ZM73.2782 11.192C73.3956 11.192 73.4969 11.24 73.5822 11.336C73.6676 11.432 73.7102 11.5547 73.7102 11.704C73.7102 11.9707 73.5236 12.216 73.1502 12.44C72.7662 12.664 72.3609 12.8347 71.9342 12.952C71.5076 13.0587 71.0916 13.112 70.6862 13.112C69.4809 13.112 68.5262 12.7547 67.8222 12.04C67.1289 11.3253 66.7822 10.3387 66.7822 9.08C66.7822 8.28 66.9369 7.576 67.2462 6.968C67.5556 6.34933 67.9876 5.86933 68.5422 5.528C69.1076 5.18667 69.7476 5.016 70.4622 5.016C71.4756 5.016 72.2809 5.34667 72.8782 6.008C73.4756 6.66933 73.7742 7.56533 73.7742 8.696C73.7742 8.90933 73.7316 9.064 73.6462 9.16C73.5609 9.256 73.4222 9.304 73.2302 9.304H68.0782C68.1742 11.1387 69.0436 12.056 70.6862 12.056C71.1022 12.056 71.4596 12.0027 71.7582 11.896C72.0569 11.7787 72.3769 11.624 72.7182 11.432C72.9956 11.272 73.1822 11.192 73.2782 11.192ZM70.4782 6.024C69.7956 6.024 69.2462 6.23733 68.8302 6.664C68.4249 7.09067 68.1849 7.69333 68.1102 8.472H72.6382C72.6169 7.68267 72.4196 7.08 72.0462 6.664C71.6729 6.23733 71.1502 6.024 70.4782 6.024ZM82.0838 5.048C82.2864 5.048 82.4464 5.10667 82.5638 5.224C82.6811 5.34133 82.7398 5.496 82.7398 5.688V12.472C82.7398 13.6347 82.4411 14.5093 81.8438 15.096C81.2464 15.6933 80.3611 15.992 79.1878 15.992C78.0464 15.992 77.0971 15.768 76.3398 15.32C75.9558 15.1067 75.7638 14.8613 75.7638 14.584C75.7638 14.4347 75.8011 14.312 75.8758 14.216C75.9611 14.12 76.0678 14.072 76.1958 14.072C76.3024 14.072 76.4944 14.1467 76.7718 14.296C77.1451 14.488 77.5131 14.6427 77.8758 14.76C78.2384 14.8773 78.6704 14.936 79.1718 14.936C79.9291 14.936 80.4998 14.7333 80.8838 14.328C81.2678 13.9333 81.4598 13.352 81.4598 12.584V11.208C81.2358 11.7093 80.8891 12.0933 80.4198 12.36C79.9611 12.6267 79.4171 12.76 78.7878 12.76C78.1051 12.76 77.4971 12.6 76.9638 12.28C76.4411 11.96 76.0304 11.5067 75.7318 10.92C75.4438 10.3333 75.2998 9.656 75.2998 8.888C75.2998 8.12 75.4438 7.44267 75.7318 6.856C76.0304 6.26933 76.4411 5.816 76.9638 5.496C77.4971 5.176 78.1051 5.016 78.7878 5.016C79.4064 5.016 79.9451 5.14933 80.4038 5.416C80.8624 5.68267 81.2091 6.06133 81.4438 6.552V5.688C81.4438 5.496 81.4971 5.34133 81.6038 5.224C81.7211 5.10667 81.8811 5.048 82.0838 5.048ZM79.0438 11.688C79.7904 11.688 80.3771 11.4427 80.8038 10.952C81.2304 10.4507 81.4438 9.76267 81.4438 8.888C81.4438 8.024 81.2304 7.34667 80.8038 6.856C80.3878 6.35467 79.8011 6.104 79.0438 6.104C78.2864 6.104 77.6891 6.35467 77.2518 6.856C76.8251 7.34667 76.6118 8.024 76.6118 8.888C76.6118 9.76267 76.8251 10.4507 77.2518 10.952C77.6891 11.4427 78.2864 11.688 79.0438 11.688ZM91.1388 5.048C91.3414 5.048 91.4961 5.10667 91.6028 5.224C91.7201 5.34133 91.7788 5.496 91.7788 5.688V12.456C91.7788 12.6373 91.7201 12.7867 91.6028 12.904C91.4961 13.0213 91.3414 13.08 91.1388 13.08C90.9468 13.08 90.7921 13.0267 90.6748 12.92C90.5681 12.8027 90.5148 12.6533 90.5148 12.472V11.672C90.2694 12.1413 89.9228 12.4987 89.4748 12.744C89.0374 12.9893 88.5414 13.112 87.9868 13.112C87.0588 13.112 86.3601 12.856 85.8908 12.344C85.4214 11.8213 85.1868 11.0533 85.1868 10.04V5.688C85.1868 5.496 85.2454 5.34133 85.3628 5.224C85.4801 5.10667 85.6401 5.048 85.8428 5.048C86.0454 5.048 86.2001 5.10667 86.3068 5.224C86.4241 5.34133 86.4828 5.496 86.4828 5.688V10.008C86.4828 10.7013 86.6214 11.2133 86.8988 11.544C87.1761 11.864 87.6134 12.024 88.2108 12.024C88.8934 12.024 89.4428 11.8053 89.8588 11.368C90.2748 10.92 90.4828 10.3333 90.4828 9.608V5.688C90.4828 5.496 90.5414 5.34133 90.6588 5.224C90.7761 5.10667 90.9361 5.048 91.1388 5.048ZM94.9235 13.08C94.7315 13.08 94.5715 13.0267 94.4435 12.92C94.3262 12.8027 94.2675 12.6427 94.2675 12.44V2.28C94.2675 2.07733 94.3262 1.92267 94.4435 1.816C94.5715 1.69867 94.7315 1.64 94.9235 1.64C95.1048 1.64 95.2542 1.69867 95.3715 1.816C95.4995 1.92267 95.5635 2.07733 95.5635 2.28V12.44C95.5635 12.6427 95.4995 12.8027 95.3715 12.92C95.2542 13.0267 95.1048 13.08 94.9235 13.08ZM101.25 5.016C103.202 5.016 104.178 6.04 104.178 8.088V12.44C104.178 12.632 104.12 12.7867 104.002 12.904C103.896 13.0213 103.746 13.08 103.554 13.08C103.362 13.08 103.208 13.0213 103.09 12.904C102.973 12.7867 102.914 12.632 102.914 12.44V11.672C102.712 12.1307 102.402 12.488 101.986 12.744C101.57 12.9893 101.09 13.112 100.546 13.112C100.045 13.112 99.5809 13.0107 99.1542 12.808C98.7382 12.6053 98.4076 12.3227 98.1622 11.96C97.9169 11.5973 97.7942 11.1973 97.7942 10.76C97.7942 10.1733 97.9436 9.72 98.2422 9.4C98.5409 9.06933 99.0316 8.83467 99.7142 8.696C100.397 8.54667 101.346 8.472 102.562 8.472H102.914V7.944C102.914 7.304 102.781 6.83467 102.514 6.536C102.258 6.23733 101.837 6.088 101.25 6.088C100.525 6.088 99.7889 6.28533 99.0422 6.68C98.7542 6.86133 98.5516 6.952 98.4342 6.952C98.3062 6.952 98.1996 6.904 98.1142 6.808C98.0289 6.712 97.9862 6.58933 97.9862 6.44C97.9862 6.29067 98.0289 6.16267 98.1142 6.056C98.2102 5.93867 98.3596 5.82133 98.5622 5.704C98.9356 5.49067 99.3569 5.32533 99.8262 5.208C100.306 5.08 100.781 5.016 101.25 5.016ZM100.722 12.088C101.362 12.088 101.885 11.8747 102.29 11.448C102.706 11.0107 102.914 10.4507 102.914 9.768V9.304H102.626C101.688 9.304 100.973 9.34667 100.482 9.432C99.9916 9.50667 99.6396 9.64 99.4262 9.832C99.2236 10.0133 99.1222 10.2853 99.1222 10.648C99.1222 11.064 99.2716 11.4107 99.5702 11.688C99.8796 11.9547 100.264 12.088 100.722 12.088ZM110.487 5.048C110.935 5.016 111.159 5.19733 111.159 5.592C111.159 5.76267 111.111 5.90133 111.015 6.008C110.919 6.104 110.753 6.16267 110.519 6.184L110.039 6.232C109.324 6.296 108.791 6.552 108.439 7C108.097 7.43733 107.927 7.95467 107.927 8.552V12.44C107.927 12.6533 107.868 12.8133 107.751 12.92C107.633 13.0267 107.479 13.08 107.287 13.08C107.095 13.08 106.935 13.0267 106.807 12.92C106.689 12.8027 106.631 12.6427 106.631 12.44V5.688C106.631 5.48533 106.695 5.33067 106.823 5.224C106.951 5.10667 107.105 5.048 107.287 5.048C107.457 5.048 107.601 5.10667 107.719 5.224C107.836 5.33067 107.895 5.48 107.895 5.672V6.568C108.119 6.09867 108.433 5.74133 108.839 5.496C109.255 5.25067 109.729 5.10667 110.263 5.064L110.487 5.048Z" fill="black"/>
</svg>
