<svg width="223" height="21" viewBox="0 0 223 21" fill="none" xmlns="http://www.w3.org/2000/svg">
<path d="M14.096 1.96C14.464 1.96 14.76 2.08 14.984 2.32C15.208 2.544 15.32 2.84 15.32 3.208V17.872C15.32 18.24 15.208 18.544 14.984 18.784C14.76 19.008 14.464 19.12 14.096 19.12C13.728 19.12 13.432 19.008 13.208 18.784C12.984 18.56 12.872 18.256 12.872 17.872V11.416H3.416V17.872C3.416 18.24 3.304 18.544 3.08 18.784C2.856 19.008 2.56 19.12 2.192 19.12C1.824 19.12 1.528 19.008 1.304 18.784C1.08 18.56 0.968 18.256 0.968 17.872V3.208C0.968 2.84 1.08 2.544 1.304 2.32C1.528 2.08 1.824 1.96 2.192 1.96C2.56 1.96 2.856 2.08 3.08 2.32C3.304 2.544 3.416 2.84 3.416 3.208V9.4H12.872V3.208C12.872 2.84 12.984 2.544 13.208 2.32C13.432 2.08 13.728 1.96 14.096 1.96ZM28.1293 16.048C28.3533 16.048 28.5373 16.136 28.6813 16.312C28.8253 16.488 28.8973 16.712 28.8973 16.984C28.8973 17.448 28.6093 17.84 28.0333 18.16C27.4733 18.48 26.8573 18.728 26.1853 18.904C25.5293 19.08 24.8973 19.168 24.2893 19.168C22.4333 19.168 20.9693 18.632 19.8973 17.56C18.8253 16.472 18.2893 14.992 18.2893 13.12C18.2893 11.92 18.5213 10.856 18.9853 9.928C19.4653 9 20.1293 8.28 20.9773 7.768C21.8413 7.256 22.8173 7 23.9053 7C25.4733 7 26.7133 7.504 27.6253 8.512C28.5373 9.52 28.9933 10.88 28.9933 12.592C28.9933 13.232 28.7053 13.552 28.1293 13.552H20.7133C20.8733 16.032 22.0653 17.272 24.2893 17.272C24.8813 17.272 25.3933 17.192 25.8253 17.032C26.2573 16.872 26.7133 16.664 27.1933 16.408C27.2413 16.376 27.3693 16.312 27.5773 16.216C27.8013 16.104 27.9853 16.048 28.1293 16.048ZM23.9533 8.776C23.0253 8.776 22.2813 9.072 21.7213 9.664C21.1613 10.256 20.8253 11.088 20.7133 12.16H26.9053C26.8573 11.072 26.5773 10.24 26.0653 9.664C25.5693 9.072 24.8653 8.776 23.9533 8.776ZM36.5844 7C38.1364 7 39.2884 7.392 40.0404 8.176C40.8084 8.96 41.1924 10.152 41.1924 11.752V17.968C41.1924 18.336 41.0884 18.624 40.8804 18.832C40.6724 19.024 40.3844 19.12 40.0164 19.12C39.6644 19.12 39.3844 19.016 39.1764 18.808C38.9684 18.6 38.8644 18.32 38.8644 17.968V17.08C38.5604 17.752 38.1044 18.272 37.4964 18.64C36.9044 18.992 36.2084 19.168 35.4084 19.168C34.6404 19.168 33.9364 19.016 33.2964 18.712C32.6724 18.392 32.1764 17.96 31.8084 17.416C31.4404 16.872 31.2564 16.256 31.2564 15.568C31.2404 14.704 31.4564 14.032 31.9044 13.552C32.3524 13.056 33.0804 12.704 34.0884 12.496C35.0964 12.272 36.4964 12.16 38.2884 12.16H38.8404V11.464C38.8404 10.568 38.6564 9.92 38.2884 9.52C37.9204 9.12 37.3284 8.92 36.5124 8.92C35.9524 8.92 35.4244 8.992 34.9284 9.136C34.4324 9.28 33.8884 9.488 33.2964 9.76C32.8644 10 32.5604 10.12 32.3844 10.12C32.1444 10.12 31.9444 10.032 31.7844 9.856C31.6404 9.68 31.5684 9.456 31.5684 9.184C31.5684 8.944 31.6324 8.736 31.7604 8.56C31.9044 8.368 32.1284 8.184 32.4324 8.008C32.9924 7.704 33.6484 7.464 34.4004 7.288C35.1524 7.096 35.8804 7 36.5844 7ZM35.8404 17.368C36.7204 17.368 37.4404 17.072 38.0004 16.48C38.5604 15.872 38.8404 15.096 38.8404 14.152V13.528H38.4084C37.1604 13.528 36.2004 13.584 35.5284 13.696C34.8564 13.808 34.3764 14 34.0884 14.272C33.8004 14.528 33.6564 14.904 33.6564 15.4C33.6564 15.976 33.8644 16.448 34.2804 16.816C34.6964 17.184 35.2164 17.368 35.8404 17.368ZM54.0841 1.96C54.4521 1.96 54.7481 2.064 54.9721 2.272C55.1961 2.48 55.3081 2.76 55.3081 3.112V17.944C55.3081 18.312 55.1961 18.6 54.9721 18.808C54.7641 19.016 54.4761 19.12 54.1081 19.12C53.7401 19.12 53.4441 19.016 53.2201 18.808C53.0121 18.6 52.9081 18.312 52.9081 17.944V16.984C52.5561 17.688 52.0441 18.232 51.3721 18.616C50.7001 18.984 49.9241 19.168 49.0441 19.168C48.0361 19.168 47.1321 18.912 46.3321 18.4C45.5481 17.888 44.9321 17.168 44.4841 16.24C44.0521 15.312 43.8361 14.248 43.8361 13.048C43.8361 11.832 44.0521 10.768 44.4841 9.856C44.9321 8.944 45.5481 8.24 46.3321 7.744C47.1161 7.248 48.0201 7 49.0441 7C49.9241 7 50.6921 7.192 51.3481 7.576C52.0201 7.944 52.5321 8.472 52.8841 9.16V3.064C52.8841 2.728 52.9881 2.464 53.1961 2.272C53.4201 2.064 53.7161 1.96 54.0841 1.96ZM49.6201 17.248C50.6601 17.248 51.4681 16.888 52.0441 16.168C52.6201 15.448 52.9081 14.424 52.9081 13.096C52.9081 11.768 52.6201 10.744 52.0441 10.024C51.4841 9.304 50.6761 8.944 49.6201 8.944C48.5641 8.944 47.7401 9.304 47.1481 10.024C46.5721 10.728 46.2841 11.736 46.2841 13.048C46.2841 14.36 46.5801 15.392 47.1721 16.144C47.7641 16.88 48.5801 17.248 49.6201 17.248ZM59.9118 19.12C59.5598 19.12 59.2638 19.024 59.0238 18.832C58.7998 18.64 58.6878 18.352 58.6878 17.968V3.136C58.6878 2.752 58.7998 2.464 59.0238 2.272C59.2638 2.064 59.5598 1.96 59.9118 1.96C60.2638 1.96 60.5518 2.064 60.7758 2.272C60.9998 2.464 61.1118 2.752 61.1118 3.136V17.968C61.1118 18.352 60.9998 18.64 60.7758 18.832C60.5518 19.024 60.2638 19.12 59.9118 19.12ZM65.7243 19.12C65.3723 19.12 65.0763 19.024 64.8363 18.832C64.6123 18.64 64.5003 18.352 64.5003 17.968V8.224C64.5003 7.84 64.6123 7.552 64.8363 7.36C65.0763 7.152 65.3723 7.048 65.7243 7.048C66.0763 7.048 66.3643 7.152 66.5883 7.36C66.8123 7.552 66.9243 7.84 66.9243 8.224V17.968C66.9243 18.352 66.8123 18.64 66.5883 18.832C66.3643 19.024 66.0763 19.12 65.7243 19.12ZM65.7243 4.696C65.2603 4.696 64.8923 4.568 64.6203 4.312C64.3483 4.056 64.2123 3.72 64.2123 3.304C64.2123 2.888 64.3483 2.56 64.6203 2.32C64.8923 2.064 65.2603 1.936 65.7243 1.936C66.1723 1.936 66.5323 2.064 66.8043 2.32C67.0923 2.56 67.2363 2.888 67.2363 3.304C67.2363 3.72 67.1003 4.056 66.8283 4.312C66.5563 4.568 66.1883 4.696 65.7243 4.696ZM76.6248 7C79.4248 7 80.8248 8.576 80.8248 11.728V17.968C80.8248 18.336 80.7128 18.624 80.4888 18.832C80.2808 19.024 79.9848 19.12 79.6008 19.12C79.2328 19.12 78.9368 19.016 78.7128 18.808C78.5048 18.6 78.4008 18.32 78.4008 17.968V11.848C78.4008 10.856 78.2008 10.128 77.8008 9.664C77.4168 9.2 76.8088 8.968 75.9768 8.968C75.0008 8.968 74.2168 9.272 73.6248 9.88C73.0328 10.488 72.7368 11.304 72.7368 12.328V17.968C72.7368 18.32 72.6248 18.6 72.4008 18.808C72.1928 19.016 71.9048 19.12 71.5368 19.12C71.1688 19.12 70.8728 19.016 70.6488 18.808C70.4248 18.6 70.3128 18.32 70.3128 17.968V8.2C70.3128 7.864 70.4248 7.592 70.6488 7.384C70.8888 7.16 71.1848 7.048 71.5368 7.048C71.8888 7.048 72.1688 7.152 72.3768 7.36C72.5848 7.568 72.6888 7.84 72.6888 8.176V9.16C73.0728 8.456 73.6088 7.92 74.2968 7.552C74.9848 7.184 75.7608 7 76.6248 7ZM93.3089 16.048C93.5329 16.048 93.7169 16.136 93.8609 16.312C94.0049 16.488 94.0769 16.712 94.0769 16.984C94.0769 17.448 93.7889 17.84 93.2129 18.16C92.6529 18.48 92.0369 18.728 91.3649 18.904C90.7089 19.08 90.0769 19.168 89.4689 19.168C87.6129 19.168 86.1489 18.632 85.0769 17.56C84.0049 16.472 83.4689 14.992 83.4689 13.12C83.4689 11.92 83.7009 10.856 84.1649 9.928C84.6449 9 85.3089 8.28 86.1569 7.768C87.0209 7.256 87.9969 7 89.0849 7C90.6529 7 91.8929 7.504 92.8049 8.512C93.7169 9.52 94.1729 10.88 94.1729 12.592C94.1729 13.232 93.8849 13.552 93.3089 13.552H85.8929C86.0529 16.032 87.2449 17.272 89.4689 17.272C90.0609 17.272 90.5729 17.192 91.0049 17.032C91.4369 16.872 91.8929 16.664 92.3729 16.408C92.4209 16.376 92.5489 16.312 92.7569 16.216C92.9809 16.104 93.1649 16.048 93.3089 16.048ZM89.1329 8.776C88.2049 8.776 87.4609 9.072 86.9009 9.664C86.3409 10.256 86.0049 11.088 85.8929 12.16H92.0849C92.0369 11.072 91.7569 10.24 91.2449 9.664C90.7489 9.072 90.0449 8.776 89.1329 8.776ZM97.079 19.84C96.999 20.096 96.871 20.28 96.695 20.392C96.519 20.52 96.327 20.584 96.119 20.584C95.847 20.584 95.607 20.496 95.399 20.32C95.191 20.144 95.087 19.912 95.087 19.624C95.087 19.512 95.111 19.384 95.159 19.24L100.775 1.648C100.855 1.392 100.983 1.208 101.159 1.096C101.335 0.967999 101.527 0.904 101.735 0.904C102.007 0.904 102.247 0.992 102.455 1.168C102.663 1.344 102.767 1.576 102.767 1.864C102.767 1.976 102.743 2.104 102.695 2.248L97.079 19.84ZM117.453 1.96C118.013 1.96 118.461 2.128 118.797 2.464C119.133 2.8 119.301 3.248 119.301 3.808V17.272C119.301 17.832 119.133 18.288 118.797 18.64C118.461 18.976 118.013 19.144 117.453 19.144C116.893 19.144 116.445 18.976 116.109 18.64C115.789 18.304 115.629 17.848 115.629 17.272V11.896H107.829V17.272C107.829 17.832 107.661 18.288 107.325 18.64C106.989 18.976 106.549 19.144 106.005 19.144C105.445 19.144 104.997 18.976 104.661 18.64C104.325 18.304 104.157 17.848 104.157 17.272V3.808C104.157 3.248 104.325 2.8 104.661 2.464C104.997 2.128 105.445 1.96 106.005 1.96C106.565 1.96 107.005 2.128 107.325 2.464C107.661 2.8 107.829 3.248 107.829 3.808V8.92H115.629V3.808C115.629 3.248 115.789 2.8 116.109 2.464C116.445 2.128 116.893 1.96 117.453 1.96ZM131.84 15.496C132.16 15.496 132.416 15.624 132.608 15.88C132.816 16.136 132.92 16.464 132.92 16.864C132.92 17.136 132.84 17.392 132.68 17.632C132.52 17.856 132.296 18.048 132.008 18.208C131.464 18.496 130.832 18.736 130.112 18.928C129.392 19.104 128.728 19.192 128.12 19.192C126.84 19.192 125.72 18.944 124.76 18.448C123.816 17.952 123.088 17.248 122.576 16.336C122.064 15.408 121.808 14.32 121.808 13.072C121.808 11.872 122.056 10.808 122.552 9.88C123.048 8.952 123.736 8.232 124.616 7.72C125.496 7.192 126.496 6.928 127.616 6.928C128.688 6.928 129.624 7.168 130.424 7.648C131.24 8.112 131.872 8.784 132.32 9.664C132.768 10.528 132.992 11.544 132.992 12.712C132.992 13.064 132.904 13.336 132.728 13.528C132.568 13.704 132.336 13.792 132.032 13.792H125.312C125.424 14.736 125.712 15.424 126.176 15.856C126.64 16.272 127.304 16.48 128.168 16.48C128.632 16.48 129.048 16.424 129.416 16.312C129.784 16.2 130.192 16.048 130.64 15.856C130.864 15.76 131.08 15.68 131.288 15.616C131.496 15.536 131.68 15.496 131.84 15.496ZM127.712 9.424C127.024 9.424 126.472 9.648 126.056 10.096C125.64 10.528 125.392 11.16 125.312 11.992H129.944C129.896 11.144 129.68 10.504 129.296 10.072C128.928 9.64 128.4 9.424 127.712 9.424ZM140.485 6.928C142.213 6.928 143.493 7.352 144.325 8.2C145.157 9.032 145.573 10.312 145.573 12.04V17.464C145.573 17.992 145.421 18.408 145.117 18.712C144.813 19 144.389 19.144 143.845 19.144C143.333 19.144 142.917 18.992 142.597 18.688C142.293 18.368 142.141 17.96 142.141 17.464V17.296C141.901 17.888 141.501 18.352 140.941 18.688C140.381 19.024 139.725 19.192 138.973 19.192C138.173 19.192 137.445 19.032 136.789 18.712C136.149 18.392 135.637 17.944 135.253 17.368C134.885 16.792 134.701 16.152 134.701 15.448C134.701 14.584 134.917 13.904 135.349 13.408C135.797 12.912 136.509 12.552 137.485 12.328C138.461 12.104 139.797 11.992 141.493 11.992H142.117V11.56C142.117 10.888 141.965 10.4 141.661 10.096C141.373 9.792 140.885 9.64 140.197 9.64C139.509 9.64 138.517 9.88 137.221 10.36C136.853 10.536 136.541 10.624 136.285 10.624C135.933 10.624 135.653 10.504 135.445 10.264C135.237 10.008 135.133 9.68 135.133 9.28C135.133 8.96 135.205 8.696 135.349 8.488C135.493 8.28 135.725 8.088 136.045 7.912C136.605 7.608 137.285 7.368 138.085 7.192C138.901 7.016 139.701 6.928 140.485 6.928ZM139.765 16.696C140.469 16.696 141.037 16.464 141.469 16C141.901 15.52 142.117 14.904 142.117 14.152V13.744H141.709C140.413 13.744 139.501 13.848 138.973 14.056C138.461 14.264 138.205 14.64 138.205 15.184C138.205 15.632 138.349 16 138.637 16.288C138.941 16.56 139.317 16.696 139.765 16.696ZM158.339 1.96C158.899 1.96 159.347 2.112 159.683 2.416C160.035 2.72 160.211 3.12 160.211 3.616V17.44C160.211 17.952 160.043 18.368 159.707 18.688C159.387 18.992 158.955 19.144 158.411 19.144C157.867 19.144 157.427 18.992 157.091 18.688C156.771 18.368 156.611 17.952 156.611 17.44V17.248C156.259 17.856 155.755 18.336 155.099 18.688C154.459 19.024 153.731 19.192 152.915 19.192C151.907 19.192 151.003 18.936 150.203 18.424C149.419 17.896 148.803 17.168 148.355 16.24C147.923 15.296 147.707 14.216 147.707 13C147.707 11.784 147.923 10.72 148.355 9.808C148.803 8.88 149.419 8.168 150.203 7.672C150.987 7.176 151.891 6.928 152.915 6.928C153.715 6.928 154.435 7.096 155.075 7.432C155.731 7.768 156.235 8.24 156.587 8.848V3.544C156.587 3.064 156.747 2.68 157.067 2.392C157.387 2.104 157.811 1.96 158.339 1.96ZM153.971 16.432C154.819 16.432 155.467 16.144 155.915 15.568C156.379 14.976 156.611 14.136 156.611 13.048C156.611 11.96 156.379 11.128 155.915 10.552C155.467 9.976 154.819 9.688 153.971 9.688C153.123 9.688 152.467 9.976 152.003 10.552C151.539 11.112 151.307 11.928 151.307 13C151.307 14.088 151.539 14.936 152.003 15.544C152.467 16.136 153.123 16.432 153.971 16.432ZM164.825 19.144C164.297 19.144 163.857 19 163.505 18.712C163.169 18.424 163.001 18 163.001 17.44V3.664C163.001 3.104 163.169 2.68 163.505 2.392C163.857 2.104 164.297 1.96 164.825 1.96C165.337 1.96 165.761 2.104 166.097 2.392C166.449 2.68 166.625 3.104 166.625 3.664V17.44C166.625 18 166.449 18.424 166.097 18.712C165.761 19 165.337 19.144 164.825 19.144ZM171.224 19.144C170.696 19.144 170.256 19 169.904 18.712C169.568 18.424 169.4 18 169.4 17.44V8.68C169.4 8.12 169.576 7.696 169.928 7.408C170.28 7.12 170.712 6.976 171.224 6.976C171.736 6.976 172.16 7.12 172.496 7.408C172.848 7.696 173.024 8.12 173.024 8.68V17.44C173.024 18 172.848 18.424 172.496 18.712C172.16 19 171.736 19.144 171.224 19.144ZM171.224 5.056C170.584 5.056 170.08 4.896 169.712 4.576C169.344 4.24 169.16 3.792 169.16 3.232C169.16 2.672 169.344 2.232 169.712 1.912C170.08 1.592 170.584 1.432 171.224 1.432C171.848 1.432 172.344 1.6 172.712 1.936C173.096 2.256 173.288 2.688 173.288 3.232C173.288 3.792 173.104 4.24 172.736 4.576C172.368 4.896 171.864 5.056 171.224 5.056ZM183.19 6.928C184.598 6.928 185.646 7.344 186.334 8.176C187.022 8.992 187.366 10.232 187.366 11.896V17.44C187.366 17.968 187.198 18.384 186.862 18.688C186.542 18.992 186.102 19.144 185.542 19.144C184.982 19.144 184.542 18.992 184.222 18.688C183.902 18.384 183.742 17.968 183.742 17.44V12.064C183.742 11.264 183.59 10.68 183.286 10.312C182.998 9.944 182.542 9.76 181.918 9.76C181.166 9.76 180.558 10 180.094 10.48C179.646 10.96 179.422 11.6 179.422 12.4V17.44C179.422 17.968 179.262 18.384 178.942 18.688C178.622 18.992 178.182 19.144 177.622 19.144C177.062 19.144 176.614 18.992 176.278 18.688C175.958 18.384 175.798 17.968 175.798 17.44V8.632C175.798 8.136 175.966 7.736 176.302 7.432C176.654 7.128 177.102 6.976 177.646 6.976C178.142 6.976 178.542 7.128 178.846 7.432C179.166 7.72 179.326 8.096 179.326 8.56V8.896C179.742 8.256 180.278 7.768 180.934 7.432C181.606 7.096 182.358 6.928 183.19 6.928ZM199.528 15.496C199.848 15.496 200.104 15.624 200.296 15.88C200.504 16.136 200.608 16.464 200.608 16.864C200.608 17.136 200.528 17.392 200.368 17.632C200.208 17.856 199.984 18.048 199.696 18.208C199.152 18.496 198.52 18.736 197.8 18.928C197.08 19.104 196.416 19.192 195.808 19.192C194.528 19.192 193.408 18.944 192.448 18.448C191.504 17.952 190.776 17.248 190.264 16.336C189.752 15.408 189.496 14.32 189.496 13.072C189.496 11.872 189.744 10.808 190.24 9.88C190.736 8.952 191.424 8.232 192.304 7.72C193.184 7.192 194.184 6.928 195.304 6.928C196.376 6.928 197.312 7.168 198.112 7.648C198.928 8.112 199.56 8.784 200.008 9.664C200.456 10.528 200.68 11.544 200.68 12.712C200.68 13.064 200.592 13.336 200.416 13.528C200.256 13.704 200.024 13.792 199.72 13.792H193C193.112 14.736 193.4 15.424 193.864 15.856C194.328 16.272 194.992 16.48 195.856 16.48C196.32 16.48 196.736 16.424 197.104 16.312C197.472 16.2 197.88 16.048 198.328 15.856C198.552 15.76 198.768 15.68 198.976 15.616C199.184 15.536 199.368 15.496 199.528 15.496ZM195.4 9.424C194.712 9.424 194.16 9.648 193.744 10.096C193.328 10.528 193.08 11.16 193 11.992H197.632C197.584 11.144 197.368 10.504 196.984 10.072C196.616 9.64 196.088 9.424 195.4 9.424ZM220.324 16C221.492 16 222.076 16.496 222.076 17.488C222.076 18.496 221.492 19 220.324 19H212.116C210.932 19 210.34 18.496 210.34 17.488C210.34 16.496 210.932 16 212.116 16H214.348V6.184L212.236 7.456C211.996 7.6 211.756 7.672 211.516 7.672C211.116 7.672 210.772 7.504 210.484 7.168C210.212 6.832 210.076 6.456 210.076 6.04C210.076 5.48 210.324 5.056 210.82 4.768L214.612 2.488C215.172 2.152 215.732 1.984 216.292 1.984C216.82 1.984 217.252 2.152 217.588 2.488C217.924 2.808 218.092 3.248 218.092 3.808V16H220.324Z" fill="black"/>
</svg>
