<svg width="98" height="14" viewBox="0 0 98 14" fill="none" xmlns="http://www.w3.org/2000/svg">
<path d="M0.428 12C0.334667 12 0.255333 11.9673 0.19 11.902C0.124667 11.8367 0.092 11.7573 0.092 11.664V2.55C0.092 2.44733 0.12 2.36333 0.176 2.298C0.241333 2.23267 0.325333 2.2 0.428 2.2H4.488C5.58 2.2 6.392 2.44267 6.924 2.928C7.46533 3.404 7.736 4.05733 7.736 4.888C7.736 5.37333 7.61467 5.78867 7.372 6.134C7.13867 6.47 6.86333 6.71267 6.546 6.862C6.938 7.03933 7.26467 7.32867 7.526 7.73C7.79667 8.13133 7.932 8.58867 7.932 9.102C7.932 9.97 7.638 10.67 7.05 11.202C6.47133 11.734 5.65467 12 4.6 12H0.428ZM4.236 6.218C4.72133 6.218 5.09 6.10133 5.342 5.868C5.594 5.63467 5.72 5.322 5.72 4.93C5.72 4.52867 5.594 4.22067 5.342 4.006C5.09 3.782 4.72133 3.67 4.236 3.67H2.038V6.218H4.236ZM4.376 10.516C4.86133 10.516 5.23933 10.3853 5.51 10.124C5.78067 9.85333 5.916 9.51267 5.916 9.102C5.916 8.682 5.78067 8.34133 5.51 8.08C5.23933 7.80933 4.86133 7.674 4.376 7.674H2.038V10.516H4.376ZM12.3987 12.14C11.54 12.14 10.8633 11.86 10.3687 11.3C9.87399 10.7307 9.62666 9.96067 9.62666 8.99V5.056C9.62666 4.96267 9.65932 4.88333 9.72466 4.818C9.78999 4.75267 9.86932 4.72 9.96266 4.72H11.1947C11.2973 4.72 11.3767 4.75267 11.4327 4.818C11.498 4.874 11.5307 4.95333 11.5307 5.056V8.906C11.5307 10.0633 12.0393 10.642 13.0567 10.642C13.542 10.642 13.9247 10.488 14.2047 10.18C14.494 9.872 14.6387 9.44733 14.6387 8.906V5.056C14.6387 4.96267 14.6713 4.88333 14.7367 4.818C14.802 4.75267 14.8813 4.72 14.9747 4.72H16.2067C16.3093 4.72 16.3887 4.75267 16.4447 4.818C16.51 4.874 16.5427 4.95333 16.5427 5.056V11.664C16.5427 11.7573 16.51 11.8367 16.4447 11.902C16.3887 11.9673 16.3093 12 16.2067 12H15.0727C14.9793 12 14.9 11.9673 14.8347 11.902C14.7693 11.8367 14.7367 11.7573 14.7367 11.664V11.09C14.214 11.79 13.4347 12.14 12.3987 12.14ZM21.857 12C21.0076 12 20.3683 11.7807 19.939 11.342C19.519 10.894 19.309 10.2407 19.309 9.382V6.204H18.203C18.1096 6.204 18.0303 6.17133 17.965 6.106C17.8996 6.03133 17.867 5.94733 17.867 5.854V5.056C17.867 4.96267 17.8996 4.88333 17.965 4.818C18.0303 4.75267 18.1096 4.72 18.203 4.72H19.309V2.396C19.309 2.29333 19.3416 2.214 19.407 2.158C19.4723 2.09267 19.5516 2.06 19.645 2.06H20.779C20.8816 2.06 20.961 2.09267 21.017 2.158C21.0823 2.214 21.115 2.29333 21.115 2.396V4.72H22.865C22.9676 4.72 23.047 4.75267 23.103 4.818C23.1683 4.874 23.201 4.95333 23.201 5.056V5.854C23.201 5.95667 23.1683 6.04067 23.103 6.106C23.0376 6.17133 22.9583 6.204 22.865 6.204H21.115V9.242C21.115 9.64333 21.185 9.94667 21.325 10.152C21.465 10.3573 21.6983 10.46 22.025 10.46H22.991C23.0843 10.46 23.1636 10.4927 23.229 10.558C23.2943 10.6233 23.327 10.7027 23.327 10.796V11.664C23.327 11.7573 23.2943 11.8367 23.229 11.902C23.173 11.9673 23.0936 12 22.991 12H21.857ZM28.0339 12C27.1846 12 26.5453 11.7807 26.1159 11.342C25.6959 10.894 25.4859 10.2407 25.4859 9.382V6.204H24.3799C24.2866 6.204 24.2073 6.17133 24.1419 6.106C24.0766 6.03133 24.0439 5.94733 24.0439 5.854V5.056C24.0439 4.96267 24.0766 4.88333 24.1419 4.818C24.2073 4.75267 24.2866 4.72 24.3799 4.72H25.4859V2.396C25.4859 2.29333 25.5186 2.214 25.5839 2.158C25.6493 2.09267 25.7286 2.06 25.8219 2.06H26.9559C27.0586 2.06 27.1379 2.09267 27.1939 2.158C27.2593 2.214 27.2919 2.29333 27.2919 2.396V4.72H29.0419C29.1446 4.72 29.2239 4.75267 29.2799 4.818C29.3453 4.874 29.3779 4.95333 29.3779 5.056V5.854C29.3779 5.95667 29.3453 6.04067 29.2799 6.106C29.2146 6.17133 29.1353 6.204 29.0419 6.204H27.2919V9.242C27.2919 9.64333 27.3619 9.94667 27.5019 10.152C27.6419 10.3573 27.8753 10.46 28.2019 10.46H29.1679C29.2613 10.46 29.3406 10.4927 29.4059 10.558C29.4713 10.6233 29.5039 10.7027 29.5039 10.796V11.664C29.5039 11.7573 29.4713 11.8367 29.4059 11.902C29.3499 11.9673 29.2706 12 29.1679 12H28.0339ZM34.1409 12.14C33.0489 12.14 32.2042 11.86 31.6069 11.3C31.0095 10.7307 30.6875 9.956 30.6409 8.976L30.6269 8.36L30.6409 7.744C30.6875 6.77333 31.0142 6.00333 31.6209 5.434C32.2275 4.86467 33.0675 4.58 34.1409 4.58C35.2142 4.58 36.0542 4.86467 36.6609 5.434C37.2675 6.00333 37.5942 6.77333 37.6409 7.744C37.6502 7.856 37.6549 8.06133 37.6549 8.36C37.6549 8.65867 37.6502 8.864 37.6409 8.976C37.5942 9.956 37.2722 10.7307 36.6749 11.3C36.0775 11.86 35.2329 12.14 34.1409 12.14ZM34.1409 10.754C34.6355 10.754 35.0182 10.6 35.2889 10.292C35.5595 9.97467 35.7089 9.51267 35.7369 8.906C35.7462 8.81267 35.7509 8.63067 35.7509 8.36C35.7509 8.08933 35.7462 7.90733 35.7369 7.814C35.7089 7.20733 35.5595 6.75 35.2889 6.442C35.0182 6.12467 34.6355 5.966 34.1409 5.966C33.6462 5.966 33.2635 6.12467 32.9929 6.442C32.7222 6.75 32.5729 7.20733 32.5449 7.814L32.5309 8.36L32.5449 8.906C32.5729 9.51267 32.7222 9.97467 32.9929 10.292C33.2635 10.6 33.6462 10.754 34.1409 10.754ZM39.717 12C39.6237 12 39.5444 11.9673 39.479 11.902C39.4137 11.8367 39.381 11.7573 39.381 11.664V5.056C39.381 4.96267 39.4137 4.88333 39.479 4.818C39.5444 4.75267 39.6237 4.72 39.717 4.72H40.865C40.9584 4.72 41.0377 4.75267 41.103 4.818C41.1684 4.88333 41.201 4.96267 41.201 5.056V5.63C41.7517 4.93 42.531 4.58 43.539 4.58C44.3977 4.58 45.079 4.86467 45.583 5.434C46.087 5.994 46.339 6.75933 46.339 7.73V11.664C46.339 11.7573 46.3064 11.8367 46.241 11.902C46.185 11.9673 46.1057 12 46.003 12H44.771C44.6777 12 44.5984 11.9673 44.533 11.902C44.4677 11.8367 44.435 11.7573 44.435 11.664V7.814C44.435 7.26333 44.2997 6.83867 44.029 6.54C43.7677 6.232 43.385 6.078 42.881 6.078C42.3864 6.078 41.9944 6.232 41.705 6.54C41.425 6.848 41.285 7.27267 41.285 7.814V11.664C41.285 11.7573 41.2524 11.8367 41.187 11.902C41.131 11.9673 41.0517 12 40.949 12H39.717ZM47.9984 13.176C47.9237 13.176 47.8584 13.148 47.8024 13.092C47.7464 13.036 47.7184 12.966 47.7184 12.882C47.7184 12.826 47.7277 12.7747 47.7464 12.728L52.5204 1.29C52.5484 1.21533 52.595 1.15 52.6604 1.094C52.735 1.02867 52.8284 0.996 52.9404 0.996H53.8504C53.925 0.996 53.9904 1.024 54.0464 1.08C54.1117 1.136 54.1444 1.206 54.1444 1.29C54.1444 1.318 54.1304 1.36933 54.1024 1.444L49.3284 12.882C49.235 13.078 49.0904 13.176 48.8944 13.176H47.9984ZM61.6107 6.918C62.1801 7.07667 62.6187 7.36133 62.9267 7.772C63.2441 8.18267 63.4027 8.696 63.4027 9.312C63.4027 10.1613 63.1087 10.824 62.5207 11.3C61.9421 11.7667 61.1301 12 60.0847 12H56.5147C56.2907 12 56.1134 11.9393 55.9827 11.818C55.8614 11.6873 55.8007 11.5147 55.8007 11.3V2.83C55.8007 2.61533 55.8614 2.44733 55.9827 2.326C56.1134 2.19533 56.2907 2.13 56.5147 2.13H59.9307C60.9481 2.13 61.7414 2.35867 62.3107 2.816C62.8894 3.264 63.1787 3.894 63.1787 4.706C63.1787 5.22867 63.0387 5.68133 62.7587 6.064C62.4881 6.44667 62.1054 6.73133 61.6107 6.918ZM57.2147 6.4H59.7067C61.0881 6.4 61.7787 5.87733 61.7787 4.832C61.7787 4.30933 61.6061 3.922 61.2607 3.67C60.9247 3.418 60.4067 3.292 59.7067 3.292H57.2147V6.4ZM59.9307 10.838C60.6494 10.838 61.1767 10.7073 61.5127 10.446C61.8487 10.1847 62.0167 9.77867 62.0167 9.228C62.0167 8.668 61.8441 8.25267 61.4987 7.982C61.1627 7.702 60.6401 7.562 59.9307 7.562H57.2147V10.838H59.9307ZM70.588 5.028C70.8027 5.028 70.9707 5.08867 71.092 5.21C71.2227 5.33133 71.288 5.49933 71.288 5.714V11.412C71.288 11.608 71.2227 11.7667 71.092 11.888C70.9614 12.0093 70.7887 12.07 70.574 12.07C70.378 12.07 70.2194 12.014 70.098 11.902C69.9767 11.7807 69.916 11.622 69.916 11.426V10.894C69.7014 11.286 69.4027 11.5847 69.02 11.79C68.6467 11.9953 68.2267 12.098 67.76 12.098C66.0987 12.098 65.268 11.1833 65.268 9.354V5.714C65.268 5.49933 65.3287 5.33133 65.45 5.21C65.5807 5.08867 65.758 5.028 65.982 5.028C66.1967 5.028 66.3647 5.08867 66.486 5.21C66.6167 5.33133 66.682 5.49933 66.682 5.714V9.34C66.682 9.89067 66.794 10.2967 67.018 10.558C67.242 10.8193 67.5874 10.95 68.054 10.95C68.6047 10.95 69.0434 10.7727 69.37 10.418C69.706 10.0633 69.874 9.592 69.874 9.004V5.714C69.874 5.50867 69.9394 5.34533 70.07 5.224C70.2007 5.09333 70.3734 5.028 70.588 5.028ZM76.7877 10.992C76.993 11.0107 77.1377 11.0667 77.2217 11.16C77.315 11.244 77.3617 11.3653 77.3617 11.524C77.3617 11.7107 77.287 11.8553 77.1377 11.958C76.9977 12.0513 76.7877 12.0887 76.5077 12.07L76.1297 12.042C75.3737 11.986 74.809 11.7573 74.4357 11.356C74.0624 10.9453 73.8757 10.3433 73.8757 9.55V6.26H73.0357C72.625 6.26 72.4197 6.078 72.4197 5.714C72.4197 5.546 72.471 5.41533 72.5737 5.322C72.6857 5.21933 72.8397 5.168 73.0357 5.168H73.8757V3.726C73.8757 3.51133 73.9364 3.34333 74.0577 3.222C74.1884 3.10067 74.361 3.04 74.5757 3.04C74.7904 3.04 74.963 3.10067 75.0937 3.222C75.2244 3.34333 75.2897 3.51133 75.2897 3.726V5.168H76.6757C76.8717 5.168 77.021 5.21933 77.1237 5.322C77.2357 5.41533 77.2917 5.546 77.2917 5.714C77.2917 5.89133 77.2357 6.02667 77.1237 6.12C77.021 6.21333 76.8717 6.26 76.6757 6.26H75.2897V9.648C75.2897 10.0867 75.3784 10.4087 75.5557 10.614C75.7424 10.8193 76.0224 10.936 76.3957 10.964L76.7877 10.992ZM81.8709 10.992C82.0763 11.0107 82.2209 11.0667 82.3049 11.16C82.3983 11.244 82.4449 11.3653 82.4449 11.524C82.4449 11.7107 82.3703 11.8553 82.2209 11.958C82.0809 12.0513 81.8709 12.0887 81.5909 12.07L81.2129 12.042C80.4569 11.986 79.8923 11.7573 79.5189 11.356C79.1456 10.9453 78.9589 10.3433 78.9589 9.55V6.26H78.1189C77.7083 6.26 77.5029 6.078 77.5029 5.714C77.5029 5.546 77.5543 5.41533 77.6569 5.322C77.7689 5.21933 77.9229 5.168 78.1189 5.168H78.9589V3.726C78.9589 3.51133 79.0196 3.34333 79.1409 3.222C79.2716 3.10067 79.4443 3.04 79.6589 3.04C79.8736 3.04 80.0463 3.10067 80.1769 3.222C80.3076 3.34333 80.3729 3.51133 80.3729 3.726V5.168H81.7589C81.9549 5.168 82.1043 5.21933 82.2069 5.322C82.3189 5.41533 82.3749 5.546 82.3749 5.714C82.3749 5.89133 82.3189 6.02667 82.2069 6.12C82.1043 6.21333 81.9549 6.26 81.7589 6.26H80.3729V9.648C80.3729 10.0867 80.4616 10.4087 80.6389 10.614C80.8256 10.8193 81.1056 10.936 81.4789 10.964L81.8709 10.992ZM86.6035 12.098C85.9315 12.098 85.3388 11.9533 84.8255 11.664C84.3215 11.3747 83.9295 10.964 83.6495 10.432C83.3788 9.89067 83.2435 9.26533 83.2435 8.556C83.2435 7.83733 83.3788 7.212 83.6495 6.68C83.9295 6.13867 84.3215 5.72333 84.8255 5.434C85.3388 5.14467 85.9315 5 86.6035 5C87.2755 5 87.8635 5.14467 88.3675 5.434C88.8808 5.72333 89.2728 6.13867 89.5435 6.68C89.8235 7.212 89.9635 7.83733 89.9635 8.556C89.9635 9.26533 89.8235 9.89067 89.5435 10.432C89.2728 10.964 88.8808 11.3747 88.3675 11.664C87.8635 11.9533 87.2755 12.098 86.6035 12.098ZM86.6035 10.978C87.2288 10.978 87.7048 10.7727 88.0315 10.362C88.3675 9.95133 88.5355 9.34933 88.5355 8.556C88.5355 7.772 88.3675 7.17467 88.0315 6.764C87.6955 6.344 87.2195 6.134 86.6035 6.134C85.9875 6.134 85.5115 6.344 85.1755 6.764C84.8395 7.17467 84.6715 7.772 84.6715 8.556C84.6715 9.34933 84.8348 9.95133 85.1615 10.362C85.4975 10.7727 85.9781 10.978 86.6035 10.978ZM95.3948 5C97.0281 5 97.8448 5.91933 97.8448 7.758V11.398C97.8448 11.6127 97.7795 11.7807 97.6488 11.902C97.5275 12.014 97.3548 12.07 97.1308 12.07C96.9161 12.07 96.7435 12.0093 96.6128 11.888C96.4915 11.7667 96.4308 11.6033 96.4308 11.398V7.828C96.4308 7.24933 96.3141 6.82467 96.0808 6.554C95.8568 6.28333 95.5021 6.148 95.0168 6.148C94.4475 6.148 93.9901 6.32533 93.6448 6.68C93.2995 7.03467 93.1268 7.51067 93.1268 8.108V11.398C93.1268 11.6033 93.0615 11.7667 92.9308 11.888C92.8095 12.0093 92.6415 12.07 92.4268 12.07C92.2121 12.07 92.0395 12.0093 91.9088 11.888C91.7781 11.7667 91.7128 11.6033 91.7128 11.398V5.7C91.7128 5.504 91.7781 5.34533 91.9088 5.224C92.0488 5.09333 92.2215 5.028 92.4268 5.028C92.6321 5.028 92.7955 5.08867 92.9168 5.21C93.0381 5.33133 93.0988 5.49 93.0988 5.686V6.26C93.3228 5.84933 93.6355 5.53667 94.0368 5.322C94.4381 5.10733 94.8908 5 95.3948 5Z" fill="black"/>
</svg>
