<svg width="373" height="154" viewBox="0 0 373 154" fill="none" xmlns="http://www.w3.org/2000/svg">
<rect width="373" height="154" fill="#F9CFD7"/>
<path d="M18.192 33C17.8827 33 17.6427 32.9147 17.472 32.744C17.3013 32.5733 17.216 32.3387 17.216 32.04V22.664C17.216 22.3547 17.3067 22.1093 17.488 21.928C17.68 21.736 17.9307 21.64 18.24 21.64C18.56 21.64 18.8107 21.736 18.992 21.928C19.184 22.1093 19.28 22.3547 19.28 22.664V31.304H23.776C24.416 31.304 24.736 31.5867 24.736 32.152C24.736 32.7173 24.416 33 23.776 33H18.192ZM29.387 24.984C30.475 24.984 31.2803 25.256 31.803 25.8C32.3363 26.3333 32.603 27.1493 32.603 28.248V32.152C32.603 32.44 32.5177 32.6693 32.347 32.84C32.1763 33 31.9417 33.08 31.643 33.08C31.3657 33.08 31.1363 32.9947 30.955 32.824C30.7843 32.6533 30.699 32.4293 30.699 32.152V31.8C30.5177 32.216 30.2297 32.5413 29.835 32.776C29.451 33.0107 29.003 33.128 28.491 33.128C27.9683 33.128 27.4937 33.0213 27.067 32.808C26.6403 32.5947 26.3043 32.3013 26.059 31.928C25.8137 31.5547 25.691 31.1387 25.691 30.68C25.691 30.104 25.835 29.6507 26.123 29.32C26.4217 28.9893 26.9017 28.7493 27.563 28.6C28.2243 28.4507 29.1363 28.376 30.299 28.376H30.699V28.008C30.699 27.4853 30.587 27.1067 30.363 26.872C30.139 26.6267 29.7763 26.504 29.275 26.504C28.9657 26.504 28.651 26.552 28.331 26.648C28.011 26.7333 27.6323 26.8613 27.195 27.032C26.9177 27.1707 26.715 27.24 26.587 27.24C26.395 27.24 26.235 27.1707 26.107 27.032C25.9897 26.8933 25.931 26.712 25.931 26.488C25.931 26.3067 25.9737 26.152 26.059 26.024C26.155 25.8853 26.3097 25.7573 26.523 25.64C26.8963 25.4373 27.339 25.2773 27.851 25.16C28.3737 25.0427 28.8857 24.984 29.387 24.984ZM28.891 31.688C29.4243 31.688 29.8563 31.512 30.187 31.16C30.5283 30.7973 30.699 30.3333 30.699 29.768V29.432H30.411C29.6963 29.432 29.1417 29.464 28.747 29.528C28.3523 29.592 28.0697 29.704 27.899 29.864C27.7283 30.024 27.643 30.2427 27.643 30.52C27.643 30.8613 27.7603 31.144 27.995 31.368C28.2403 31.5813 28.539 31.688 28.891 31.688ZM43.5074 25.016C43.7847 24.9947 44.0034 25.0533 44.1634 25.192C44.3234 25.3307 44.4034 25.5387 44.4034 25.816C44.4034 26.104 44.334 26.3173 44.1954 26.456C44.0567 26.5947 43.806 26.6853 43.4434 26.728L42.9634 26.776C42.334 26.84 41.87 27.0533 41.5714 27.416C41.2834 27.7787 41.1394 28.232 41.1394 28.776V32.136C41.1394 32.4453 41.0434 32.6853 40.8514 32.856C40.6594 33.016 40.4194 33.096 40.1314 33.096C39.8434 33.096 39.6034 33.016 39.4114 32.856C39.23 32.6853 39.1394 32.4453 39.1394 32.136V25.944C39.1394 25.6453 39.23 25.416 39.4114 25.256C39.6034 25.096 39.838 25.016 40.1154 25.016C40.3927 25.016 40.6167 25.096 40.7874 25.256C40.958 25.4053 41.0434 25.624 41.0434 25.912V26.552C41.246 26.0827 41.5447 25.72 41.9394 25.464C42.3447 25.208 42.7927 25.064 43.2834 25.032L43.5074 25.016ZM51.3801 30.856C51.5615 30.856 51.7055 30.9253 51.8121 31.064C51.9295 31.2027 51.9881 31.3893 51.9881 31.624C51.9881 31.9547 51.7908 32.232 51.3961 32.456C51.0335 32.6587 50.6228 32.824 50.1641 32.952C49.7055 33.0693 49.2681 33.128 48.8521 33.128C47.5935 33.128 46.5961 32.7653 45.8601 32.04C45.1241 31.3147 44.7561 30.3227 44.7561 29.064C44.7561 28.264 44.9161 27.5547 45.2361 26.936C45.5561 26.3173 46.0041 25.8373 46.5801 25.496C47.1668 25.1547 47.8281 24.984 48.5641 24.984C49.2681 24.984 49.8815 25.1387 50.4041 25.448C50.9268 25.7573 51.3321 26.1947 51.6201 26.76C51.9081 27.3253 52.0521 27.992 52.0521 28.76C52.0521 29.2187 51.8495 29.448 51.4441 29.448H46.7241C46.7881 30.184 46.9961 30.728 47.3481 31.08C47.7001 31.4213 48.2121 31.592 48.8841 31.592C49.2255 31.592 49.5241 31.5493 49.7801 31.464C50.0468 31.3787 50.3455 31.2613 50.6761 31.112C50.9961 30.9413 51.2308 30.856 51.3801 30.856ZM48.6121 26.392C48.0681 26.392 47.6308 26.5627 47.3001 26.904C46.9801 27.2453 46.7881 27.736 46.7241 28.376H50.3401C50.3188 27.7253 50.1588 27.2347 49.8601 26.904C49.5615 26.5627 49.1455 26.392 48.6121 26.392ZM56.6001 33.128C55.4375 33.128 54.4988 32.8987 53.7841 32.44C53.4428 32.2373 53.2721 31.9493 53.2721 31.576C53.2721 31.3627 53.3308 31.192 53.4481 31.064C53.5655 30.9253 53.7095 30.856 53.8801 30.856C54.0615 30.856 54.3121 30.9413 54.6321 31.112C54.9735 31.272 55.2828 31.3947 55.5601 31.48C55.8481 31.5653 56.2108 31.608 56.6481 31.608C57.0961 31.608 57.4428 31.5333 57.6881 31.384C57.9441 31.2347 58.0721 31.0267 58.0721 30.76C58.0721 30.5787 58.0188 30.4347 57.9121 30.328C57.8161 30.2213 57.6348 30.1253 57.3681 30.04C57.1121 29.944 56.7175 29.8373 56.1841 29.72C55.2348 29.528 54.5521 29.256 54.1361 28.904C53.7308 28.552 53.5281 28.0667 53.5281 27.448C53.5281 26.9787 53.6668 26.5573 53.9441 26.184C54.2215 25.8 54.6001 25.5067 55.0801 25.304C55.5708 25.0907 56.1255 24.984 56.7441 24.984C57.1921 24.984 57.6241 25.0427 58.0401 25.16C58.4561 25.2667 58.8295 25.4267 59.1601 25.64C59.5015 25.8533 59.6721 26.136 59.6721 26.488C59.6721 26.7013 59.6135 26.8827 59.4961 27.032C59.3788 27.1707 59.2348 27.24 59.0641 27.24C58.9468 27.24 58.8295 27.2187 58.7121 27.176C58.6055 27.1227 58.4668 27.048 58.2961 26.952C57.9868 26.792 57.7201 26.6747 57.4961 26.6C57.2721 26.5147 56.9948 26.472 56.6641 26.472C56.2695 26.472 55.9548 26.552 55.7201 26.712C55.4961 26.872 55.3841 27.0907 55.3841 27.368C55.3841 27.6347 55.5015 27.8373 55.7361 27.976C55.9708 28.1147 56.4241 28.2533 57.0961 28.392C57.8108 28.5413 58.3708 28.712 58.7761 28.904C59.1815 29.096 59.4695 29.336 59.6401 29.624C59.8215 29.912 59.9121 30.28 59.9121 30.728C59.9121 31.4533 59.6081 32.0347 59.0001 32.472C58.4028 32.9093 57.6028 33.128 56.6001 33.128ZM66.1097 24.984C66.7817 24.984 67.3791 25.1547 67.9018 25.496C68.4351 25.8373 68.8457 26.3227 69.1337 26.952C69.4324 27.5707 69.5817 28.2853 69.5817 29.096C69.5817 29.9067 69.4324 30.616 69.1337 31.224C68.8457 31.832 68.4404 32.3013 67.9177 32.632C67.3951 32.9627 66.7924 33.128 66.1097 33.128C65.5551 33.128 65.0591 33.0107 64.6217 32.776C64.1844 32.5413 63.8484 32.216 63.6137 31.8V35.064C63.6137 35.3413 63.5231 35.56 63.3417 35.72C63.1604 35.88 62.9204 35.96 62.6217 35.96C62.3231 35.96 62.0777 35.8747 61.8857 35.704C61.7044 35.5333 61.6137 35.3093 61.6137 35.032V25.96C61.6137 25.672 61.6991 25.4427 61.8697 25.272C62.0511 25.1013 62.2911 25.016 62.5897 25.016C62.8884 25.016 63.1284 25.1013 63.3097 25.272C63.4911 25.4427 63.5817 25.672 63.5817 25.96V26.36C63.8164 25.9227 64.1524 25.5867 64.5897 25.352C65.0377 25.1067 65.5444 24.984 66.1097 24.984ZM65.5817 31.576C66.2111 31.576 66.7017 31.3627 67.0538 30.936C67.4057 30.4987 67.5817 29.8853 67.5817 29.096C67.5817 28.2853 67.4057 27.656 67.0538 27.208C66.7017 26.76 66.2111 26.536 65.5817 26.536C64.9417 26.536 64.4457 26.7547 64.0937 27.192C63.7524 27.6293 63.5817 28.2533 63.5817 29.064C63.5817 29.864 63.7524 30.4827 64.0937 30.92C64.4457 31.3573 64.9417 31.576 65.5817 31.576ZM77.4791 25.016C77.7885 25.016 78.0338 25.1013 78.2151 25.272C78.3965 25.4427 78.4871 25.672 78.4871 25.96V32.168C78.4871 32.4453 78.3911 32.6693 78.1991 32.84C78.0178 33.0107 77.7778 33.096 77.4791 33.096C77.1911 33.096 76.9618 33.016 76.7911 32.856C76.6205 32.696 76.5351 32.4773 76.5351 32.2V31.8C76.2898 32.2267 75.9591 32.5573 75.5431 32.792C75.1271 33.016 74.6578 33.128 74.1351 33.128C72.2151 33.128 71.2551 32.0507 71.2551 29.896V25.96C71.2551 25.672 71.3458 25.4427 71.5271 25.272C71.7085 25.1013 71.9485 25.016 72.2471 25.016C72.5565 25.016 72.8018 25.1013 72.9831 25.272C73.1645 25.4427 73.2551 25.672 73.2551 25.96V29.912C73.2551 30.4667 73.3671 30.8773 73.5911 31.144C73.8151 31.4107 74.1671 31.544 74.6471 31.544C75.2018 31.544 75.6445 31.3627 75.9751 31C76.3165 30.6267 76.4871 30.136 76.4871 29.528V25.96C76.4871 25.672 76.5778 25.4427 76.7591 25.272C76.9405 25.1013 77.1805 25.016 77.4791 25.016ZM86.8407 30.856C87.0221 30.856 87.1661 30.9253 87.2727 31.064C87.3901 31.2027 87.4487 31.3893 87.4487 31.624C87.4487 31.9547 87.2514 32.232 86.8567 32.456C86.4941 32.6587 86.0834 32.824 85.6247 32.952C85.1661 33.0693 84.7287 33.128 84.3127 33.128C83.0541 33.128 82.0567 32.7653 81.3207 32.04C80.5847 31.3147 80.2167 30.3227 80.2167 29.064C80.2167 28.264 80.3767 27.5547 80.6967 26.936C81.0167 26.3173 81.4647 25.8373 82.0407 25.496C82.6274 25.1547 83.2887 24.984 84.0247 24.984C84.7287 24.984 85.3421 25.1387 85.8647 25.448C86.3874 25.7573 86.7927 26.1947 87.0807 26.76C87.3687 27.3253 87.5127 27.992 87.5127 28.76C87.5127 29.2187 87.3101 29.448 86.9047 29.448H82.1847C82.2487 30.184 82.4567 30.728 82.8087 31.08C83.1607 31.4213 83.6727 31.592 84.3447 31.592C84.6861 31.592 84.9847 31.5493 85.2407 31.464C85.5074 31.3787 85.8061 31.2613 86.1367 31.112C86.4567 30.9413 86.6914 30.856 86.8407 30.856ZM84.0727 26.392C83.5287 26.392 83.0914 26.5627 82.7607 26.904C82.4407 27.2453 82.2487 27.736 82.1847 28.376H85.8007C85.7794 27.7253 85.6194 27.2347 85.3207 26.904C85.0221 26.5627 84.6061 26.392 84.0727 26.392ZM92.0608 33.128C90.8981 33.128 89.9594 32.8987 89.2448 32.44C88.9034 32.2373 88.7328 31.9493 88.7328 31.576C88.7328 31.3627 88.7914 31.192 88.9088 31.064C89.0261 30.9253 89.1701 30.856 89.3408 30.856C89.5221 30.856 89.7728 30.9413 90.0928 31.112C90.4341 31.272 90.7434 31.3947 91.0208 31.48C91.3088 31.5653 91.6714 31.608 92.1088 31.608C92.5568 31.608 92.9034 31.5333 93.1488 31.384C93.4048 31.2347 93.5328 31.0267 93.5328 30.76C93.5328 30.5787 93.4794 30.4347 93.3728 30.328C93.2768 30.2213 93.0954 30.1253 92.8288 30.04C92.5728 29.944 92.1781 29.8373 91.6448 29.72C90.6954 29.528 90.0128 29.256 89.5968 28.904C89.1914 28.552 88.9888 28.0667 88.9888 27.448C88.9888 26.9787 89.1274 26.5573 89.4048 26.184C89.6821 25.8 90.0608 25.5067 90.5408 25.304C91.0314 25.0907 91.5861 24.984 92.2048 24.984C92.6528 24.984 93.0848 25.0427 93.5008 25.16C93.9168 25.2667 94.2901 25.4267 94.6208 25.64C94.9621 25.8533 95.1328 26.136 95.1328 26.488C95.1328 26.7013 95.0741 26.8827 94.9568 27.032C94.8394 27.1707 94.6954 27.24 94.5248 27.24C94.4074 27.24 94.2901 27.2187 94.1728 27.176C94.0661 27.1227 93.9274 27.048 93.7568 26.952C93.4474 26.792 93.1808 26.6747 92.9568 26.6C92.7328 26.5147 92.4554 26.472 92.1248 26.472C91.7301 26.472 91.4154 26.552 91.1808 26.712C90.9568 26.872 90.8448 27.0907 90.8448 27.368C90.8448 27.6347 90.9621 27.8373 91.1968 27.976C91.4314 28.1147 91.8848 28.2533 92.5568 28.392C93.2714 28.5413 93.8314 28.712 94.2368 28.904C94.6421 29.096 94.9301 29.336 95.1008 29.624C95.2821 29.912 95.3728 30.28 95.3728 30.728C95.3728 31.4533 95.0688 32.0347 94.4608 32.472C93.8634 32.9093 93.0634 33.128 92.0608 33.128ZM101.06 31.608C101.594 31.64 101.86 31.88 101.86 32.328C101.86 32.584 101.754 32.7813 101.54 32.92C101.338 33.048 101.044 33.1013 100.66 33.08L100.228 33.048C98.4363 32.92 97.5403 31.96 97.5403 30.168V26.68H96.7403C96.4523 26.68 96.2283 26.616 96.0683 26.488C95.9189 26.36 95.8443 26.1733 95.8443 25.928C95.8443 25.6827 95.9189 25.496 96.0683 25.368C96.2283 25.24 96.4523 25.176 96.7403 25.176H97.5403V23.704C97.5403 23.416 97.6309 23.1867 97.8123 23.016C97.9936 22.8453 98.2389 22.76 98.5483 22.76C98.8469 22.76 99.0869 22.8453 99.2683 23.016C99.4496 23.1867 99.5403 23.416 99.5403 23.704V25.176H100.9C101.188 25.176 101.407 25.24 101.556 25.368C101.716 25.496 101.796 25.6827 101.796 25.928C101.796 26.1733 101.716 26.36 101.556 26.488C101.407 26.616 101.188 26.68 100.9 26.68H99.5403V30.312C99.5403 31.1013 99.9029 31.5227 100.628 31.576L101.06 31.608ZM106.374 24.984C107.462 24.984 108.268 25.256 108.79 25.8C109.324 26.3333 109.59 27.1493 109.59 28.248V32.152C109.59 32.44 109.505 32.6693 109.334 32.84C109.164 33 108.929 33.08 108.63 33.08C108.353 33.08 108.124 32.9947 107.942 32.824C107.772 32.6533 107.686 32.4293 107.686 32.152V31.8C107.505 32.216 107.217 32.5413 106.822 32.776C106.438 33.0107 105.99 33.128 105.478 33.128C104.956 33.128 104.481 33.0213 104.054 32.808C103.628 32.5947 103.292 32.3013 103.046 31.928C102.801 31.5547 102.678 31.1387 102.678 30.68C102.678 30.104 102.822 29.6507 103.11 29.32C103.409 28.9893 103.889 28.7493 104.55 28.6C105.212 28.4507 106.124 28.376 107.286 28.376H107.686V28.008C107.686 27.4853 107.574 27.1067 107.35 26.872C107.126 26.6267 106.764 26.504 106.262 26.504C105.953 26.504 105.638 26.552 105.318 26.648C104.998 26.7333 104.62 26.8613 104.182 27.032C103.905 27.1707 103.702 27.24 103.574 27.24C103.382 27.24 103.222 27.1707 103.094 27.032C102.977 26.8933 102.918 26.712 102.918 26.488C102.918 26.3067 102.961 26.152 103.046 26.024C103.142 25.8853 103.297 25.7573 103.51 25.64C103.884 25.4373 104.326 25.2773 104.838 25.16C105.361 25.0427 105.873 24.984 106.374 24.984ZM105.878 31.688C106.412 31.688 106.844 31.512 107.174 31.16C107.516 30.7973 107.686 30.3333 107.686 29.768V29.432H107.398C106.684 29.432 106.129 29.464 105.734 29.528C105.34 29.592 105.057 29.704 104.886 29.864C104.716 30.024 104.63 30.2427 104.63 30.52C104.63 30.8613 104.748 31.144 104.982 31.368C105.228 31.5813 105.526 31.688 105.878 31.688ZM119.599 33.128C118.82 33.128 118.132 32.9627 117.535 32.632C116.948 32.3013 116.495 31.832 116.175 31.224C115.855 30.616 115.695 29.9067 115.695 29.096C115.695 28.2853 115.86 27.5707 116.191 26.952C116.532 26.3227 117.007 25.8373 117.615 25.496C118.223 25.1547 118.922 24.984 119.711 24.984C120.127 24.984 120.543 25.0427 120.959 25.16C121.386 25.2773 121.759 25.4373 122.079 25.64C122.42 25.864 122.591 26.1467 122.591 26.488C122.591 26.7227 122.532 26.9147 122.415 27.064C122.308 27.2027 122.164 27.272 121.983 27.272C121.866 27.272 121.743 27.2453 121.615 27.192C121.487 27.1387 121.359 27.0747 121.231 27C120.996 26.8613 120.772 26.7547 120.559 26.68C120.346 26.5947 120.1 26.552 119.823 26.552C119.162 26.552 118.65 26.7707 118.287 27.208C117.935 27.6347 117.759 28.2533 117.759 29.064C117.759 29.864 117.935 30.4827 118.287 30.92C118.65 31.3467 119.162 31.56 119.823 31.56C120.09 31.56 120.324 31.5227 120.527 31.448C120.74 31.3627 120.975 31.2507 121.231 31.112C121.391 31.016 121.53 30.9467 121.647 30.904C121.764 30.8507 121.882 30.824 121.999 30.824C122.17 30.824 122.314 30.8987 122.431 31.048C122.548 31.1973 122.607 31.384 122.607 31.608C122.607 31.7893 122.564 31.9493 122.479 32.088C122.404 32.216 122.276 32.3333 122.095 32.44C121.764 32.6533 121.38 32.824 120.943 32.952C120.506 33.0693 120.058 33.128 119.599 33.128ZM127.587 33.128C126.787 33.128 126.083 32.9627 125.475 32.632C124.878 32.3013 124.414 31.8267 124.083 31.208C123.753 30.5893 123.587 29.8693 123.587 29.048C123.587 28.2267 123.753 27.512 124.083 26.904C124.414 26.2853 124.878 25.8107 125.475 25.48C126.083 25.1493 126.787 24.984 127.587 24.984C128.387 24.984 129.086 25.1493 129.683 25.48C130.291 25.8107 130.755 26.2853 131.075 26.904C131.406 27.512 131.571 28.2267 131.571 29.048C131.571 29.8693 131.406 30.5893 131.075 31.208C130.755 31.8267 130.291 32.3013 129.683 32.632C129.086 32.9627 128.387 33.128 127.587 33.128ZM127.571 31.576C128.222 31.576 128.718 31.3627 129.059 30.936C129.401 30.5093 129.571 29.88 129.571 29.048C129.571 28.2267 129.401 27.6027 129.059 27.176C128.718 26.7387 128.227 26.52 127.587 26.52C126.947 26.52 126.451 26.7387 126.099 27.176C125.758 27.6027 125.587 28.2267 125.587 29.048C125.587 29.88 125.758 30.5093 126.099 30.936C126.441 31.3627 126.931 31.576 127.571 31.576ZM137.67 25.016C137.948 24.9947 138.166 25.0533 138.326 25.192C138.486 25.3307 138.566 25.5387 138.566 25.816C138.566 26.104 138.497 26.3173 138.358 26.456C138.22 26.5947 137.969 26.6853 137.606 26.728L137.126 26.776C136.497 26.84 136.033 27.0533 135.734 27.416C135.446 27.7787 135.302 28.232 135.302 28.776V32.136C135.302 32.4453 135.206 32.6853 135.014 32.856C134.822 33.016 134.582 33.096 134.294 33.096C134.006 33.096 133.766 33.016 133.574 32.856C133.393 32.6853 133.302 32.4453 133.302 32.136V25.944C133.302 25.6453 133.393 25.416 133.574 25.256C133.766 25.096 134.001 25.016 134.278 25.016C134.556 25.016 134.78 25.096 134.95 25.256C135.121 25.4053 135.206 25.624 135.206 25.912V26.552C135.409 26.0827 135.708 25.72 136.102 25.464C136.508 25.208 136.956 25.064 137.446 25.032L137.67 25.016ZM143.875 25.016C144.153 24.9947 144.371 25.0533 144.531 25.192C144.691 25.3307 144.771 25.5387 144.771 25.816C144.771 26.104 144.702 26.3173 144.563 26.456C144.425 26.5947 144.174 26.6853 143.811 26.728L143.331 26.776C142.702 26.84 142.238 27.0533 141.939 27.416C141.651 27.7787 141.507 28.232 141.507 28.776V32.136C141.507 32.4453 141.411 32.6853 141.219 32.856C141.027 33.016 140.787 33.096 140.499 33.096C140.211 33.096 139.971 33.016 139.779 32.856C139.598 32.6853 139.507 32.4453 139.507 32.136V25.944C139.507 25.6453 139.598 25.416 139.779 25.256C139.971 25.096 140.206 25.016 140.483 25.016C140.761 25.016 140.985 25.096 141.155 25.256C141.326 25.4053 141.411 25.624 141.411 25.912V26.552C141.614 26.0827 141.913 25.72 142.307 25.464C142.713 25.208 143.161 25.064 143.651 25.032L143.875 25.016ZM151.748 30.856C151.93 30.856 152.074 30.9253 152.18 31.064C152.298 31.2027 152.356 31.3893 152.356 31.624C152.356 31.9547 152.159 32.232 151.764 32.456C151.402 32.6587 150.991 32.824 150.532 32.952C150.074 33.0693 149.636 33.128 149.22 33.128C147.962 33.128 146.964 32.7653 146.228 32.04C145.492 31.3147 145.124 30.3227 145.124 29.064C145.124 28.264 145.284 27.5547 145.604 26.936C145.924 26.3173 146.372 25.8373 146.948 25.496C147.535 25.1547 148.196 24.984 148.932 24.984C149.636 24.984 150.25 25.1387 150.772 25.448C151.295 25.7573 151.7 26.1947 151.988 26.76C152.276 27.3253 152.42 27.992 152.42 28.76C152.42 29.2187 152.218 29.448 151.812 29.448H147.092C147.156 30.184 147.364 30.728 147.716 31.08C148.068 31.4213 148.58 31.592 149.252 31.592C149.594 31.592 149.892 31.5493 150.148 31.464C150.415 31.3787 150.714 31.2613 151.044 31.112C151.364 30.9413 151.599 30.856 151.748 30.856ZM148.98 26.392C148.436 26.392 147.999 26.5627 147.668 26.904C147.348 27.2453 147.156 27.736 147.092 28.376H150.708C150.687 27.7253 150.527 27.2347 150.228 26.904C149.93 26.5627 149.514 26.392 148.98 26.392ZM157.608 33.128C156.83 33.128 156.142 32.9627 155.544 32.632C154.958 32.3013 154.504 31.832 154.184 31.224C153.864 30.616 153.704 29.9067 153.704 29.096C153.704 28.2853 153.87 27.5707 154.2 26.952C154.542 26.3227 155.016 25.8373 155.624 25.496C156.232 25.1547 156.931 24.984 157.72 24.984C158.136 24.984 158.552 25.0427 158.968 25.16C159.395 25.2773 159.768 25.4373 160.088 25.64C160.43 25.864 160.6 26.1467 160.6 26.488C160.6 26.7227 160.542 26.9147 160.424 27.064C160.318 27.2027 160.174 27.272 159.992 27.272C159.875 27.272 159.752 27.2453 159.624 27.192C159.496 27.1387 159.368 27.0747 159.24 27C159.006 26.8613 158.782 26.7547 158.568 26.68C158.355 26.5947 158.11 26.552 157.832 26.552C157.171 26.552 156.659 26.7707 156.296 27.208C155.944 27.6347 155.768 28.2533 155.768 29.064C155.768 29.864 155.944 30.4827 156.296 30.92C156.659 31.3467 157.171 31.56 157.832 31.56C158.099 31.56 158.334 31.5227 158.536 31.448C158.75 31.3627 158.984 31.2507 159.24 31.112C159.4 31.016 159.539 30.9467 159.656 30.904C159.774 30.8507 159.891 30.824 160.008 30.824C160.179 30.824 160.323 30.8987 160.44 31.048C160.558 31.1973 160.616 31.384 160.616 31.608C160.616 31.7893 160.574 31.9493 160.488 32.088C160.414 32.216 160.286 32.3333 160.104 32.44C159.774 32.6533 159.39 32.824 158.952 32.952C158.515 33.0693 158.067 33.128 157.608 33.128ZM166.14 31.608C166.673 31.64 166.94 31.88 166.94 32.328C166.94 32.584 166.833 32.7813 166.62 32.92C166.417 33.048 166.124 33.1013 165.74 33.08L165.308 33.048C163.516 32.92 162.62 31.96 162.62 30.168V26.68H161.82C161.532 26.68 161.308 26.616 161.148 26.488C160.998 26.36 160.924 26.1733 160.924 25.928C160.924 25.6827 160.998 25.496 161.148 25.368C161.308 25.24 161.532 25.176 161.82 25.176H162.62V23.704C162.62 23.416 162.71 23.1867 162.892 23.016C163.073 22.8453 163.318 22.76 163.628 22.76C163.926 22.76 164.166 22.8453 164.348 23.016C164.529 23.1867 164.62 23.416 164.62 23.704V25.176H165.98C166.268 25.176 166.486 25.24 166.636 25.368C166.796 25.496 166.876 25.6827 166.876 25.928C166.876 26.1733 166.796 26.36 166.636 26.488C166.486 26.616 166.268 26.68 165.98 26.68H164.62V30.312C164.62 31.1013 164.982 31.5227 165.708 31.576L166.14 31.608ZM171.454 24.984C172.542 24.984 173.347 25.256 173.87 25.8C174.403 26.3333 174.67 27.1493 174.67 28.248V32.152C174.67 32.44 174.585 32.6693 174.414 32.84C174.243 33 174.009 33.08 173.71 33.08C173.433 33.08 173.203 32.9947 173.022 32.824C172.851 32.6533 172.766 32.4293 172.766 32.152V31.8C172.585 32.216 172.297 32.5413 171.902 32.776C171.518 33.0107 171.07 33.128 170.558 33.128C170.035 33.128 169.561 33.0213 169.134 32.808C168.707 32.5947 168.371 32.3013 168.126 31.928C167.881 31.5547 167.758 31.1387 167.758 30.68C167.758 30.104 167.902 29.6507 168.19 29.32C168.489 28.9893 168.969 28.7493 169.63 28.6C170.291 28.4507 171.203 28.376 172.366 28.376H172.766V28.008C172.766 27.4853 172.654 27.1067 172.43 26.872C172.206 26.6267 171.843 26.504 171.342 26.504C171.033 26.504 170.718 26.552 170.398 26.648C170.078 26.7333 169.699 26.8613 169.262 27.032C168.985 27.1707 168.782 27.24 168.654 27.24C168.462 27.24 168.302 27.1707 168.174 27.032C168.057 26.8933 167.998 26.712 167.998 26.488C167.998 26.3067 168.041 26.152 168.126 26.024C168.222 25.8853 168.377 25.7573 168.59 25.64C168.963 25.4373 169.406 25.2773 169.918 25.16C170.441 25.0427 170.953 24.984 171.454 24.984ZM170.958 31.688C171.491 31.688 171.923 31.512 172.254 31.16C172.595 30.7973 172.766 30.3333 172.766 29.768V29.432H172.478C171.763 29.432 171.209 29.464 170.814 29.528C170.419 29.592 170.137 29.704 169.966 29.864C169.795 30.024 169.71 30.2427 169.71 30.52C169.71 30.8613 169.827 31.144 170.062 31.368C170.307 31.5813 170.606 31.688 170.958 31.688ZM187.398 30.856C187.58 30.856 187.724 30.9253 187.83 31.064C187.948 31.2027 188.006 31.3893 188.006 31.624C188.006 31.9547 187.809 32.232 187.414 32.456C187.052 32.6587 186.641 32.824 186.182 32.952C185.724 33.0693 185.286 33.128 184.87 33.128C183.612 33.128 182.614 32.7653 181.878 32.04C181.142 31.3147 180.774 30.3227 180.774 29.064C180.774 28.264 180.934 27.5547 181.254 26.936C181.574 26.3173 182.022 25.8373 182.598 25.496C183.185 25.1547 183.846 24.984 184.582 24.984C185.286 24.984 185.9 25.1387 186.422 25.448C186.945 25.7573 187.35 26.1947 187.638 26.76C187.926 27.3253 188.07 27.992 188.07 28.76C188.07 29.2187 187.868 29.448 187.462 29.448H182.742C182.806 30.184 183.014 30.728 183.366 31.08C183.718 31.4213 184.23 31.592 184.902 31.592C185.244 31.592 185.542 31.5493 185.798 31.464C186.065 31.3787 186.364 31.2613 186.694 31.112C187.014 30.9413 187.249 30.856 187.398 30.856ZM184.63 26.392C184.086 26.392 183.649 26.5627 183.318 26.904C182.998 27.2453 182.806 27.736 182.742 28.376H186.358C186.337 27.7253 186.177 27.2347 185.878 26.904C185.58 26.5627 185.164 26.392 184.63 26.392ZM192.618 33.128C191.456 33.128 190.517 32.8987 189.802 32.44C189.461 32.2373 189.29 31.9493 189.29 31.576C189.29 31.3627 189.349 31.192 189.466 31.064C189.584 30.9253 189.728 30.856 189.898 30.856C190.08 30.856 190.33 30.9413 190.65 31.112C190.992 31.272 191.301 31.3947 191.578 31.48C191.866 31.5653 192.229 31.608 192.666 31.608C193.114 31.608 193.461 31.5333 193.706 31.384C193.962 31.2347 194.09 31.0267 194.09 30.76C194.09 30.5787 194.037 30.4347 193.93 30.328C193.834 30.2213 193.653 30.1253 193.386 30.04C193.13 29.944 192.736 29.8373 192.202 29.72C191.253 29.528 190.57 29.256 190.154 28.904C189.749 28.552 189.546 28.0667 189.546 27.448C189.546 26.9787 189.685 26.5573 189.962 26.184C190.24 25.8 190.618 25.5067 191.098 25.304C191.589 25.0907 192.144 24.984 192.762 24.984C193.21 24.984 193.642 25.0427 194.058 25.16C194.474 25.2667 194.848 25.4267 195.178 25.64C195.52 25.8533 195.69 26.136 195.69 26.488C195.69 26.7013 195.632 26.8827 195.514 27.032C195.397 27.1707 195.253 27.24 195.082 27.24C194.965 27.24 194.848 27.2187 194.73 27.176C194.624 27.1227 194.485 27.048 194.314 26.952C194.005 26.792 193.738 26.6747 193.514 26.6C193.29 26.5147 193.013 26.472 192.682 26.472C192.288 26.472 191.973 26.552 191.738 26.712C191.514 26.872 191.402 27.0907 191.402 27.368C191.402 27.6347 191.52 27.8373 191.754 27.976C191.989 28.1147 192.442 28.2533 193.114 28.392C193.829 28.5413 194.389 28.712 194.794 28.904C195.2 29.096 195.488 29.336 195.658 29.624C195.84 29.912 195.93 30.28 195.93 30.728C195.93 31.4533 195.626 32.0347 195.018 32.472C194.421 32.9093 193.621 33.128 192.618 33.128ZM198.576 27.4C198.235 27.4 197.952 27.288 197.728 27.064C197.504 26.8293 197.392 26.5413 197.392 26.2C197.392 25.8587 197.504 25.576 197.728 25.352C197.952 25.128 198.235 25.016 198.576 25.016C198.917 25.016 199.2 25.128 199.424 25.352C199.648 25.576 199.76 25.8587 199.76 26.2C199.76 26.5413 199.648 26.8293 199.424 27.064C199.2 27.288 198.917 27.4 198.576 27.4ZM198.576 33.096C198.235 33.096 197.952 32.984 197.728 32.76C197.504 32.5253 197.392 32.2373 197.392 31.896C197.392 31.5547 197.504 31.272 197.728 31.048C197.952 30.8133 198.235 30.696 198.576 30.696C198.917 30.696 199.2 30.8133 199.424 31.048C199.648 31.272 199.76 31.5547 199.76 31.896C199.76 32.2373 199.648 32.5253 199.424 32.76C199.2 32.984 198.917 33.096 198.576 33.096Z" fill="#B81E3B"/>
<path d="M20.784 65.08C20.5813 65.08 20.416 65.0213 20.288 64.904C20.1707 64.776 20.112 64.6107 20.112 64.408V54.84H16.672C16.48 54.84 16.3307 54.792 16.224 54.696C16.1173 54.6 16.064 54.4613 16.064 54.28C16.064 54.0987 16.1173 53.96 16.224 53.864C16.3307 53.768 16.48 53.72 16.672 53.72H24.88C25.072 53.72 25.2213 53.768 25.328 53.864C25.4347 53.96 25.488 54.0987 25.488 54.28C25.488 54.4613 25.4347 54.6 25.328 54.696C25.2213 54.792 25.072 54.84 24.88 54.84H21.44V64.408C21.44 64.6107 21.3813 64.776 21.264 64.904C21.1467 65.0213 20.9867 65.08 20.784 65.08ZM31.6558 63.192C31.7731 63.192 31.8744 63.24 31.9598 63.336C32.0451 63.432 32.0878 63.5547 32.0878 63.704C32.0878 63.9707 31.9011 64.216 31.5278 64.44C31.1438 64.664 30.7384 64.8347 30.3118 64.952C29.8851 65.0587 29.4691 65.112 29.0638 65.112C27.8584 65.112 26.9037 64.7547 26.1998 64.04C25.5064 63.3253 25.1597 62.3387 25.1597 61.08C25.1597 60.28 25.3144 59.576 25.6237 58.968C25.9331 58.3493 26.3651 57.8693 26.9197 57.528C27.4851 57.1867 28.1251 57.016 28.8398 57.016C29.8531 57.016 30.6584 57.3467 31.2558 58.008C31.8531 58.6693 32.1518 59.5653 32.1518 60.696C32.1518 60.9093 32.1091 61.064 32.0238 61.16C31.9384 61.256 31.7998 61.304 31.6078 61.304H26.4557C26.5518 63.1387 27.4211 64.056 29.0638 64.056C29.4798 64.056 29.8371 64.0027 30.1358 63.896C30.4344 63.7787 30.7544 63.624 31.0958 63.432C31.3731 63.272 31.5598 63.192 31.6558 63.192ZM28.8558 58.024C28.1731 58.024 27.6238 58.2373 27.2078 58.664C26.8024 59.0907 26.5624 59.6933 26.4878 60.472H31.0158C30.9944 59.6827 30.7971 59.08 30.4238 58.664C30.0504 58.2373 29.5278 58.024 28.8558 58.024ZM40.385 64.008C40.513 64.136 40.577 64.2907 40.577 64.472C40.577 64.632 40.5183 64.7707 40.401 64.888C40.2837 65.0053 40.145 65.064 39.985 65.064C39.8143 65.064 39.6597 64.9893 39.521 64.84L36.929 61.88L34.353 64.84C34.2143 64.9893 34.0597 65.064 33.889 65.064C33.729 65.064 33.585 65.0053 33.457 64.888C33.3397 64.7707 33.281 64.6267 33.281 64.456C33.281 64.296 33.345 64.1467 33.473 64.008L36.129 61.016L33.585 58.12C33.457 57.9707 33.393 57.8213 33.393 57.672C33.393 57.5013 33.4517 57.3573 33.569 57.24C33.697 57.1227 33.8357 57.064 33.985 57.064C34.1557 57.064 34.3103 57.1387 34.449 57.288L36.929 60.136L39.409 57.288C39.5477 57.1387 39.7023 57.064 39.873 57.064C40.033 57.064 40.1717 57.1227 40.289 57.24C40.4063 57.3573 40.465 57.496 40.465 57.656C40.465 57.8373 40.401 57.992 40.273 58.12L37.729 61.016L40.385 64.008ZM45.9462 64.056C46.3196 64.088 46.5062 64.2587 46.5062 64.568C46.5062 64.7493 46.4369 64.888 46.2983 64.984C46.1702 65.0693 45.9729 65.1013 45.7063 65.08L45.2743 65.048C44.4209 64.984 43.7916 64.728 43.3862 64.28C42.9809 63.832 42.7782 63.1547 42.7782 62.248V58.232H41.7062C41.5249 58.232 41.3809 58.1893 41.2742 58.104C41.1782 58.008 41.1302 57.8853 41.1302 57.736C41.1302 57.576 41.1782 57.448 41.2742 57.352C41.3809 57.256 41.5249 57.208 41.7062 57.208H42.7782V55.4C42.7782 55.1973 42.8369 55.0427 42.9542 54.936C43.0716 54.8187 43.2316 54.76 43.4342 54.76C43.6262 54.76 43.7809 54.8187 43.8982 54.936C44.0156 55.0427 44.0742 55.1973 44.0742 55.4V57.208H45.8502C46.0209 57.208 46.1542 57.256 46.2502 57.352C46.3569 57.448 46.4103 57.576 46.4103 57.736C46.4103 57.8853 46.3569 58.008 46.2502 58.104C46.1542 58.1893 46.0209 58.232 45.8502 58.232H44.0742V62.312C44.0742 62.8987 44.1916 63.3253 44.4262 63.592C44.6716 63.848 45.0342 63.992 45.5142 64.024L45.9462 64.056Z" fill="#B81E3B"/>
<rect x="16" y="90" width="341" height="48" rx="16" fill="#B81E3B"/>
<rect x="16" y="88" width="341" height="48" rx="16" fill="#EF4565"/>
<path d="M151.34 117.14C150.052 117.14 149.053 116.809 148.344 116.146C147.644 115.483 147.271 114.55 147.224 113.346C147.215 113.094 147.21 112.683 147.21 112.114C147.21 111.535 147.215 111.115 147.224 110.854C147.271 109.659 147.649 108.731 148.358 108.068C149.077 107.396 150.071 107.06 151.34 107.06C152.171 107.06 152.894 107.205 153.51 107.494C154.126 107.774 154.602 108.161 154.938 108.656C155.274 109.141 155.451 109.692 155.47 110.308V110.336C155.47 110.411 155.437 110.476 155.372 110.532C155.316 110.579 155.251 110.602 155.176 110.602H153.846C153.734 110.602 153.65 110.579 153.594 110.532C153.538 110.485 153.491 110.397 153.454 110.266C153.305 109.678 153.057 109.267 152.712 109.034C152.367 108.791 151.905 108.67 151.326 108.67C149.982 108.67 149.282 109.421 149.226 110.924C149.217 111.176 149.212 111.563 149.212 112.086C149.212 112.609 149.217 113.005 149.226 113.276C149.282 114.779 149.982 115.53 151.326 115.53C151.905 115.53 152.367 115.409 152.712 115.166C153.067 114.923 153.314 114.513 153.454 113.934C153.482 113.803 153.524 113.715 153.58 113.668C153.645 113.621 153.734 113.598 153.846 113.598H155.176C155.26 113.598 155.33 113.626 155.386 113.682C155.451 113.738 155.479 113.808 155.47 113.892C155.451 114.508 155.274 115.063 154.938 115.558C154.602 116.043 154.126 116.431 153.51 116.72C152.894 117 152.171 117.14 151.34 117.14ZM161.071 117.14C159.802 117.14 158.813 116.818 158.103 116.174C157.394 115.53 157.021 114.573 156.983 113.304C156.974 113.033 156.969 112.637 156.969 112.114C156.969 111.582 156.974 111.181 156.983 110.91C157.021 109.669 157.403 108.717 158.131 108.054C158.859 107.391 159.839 107.06 161.071 107.06C162.303 107.06 163.283 107.391 164.011 108.054C164.749 108.717 165.136 109.669 165.173 110.91C165.192 111.451 165.201 111.853 165.201 112.114C165.201 112.366 165.192 112.763 165.173 113.304C165.127 114.573 164.749 115.53 164.039 116.174C163.33 116.818 162.341 117.14 161.071 117.14ZM161.071 115.53C161.697 115.53 162.196 115.343 162.569 114.97C162.943 114.587 163.143 114.009 163.171 113.234C163.19 112.674 163.199 112.296 163.199 112.1C163.199 111.885 163.19 111.507 163.171 110.966C163.143 110.191 162.943 109.617 162.569 109.244C162.196 108.861 161.697 108.67 161.071 108.67C160.455 108.67 159.961 108.861 159.587 109.244C159.214 109.617 159.013 110.191 158.985 110.966C158.976 111.237 158.971 111.615 158.971 112.1C158.971 112.576 158.976 112.954 158.985 113.234C159.013 114.009 159.209 114.587 159.573 114.97C159.947 115.343 160.446 115.53 161.071 115.53ZM167.551 117C167.457 117 167.378 116.967 167.313 116.902C167.247 116.837 167.215 116.757 167.215 116.664V107.55C167.215 107.447 167.243 107.363 167.299 107.298C167.364 107.233 167.448 107.2 167.551 107.2H168.629C168.741 107.2 168.825 107.223 168.881 107.27C168.937 107.307 168.988 107.359 169.035 107.424L173.067 113.696V107.55C173.067 107.447 173.095 107.363 173.151 107.298C173.216 107.233 173.3 107.2 173.403 107.2H174.579C174.681 107.2 174.765 107.233 174.831 107.298C174.896 107.363 174.929 107.447 174.929 107.55V116.65C174.929 116.753 174.896 116.837 174.831 116.902C174.765 116.967 174.686 117 174.593 117H173.501C173.342 117 173.207 116.925 173.095 116.776L169.077 110.644V116.664C169.077 116.767 169.044 116.851 168.979 116.916C168.913 116.972 168.829 117 168.727 117H167.551ZM179.78 117C179.687 117 179.607 116.967 179.542 116.902C179.477 116.837 179.444 116.757 179.444 116.664V108.922H176.854C176.761 108.922 176.681 108.889 176.616 108.824C176.551 108.759 176.518 108.679 176.518 108.586V107.55C176.518 107.447 176.546 107.363 176.602 107.298C176.667 107.233 176.751 107.2 176.854 107.2H183.994C184.097 107.2 184.181 107.233 184.246 107.298C184.311 107.363 184.344 107.447 184.344 107.55V108.586C184.344 108.679 184.311 108.759 184.246 108.824C184.181 108.889 184.097 108.922 183.994 108.922H181.418V116.664C181.418 116.757 181.385 116.837 181.32 116.902C181.255 116.967 181.171 117 181.068 117H179.78ZM186.276 117C186.182 117 186.103 116.967 186.038 116.902C185.972 116.837 185.94 116.757 185.94 116.664V107.536C185.94 107.433 185.972 107.354 186.038 107.298C186.103 107.233 186.182 107.2 186.276 107.2H187.592C187.694 107.2 187.774 107.233 187.83 107.298C187.895 107.354 187.928 107.433 187.928 107.536V116.664C187.928 116.757 187.895 116.837 187.83 116.902C187.774 116.967 187.694 117 187.592 117H186.276ZM190.634 117C190.541 117 190.462 116.967 190.396 116.902C190.331 116.837 190.298 116.757 190.298 116.664V107.55C190.298 107.447 190.326 107.363 190.382 107.298C190.448 107.233 190.532 107.2 190.634 107.2H191.712C191.824 107.2 191.908 107.223 191.964 107.27C192.02 107.307 192.072 107.359 192.118 107.424L196.15 113.696V107.55C196.15 107.447 196.178 107.363 196.234 107.298C196.3 107.233 196.384 107.2 196.486 107.2H197.662C197.765 107.2 197.849 107.233 197.914 107.298C197.98 107.363 198.012 107.447 198.012 107.55V116.65C198.012 116.753 197.98 116.837 197.914 116.902C197.849 116.967 197.77 117 197.676 117H196.584C196.426 117 196.29 116.925 196.178 116.776L192.16 110.644V116.664C192.16 116.767 192.128 116.851 192.062 116.916C191.997 116.972 191.913 117 191.81 117H190.634ZM204.278 117.14C203.018 117.14 202.038 116.818 201.338 116.174C200.638 115.53 200.288 114.555 200.288 113.248V107.55C200.288 107.447 200.316 107.363 200.372 107.298C200.437 107.233 200.521 107.2 200.624 107.2H201.898C202 107.2 202.08 107.233 202.136 107.298C202.201 107.363 202.234 107.447 202.234 107.55V113.248C202.234 113.995 202.411 114.559 202.766 114.942C203.12 115.315 203.624 115.502 204.278 115.502C204.931 115.502 205.43 115.315 205.776 114.942C206.13 114.559 206.308 113.995 206.308 113.248V107.55C206.308 107.447 206.34 107.363 206.406 107.298C206.471 107.233 206.555 107.2 206.658 107.2H207.918C208.02 107.2 208.1 107.233 208.156 107.298C208.221 107.363 208.254 107.447 208.254 107.55V113.248C208.254 114.555 207.904 115.53 207.204 116.174C206.513 116.818 205.538 117.14 204.278 117.14ZM209.72 117C209.645 117 209.575 116.972 209.51 116.916C209.454 116.86 209.426 116.79 209.426 116.706L209.454 116.58L212.828 107.55C212.893 107.317 213.057 107.2 213.318 107.2H214.844C215.087 107.2 215.25 107.317 215.334 107.55L218.708 116.58C218.717 116.608 218.722 116.65 218.722 116.706C218.722 116.79 218.694 116.86 218.638 116.916C218.582 116.972 218.517 117 218.442 117H217.224C217.103 117 217.009 116.972 216.944 116.916C216.879 116.86 216.837 116.799 216.818 116.734L216.16 115.026H212.002L211.344 116.734C211.269 116.911 211.134 117 210.938 117H209.72ZM215.67 113.416L214.074 109.09L212.492 113.416H215.67ZM220.54 117C220.447 117 220.367 116.967 220.302 116.902C220.237 116.837 220.204 116.757 220.204 116.664V107.55C220.204 107.447 220.232 107.363 220.288 107.298C220.353 107.233 220.437 107.2 220.54 107.2H224.166C225.305 107.2 226.196 107.466 226.84 107.998C227.493 108.53 227.82 109.286 227.82 110.266C227.82 110.947 227.652 111.521 227.316 111.988C226.989 112.445 226.532 112.777 225.944 112.982L227.988 116.552C228.016 116.608 228.03 116.659 228.03 116.706C228.03 116.79 227.997 116.86 227.932 116.916C227.876 116.972 227.811 117 227.736 117H226.462C226.313 117 226.196 116.967 226.112 116.902C226.037 116.837 225.967 116.743 225.902 116.622L224.096 113.304H222.15V116.664C222.15 116.757 222.117 116.837 222.052 116.902C221.996 116.967 221.917 117 221.814 117H220.54ZM224.124 111.722C224.684 111.722 225.104 111.596 225.384 111.344C225.673 111.092 225.818 110.728 225.818 110.252C225.818 109.776 225.673 109.407 225.384 109.146C225.104 108.885 224.684 108.754 224.124 108.754H222.15V111.722H224.124Z" fill="#FFFFFE"/>
</svg>
