<svg width="204" height="19" viewBox="0 0 204 19" fill="none" xmlns="http://www.w3.org/2000/svg">
<path d="M12.794 1.38C13.2193 1.38 13.5567 1.512 13.806 1.776C14.0553 2.02533 14.18 2.36267 14.18 2.788V15.702C14.18 16.1273 14.048 16.472 13.784 16.736C13.5347 17 13.2047 17.132 12.794 17.132C12.3687 17.132 12.0313 17 11.782 16.736C11.5327 16.472 11.408 16.1273 11.408 15.702V10.268H3.466V15.702C3.466 16.1273 3.334 16.472 3.07 16.736C2.82067 17 2.48333 17.132 2.058 17.132C1.64733 17.132 1.31 17 1.046 16.736C0.796667 16.472 0.672 16.1273 0.672 15.702V2.788C0.672 2.36267 0.796667 2.02533 1.046 1.776C1.29533 1.512 1.63267 1.38 2.058 1.38C2.48333 1.38 2.82067 1.512 3.07 1.776C3.334 2.02533 3.466 2.36267 3.466 2.788V7.98H11.408V2.788C11.408 2.36267 11.5327 2.02533 11.782 1.776C12.0313 1.512 12.3687 1.38 12.794 1.38ZM25.7878 14.052C26.0371 14.052 26.2351 14.1473 26.3818 14.338C26.5431 14.5287 26.6238 14.7853 26.6238 15.108C26.6238 15.5627 26.3524 15.944 25.8098 16.252C25.3111 16.5307 24.7464 16.758 24.1158 16.934C23.4851 17.0953 22.8838 17.176 22.3117 17.176C20.5811 17.176 19.2098 16.6773 18.1978 15.68C17.1858 14.6827 16.6798 13.3187 16.6798 11.588C16.6798 10.488 16.8998 9.51267 17.3398 8.662C17.7798 7.81133 18.3958 7.15133 19.1878 6.682C19.9944 6.21267 20.9038 5.978 21.9158 5.978C22.8838 5.978 23.7271 6.19067 24.4458 6.616C25.1644 7.04133 25.7218 7.64267 26.1178 8.42C26.5138 9.19733 26.7118 10.114 26.7118 11.17C26.7118 11.8007 26.4331 12.116 25.8758 12.116H19.3858C19.4738 13.128 19.7598 13.876 20.2438 14.36C20.7278 14.8293 21.4318 15.064 22.3558 15.064C22.8251 15.064 23.2358 15.0053 23.5878 14.888C23.9544 14.7707 24.3651 14.6093 24.8198 14.404C25.2598 14.1693 25.5824 14.052 25.7878 14.052ZM21.9818 7.914C21.2338 7.914 20.6324 8.14867 20.1778 8.618C19.7378 9.08733 19.4738 9.762 19.3858 10.642H24.3578C24.3284 9.74733 24.1084 9.07267 23.6978 8.618C23.2871 8.14867 22.7151 7.914 21.9818 7.914ZM33.6253 5.978C35.1213 5.978 36.2286 6.352 36.9473 7.1C37.6806 7.83333 38.0473 8.95533 38.0473 10.466V15.834C38.0473 16.23 37.9299 16.5453 37.6953 16.78C37.4606 17 37.1379 17.11 36.7273 17.11C36.3459 17.11 36.0306 16.9927 35.7813 16.758C35.5466 16.5233 35.4293 16.2153 35.4293 15.834V15.35C35.1799 15.922 34.7839 16.3693 34.2413 16.692C33.7133 17.0147 33.0973 17.176 32.3933 17.176C31.6746 17.176 31.0219 17.0293 30.4352 16.736C29.8486 16.4427 29.3866 16.0393 29.0493 15.526C28.7119 15.0127 28.5433 14.4407 28.5433 13.81C28.5433 13.018 28.7413 12.3947 29.1373 11.94C29.5479 11.4853 30.2079 11.1553 31.1173 10.95C32.0266 10.7447 33.2806 10.642 34.8793 10.642H35.4293V10.136C35.4293 9.41733 35.2753 8.89667 34.9673 8.574C34.6593 8.23667 34.1606 8.068 33.4713 8.068C33.0459 8.068 32.6133 8.134 32.1733 8.266C31.7333 8.38333 31.2126 8.55933 30.6113 8.794C30.2299 8.98467 29.9513 9.08 29.7753 9.08C29.5113 9.08 29.2913 8.98467 29.1153 8.794C28.9539 8.60333 28.8733 8.354 28.8733 8.046C28.8733 7.79667 28.9319 7.584 29.0493 7.408C29.1813 7.21733 29.3939 7.04133 29.6873 6.88C30.2006 6.60133 30.8093 6.38133 31.5133 6.22C32.2319 6.05867 32.9359 5.978 33.6253 5.978ZM32.9433 15.196C33.6766 15.196 34.2706 14.954 34.7253 14.47C35.1946 13.9713 35.4293 13.3333 35.4293 12.556V12.094H35.0333C34.0506 12.094 33.2879 12.138 32.7453 12.226C32.2026 12.314 31.8139 12.468 31.5793 12.688C31.3446 12.908 31.2273 13.2087 31.2273 13.59C31.2273 14.0593 31.3886 14.448 31.7113 14.756C32.0486 15.0493 32.4593 15.196 32.9433 15.196ZM49.8181 1.38C50.2288 1.38 50.5661 1.49733 50.8301 1.732C51.0941 1.96667 51.2261 2.27467 51.2261 2.656V15.812C51.2261 16.208 51.1014 16.5233 50.8521 16.758C50.6028 16.9927 50.2728 17.11 49.8621 17.11C49.4514 17.11 49.1214 16.9927 48.8721 16.758C48.6228 16.5233 48.4981 16.208 48.4981 15.812V15.262C48.1754 15.8633 47.7061 16.3327 47.0901 16.67C46.4888 17.0073 45.7994 17.176 45.0221 17.176C44.0981 17.176 43.2694 16.9413 42.5361 16.472C41.8174 16.0027 41.2528 15.3427 40.8421 14.492C40.4461 13.6267 40.2481 12.6367 40.2481 11.522C40.2481 10.4073 40.4461 9.432 40.8421 8.596C41.2528 7.76 41.8174 7.11467 42.5361 6.66C43.2548 6.20533 44.0834 5.978 45.0221 5.978C45.7994 5.978 46.4888 6.13933 47.0901 6.462C47.6914 6.78467 48.1534 7.23933 48.4761 7.826V2.612C48.4761 2.24533 48.5934 1.952 48.8281 1.732C49.0774 1.49733 49.4074 1.38 49.8181 1.38ZM45.7481 15.042C46.6281 15.042 47.3028 14.7413 47.7721 14.14C48.2561 13.5387 48.4981 12.6807 48.4981 11.566C48.4981 10.4513 48.2561 9.60067 47.7721 9.014C47.3028 8.41267 46.6354 8.112 45.7701 8.112C44.8901 8.112 44.2081 8.40533 43.7241 8.992C43.2401 9.57867 42.9981 10.422 42.9981 11.522C42.9981 12.6367 43.2401 13.502 43.7241 14.118C44.2081 14.734 44.8828 15.042 45.7481 15.042ZM55.419 17.132C55.023 17.132 54.693 17.022 54.429 16.802C54.1797 16.5673 54.055 16.2373 54.055 15.812V2.678C54.055 2.25267 54.1797 1.93 54.429 1.71C54.693 1.49 55.023 1.38 55.419 1.38C55.815 1.38 56.145 1.49 56.409 1.71C56.673 1.93 56.805 2.25267 56.805 2.678V15.812C56.805 16.2373 56.673 16.5673 56.409 16.802C56.145 17.022 55.815 17.132 55.419 17.132ZM61.0049 17.132C60.6089 17.132 60.2789 17.022 60.0149 16.802C59.7656 16.5673 59.6409 16.2373 59.6409 15.812V7.32C59.6409 6.89467 59.7656 6.572 60.0149 6.352C60.2789 6.132 60.6089 6.022 61.0049 6.022C61.4009 6.022 61.7309 6.132 61.9949 6.352C62.2589 6.572 62.3909 6.89467 62.3909 7.32V15.812C62.3909 16.2373 62.2589 16.5673 61.9949 16.802C61.7309 17.022 61.4009 17.132 61.0049 17.132ZM61.0049 4.064C60.5063 4.064 60.1103 3.932 59.8169 3.668C59.5236 3.38933 59.3769 3.03 59.3769 2.59C59.3769 2.15 59.5236 1.798 59.8169 1.534C60.1103 1.27 60.5063 1.138 61.0049 1.138C61.4889 1.138 61.8776 1.27 62.1709 1.534C62.4789 1.798 62.6329 2.15 62.6329 2.59C62.6329 3.03 62.4863 3.38933 62.1929 3.668C61.8996 3.932 61.5036 4.064 61.0049 4.064ZM71.4749 5.978C72.7655 5.978 73.7262 6.34467 74.3569 7.078C74.9875 7.81133 75.3029 8.91867 75.3029 10.4V15.812C75.3029 16.2227 75.1782 16.5453 74.9289 16.78C74.6942 17.0147 74.3642 17.132 73.9389 17.132C73.5135 17.132 73.1762 17.0147 72.9269 16.78C72.6775 16.5453 72.5529 16.2227 72.5529 15.812V10.554C72.5529 9.718 72.3915 9.10933 72.0689 8.728C71.7609 8.34667 71.2695 8.156 70.5949 8.156C69.8029 8.156 69.1649 8.40533 68.6809 8.904C68.2115 9.40267 67.9769 10.07 67.9769 10.906V15.812C67.9769 16.2227 67.8522 16.5453 67.6029 16.78C67.3535 17.0147 67.0162 17.132 66.5909 17.132C66.1655 17.132 65.8282 17.0147 65.5789 16.78C65.3442 16.5453 65.2269 16.2227 65.2269 15.812V7.298C65.2269 6.91667 65.3515 6.60867 65.6009 6.374C65.8502 6.13933 66.1875 6.022 66.6129 6.022C66.9942 6.022 67.3022 6.13933 67.5369 6.374C67.7862 6.594 67.9109 6.88733 67.9109 7.254V7.848C68.2775 7.24667 68.7689 6.78467 69.3849 6.462C70.0009 6.13933 70.6975 5.978 71.4749 5.978ZM86.61 14.052C86.8593 14.052 87.0573 14.1473 87.204 14.338C87.3653 14.5287 87.446 14.7853 87.446 15.108C87.446 15.5627 87.1747 15.944 86.632 16.252C86.1333 16.5307 85.5687 16.758 84.938 16.934C84.3073 17.0953 83.706 17.176 83.134 17.176C81.4033 17.176 80.032 16.6773 79.02 15.68C78.008 14.6827 77.502 13.3187 77.502 11.588C77.502 10.488 77.722 9.51267 78.162 8.662C78.602 7.81133 79.218 7.15133 80.01 6.682C80.8167 6.21267 81.726 5.978 82.738 5.978C83.706 5.978 84.5493 6.19067 85.268 6.616C85.9867 7.04133 86.544 7.64267 86.94 8.42C87.336 9.19733 87.534 10.114 87.534 11.17C87.534 11.8007 87.2553 12.116 86.698 12.116H80.208C80.296 13.128 80.582 13.876 81.066 14.36C81.55 14.8293 82.254 15.064 83.178 15.064C83.6473 15.064 84.058 15.0053 84.41 14.888C84.7767 14.7707 85.1873 14.6093 85.642 14.404C86.082 14.1693 86.4047 14.052 86.61 14.052ZM82.804 7.914C82.056 7.914 81.4547 8.14867 81 8.618C80.56 9.08733 80.296 9.762 80.208 10.642H85.18C85.1507 9.74733 84.9307 9.07267 84.52 8.618C84.1093 8.14867 83.5373 7.914 82.804 7.914ZM90.5903 17.748C90.5023 18.0267 90.363 18.232 90.1723 18.364C89.9816 18.496 89.769 18.562 89.5343 18.562C89.241 18.562 88.977 18.4593 88.7423 18.254C88.5223 18.0633 88.4123 17.814 88.4123 17.506C88.4123 17.374 88.4343 17.242 88.4783 17.11L93.5823 1.116C93.6703 0.837332 93.8096 0.631999 94.0003 0.499999C94.191 0.367999 94.4036 0.301999 94.6383 0.301999C94.9316 0.301999 95.1883 0.404665 95.4083 0.609999C95.643 0.800665 95.7603 1.05 95.7603 1.358C95.7603 1.49 95.7383 1.622 95.6943 1.754L90.5903 17.748ZM109.345 1.38C109.77 1.38 110.107 1.512 110.357 1.776C110.606 2.02533 110.731 2.36267 110.731 2.788V15.702C110.731 16.1273 110.599 16.472 110.335 16.736C110.085 17 109.755 17.132 109.345 17.132C108.919 17.132 108.582 17 108.333 16.736C108.083 16.472 107.959 16.1273 107.959 15.702V10.268H100.017V15.702C100.017 16.1273 99.8848 16.472 99.6208 16.736C99.3714 17 99.0341 17.132 98.6088 17.132C98.1981 17.132 97.8608 17 97.5968 16.736C97.3474 16.472 97.2228 16.1273 97.2228 15.702V2.788C97.2228 2.36267 97.3474 2.02533 97.5968 1.776C97.8461 1.512 98.1834 1.38 98.6088 1.38C99.0341 1.38 99.3714 1.512 99.6208 1.776C99.8848 2.02533 100.017 2.36267 100.017 2.788V7.98H107.959V2.788C107.959 2.36267 108.083 2.02533 108.333 1.776C108.582 1.512 108.919 1.38 109.345 1.38ZM122.339 14.052C122.588 14.052 122.786 14.1473 122.933 14.338C123.094 14.5287 123.175 14.7853 123.175 15.108C123.175 15.5627 122.903 15.944 122.361 16.252C121.862 16.5307 121.297 16.758 120.667 16.934C120.036 17.0953 119.435 17.176 118.863 17.176C117.132 17.176 115.761 16.6773 114.749 15.68C113.737 14.6827 113.231 13.3187 113.231 11.588C113.231 10.488 113.451 9.51267 113.891 8.662C114.331 7.81133 114.947 7.15133 115.739 6.682C116.545 6.21267 117.455 5.978 118.467 5.978C119.435 5.978 120.278 6.19067 120.997 6.616C121.715 7.04133 122.273 7.64267 122.669 8.42C123.065 9.19733 123.263 10.114 123.263 11.17C123.263 11.8007 122.984 12.116 122.427 12.116H115.937C116.025 13.128 116.311 13.876 116.795 14.36C117.279 14.8293 117.983 15.064 118.907 15.064C119.376 15.064 119.787 15.0053 120.139 14.888C120.505 14.7707 120.916 14.6093 121.371 14.404C121.811 14.1693 122.133 14.052 122.339 14.052ZM118.533 7.914C117.785 7.914 117.183 8.14867 116.729 8.618C116.289 9.08733 116.025 9.762 115.937 10.642H120.909C120.879 9.74733 120.659 9.07267 120.249 8.618C119.838 8.14867 119.266 7.914 118.533 7.914ZM130.176 5.978C131.672 5.978 132.779 6.352 133.498 7.1C134.231 7.83333 134.598 8.95533 134.598 10.466V15.834C134.598 16.23 134.481 16.5453 134.246 16.78C134.011 17 133.689 17.11 133.278 17.11C132.897 17.11 132.581 16.9927 132.332 16.758C132.097 16.5233 131.98 16.2153 131.98 15.834V15.35C131.731 15.922 131.335 16.3693 130.792 16.692C130.264 17.0147 129.648 17.176 128.944 17.176C128.225 17.176 127.573 17.0293 126.986 16.736C126.399 16.4427 125.937 16.0393 125.6 15.526C125.263 15.0127 125.094 14.4407 125.094 13.81C125.094 13.018 125.292 12.3947 125.688 11.94C126.099 11.4853 126.759 11.1553 127.668 10.95C128.577 10.7447 129.831 10.642 131.43 10.642H131.98V10.136C131.98 9.41733 131.826 8.89667 131.518 8.574C131.21 8.23667 130.711 8.068 130.022 8.068C129.597 8.068 129.164 8.134 128.724 8.266C128.284 8.38333 127.763 8.55933 127.162 8.794C126.781 8.98467 126.502 9.08 126.326 9.08C126.062 9.08 125.842 8.98467 125.666 8.794C125.505 8.60333 125.424 8.354 125.424 8.046C125.424 7.79667 125.483 7.584 125.6 7.408C125.732 7.21733 125.945 7.04133 126.238 6.88C126.751 6.60133 127.36 6.38133 128.064 6.22C128.783 6.05867 129.487 5.978 130.176 5.978ZM129.494 15.196C130.227 15.196 130.821 14.954 131.276 14.47C131.745 13.9713 131.98 13.3333 131.98 12.556V12.094H131.584C130.601 12.094 129.839 12.138 129.296 12.226C128.753 12.314 128.365 12.468 128.13 12.688C127.895 12.908 127.778 13.2087 127.778 13.59C127.778 14.0593 127.939 14.448 128.262 14.756C128.599 15.0493 129.01 15.196 129.494 15.196ZM146.369 1.38C146.78 1.38 147.117 1.49733 147.381 1.732C147.645 1.96667 147.777 2.27467 147.777 2.656V15.812C147.777 16.208 147.652 16.5233 147.403 16.758C147.154 16.9927 146.824 17.11 146.413 17.11C146.002 17.11 145.672 16.9927 145.423 16.758C145.174 16.5233 145.049 16.208 145.049 15.812V15.262C144.726 15.8633 144.257 16.3327 143.641 16.67C143.04 17.0073 142.35 17.176 141.573 17.176C140.649 17.176 139.82 16.9413 139.087 16.472C138.368 16.0027 137.804 15.3427 137.393 14.492C136.997 13.6267 136.799 12.6367 136.799 11.522C136.799 10.4073 136.997 9.432 137.393 8.596C137.804 7.76 138.368 7.11467 139.087 6.66C139.806 6.20533 140.634 5.978 141.573 5.978C142.35 5.978 143.04 6.13933 143.641 6.462C144.242 6.78467 144.704 7.23933 145.027 7.826V2.612C145.027 2.24533 145.144 1.952 145.379 1.732C145.628 1.49733 145.958 1.38 146.369 1.38ZM142.299 15.042C143.179 15.042 143.854 14.7413 144.323 14.14C144.807 13.5387 145.049 12.6807 145.049 11.566C145.049 10.4513 144.807 9.60067 144.323 9.014C143.854 8.41267 143.186 8.112 142.321 8.112C141.441 8.112 140.759 8.40533 140.275 8.992C139.791 9.57867 139.549 10.422 139.549 11.522C139.549 12.6367 139.791 13.502 140.275 14.118C140.759 14.734 141.434 15.042 142.299 15.042ZM151.97 17.132C151.574 17.132 151.244 17.022 150.98 16.802C150.73 16.5673 150.606 16.2373 150.606 15.812V2.678C150.606 2.25267 150.73 1.93 150.98 1.71C151.244 1.49 151.574 1.38 151.97 1.38C152.366 1.38 152.696 1.49 152.96 1.71C153.224 1.93 153.356 2.25267 153.356 2.678V15.812C153.356 16.2373 153.224 16.5673 152.96 16.802C152.696 17.022 152.366 17.132 151.97 17.132ZM157.556 17.132C157.16 17.132 156.83 17.022 156.566 16.802C156.316 16.5673 156.192 16.2373 156.192 15.812V7.32C156.192 6.89467 156.316 6.572 156.566 6.352C156.83 6.132 157.16 6.022 157.556 6.022C157.952 6.022 158.282 6.132 158.546 6.352C158.81 6.572 158.942 6.89467 158.942 7.32V15.812C158.942 16.2373 158.81 16.5673 158.546 16.802C158.282 17.022 157.952 17.132 157.556 17.132ZM157.556 4.064C157.057 4.064 156.661 3.932 156.368 3.668C156.074 3.38933 155.928 3.03 155.928 2.59C155.928 2.15 156.074 1.798 156.368 1.534C156.661 1.27 157.057 1.138 157.556 1.138C158.04 1.138 158.428 1.27 158.722 1.534C159.03 1.798 159.184 2.15 159.184 2.59C159.184 3.03 159.037 3.38933 158.744 3.668C158.45 3.932 158.054 4.064 157.556 4.064ZM168.026 5.978C169.316 5.978 170.277 6.34467 170.908 7.078C171.538 7.81133 171.854 8.91867 171.854 10.4V15.812C171.854 16.2227 171.729 16.5453 171.48 16.78C171.245 17.0147 170.915 17.132 170.49 17.132C170.064 17.132 169.727 17.0147 169.478 16.78C169.228 16.5453 169.104 16.2227 169.104 15.812V10.554C169.104 9.718 168.942 9.10933 168.62 8.728C168.312 8.34667 167.82 8.156 167.146 8.156C166.354 8.156 165.716 8.40533 165.232 8.904C164.762 9.40267 164.528 10.07 164.528 10.906V15.812C164.528 16.2227 164.403 16.5453 164.154 16.78C163.904 17.0147 163.567 17.132 163.142 17.132C162.716 17.132 162.379 17.0147 162.13 16.78C161.895 16.5453 161.778 16.2227 161.778 15.812V7.298C161.778 6.91667 161.902 6.60867 162.152 6.374C162.401 6.13933 162.738 6.022 163.164 6.022C163.545 6.022 163.853 6.13933 164.088 6.374C164.337 6.594 164.462 6.88733 164.462 7.254V7.848C164.828 7.24667 165.32 6.78467 165.936 6.462C166.552 6.13933 167.248 5.978 168.026 5.978ZM183.161 14.052C183.41 14.052 183.608 14.1473 183.755 14.338C183.916 14.5287 183.997 14.7853 183.997 15.108C183.997 15.5627 183.725 15.944 183.183 16.252C182.684 16.5307 182.119 16.758 181.489 16.934C180.858 17.0953 180.257 17.176 179.685 17.176C177.954 17.176 176.583 16.6773 175.571 15.68C174.559 14.6827 174.053 13.3187 174.053 11.588C174.053 10.488 174.273 9.51267 174.713 8.662C175.153 7.81133 175.769 7.15133 176.561 6.682C177.367 6.21267 178.277 5.978 179.289 5.978C180.257 5.978 181.1 6.19067 181.819 6.616C182.537 7.04133 183.095 7.64267 183.491 8.42C183.887 9.19733 184.085 10.114 184.085 11.17C184.085 11.8007 183.806 12.116 183.249 12.116H176.759C176.847 13.128 177.133 13.876 177.617 14.36C178.101 14.8293 178.805 15.064 179.729 15.064C180.198 15.064 180.609 15.0053 180.961 14.888C181.327 14.7707 181.738 14.6093 182.193 14.404C182.633 14.1693 182.955 14.052 183.161 14.052ZM179.355 7.914C178.607 7.914 178.005 8.14867 177.551 8.618C177.111 9.08733 176.847 9.762 176.759 10.642H181.731C181.701 9.74733 181.481 9.07267 181.071 8.618C180.66 8.14867 180.088 7.914 179.355 7.914ZM201.833 14.712C202.713 14.712 203.153 15.086 203.153 15.834C203.153 16.6113 202.713 17 201.833 17H193.473C193.092 17 192.791 16.89 192.571 16.67C192.351 16.4353 192.241 16.1493 192.241 15.812C192.241 15.372 192.41 14.976 192.747 14.624L197.763 9.234C198.379 8.55933 198.826 7.94333 199.105 7.386C199.398 6.814 199.545 6.24933 199.545 5.692C199.545 5.00267 199.347 4.47467 198.951 4.108C198.555 3.74133 197.99 3.558 197.257 3.558C196.656 3.558 196.069 3.67533 195.497 3.91C194.94 4.13 194.375 4.438 193.803 4.834C193.656 4.93667 193.51 5.02467 193.363 5.098C193.216 5.15667 193.07 5.186 192.923 5.186C192.674 5.186 192.454 5.06867 192.263 4.834C192.087 4.59933 191.999 4.32067 191.999 3.998C191.999 3.778 192.036 3.58733 192.109 3.426C192.197 3.26467 192.329 3.11067 192.505 2.964C193.15 2.45067 193.906 2.04733 194.771 1.754C195.636 1.446 196.502 1.292 197.367 1.292C198.878 1.292 200.08 1.67333 200.975 2.436C201.884 3.19867 202.339 4.22533 202.339 5.516C202.339 6.41067 202.148 7.254 201.767 8.046C201.386 8.82333 200.74 9.696 199.831 10.664L196.025 14.712H201.833Z" fill="black"/>
</svg>
