<svg width="178" height="145" viewBox="0 0 178 145" fill="none" xmlns="http://www.w3.org/2000/svg">
<path d="M25.8312 3.56679C25.8312 4.45295 25.0717 6.22526 23.8057 9.13691C22.4132 12.0486 21.2739 14.3272 20.6409 15.9729C17.8559 22.5558 15.8304 28.5057 14.691 33.9492C13.5517 39.3927 12.9187 45.0894 12.9187 50.9127C12.9187 56.2296 13.4251 61.5466 14.4378 66.6103C15.324 71.5474 16.8431 76.6112 18.8686 81.6749C19.8814 84.3334 21.4005 87.6248 23.1728 91.296C24.9451 94.9672 25.8312 97.2459 25.8312 98.1321C25.8312 99.0182 25.5781 99.7778 25.1983 100.284C24.8185 100.791 24.3121 101.044 23.6792 101.044C22.4132 101.044 21.0207 100.411 19.375 99.0182C17.8559 97.6257 15.957 95.4736 13.9315 92.562C9.50069 86.2323 6.20926 79.6494 4.05717 72.6868C1.90509 65.7242 0.765747 58.5083 0.765747 50.9127C0.765747 43.9501 1.6519 37.2406 3.42421 30.911C5.32311 24.5813 7.98157 18.5048 11.6528 12.5549C14.0581 8.63053 16.2101 5.71888 18.2356 3.69339C20.2611 1.79449 22.0334 0.781738 23.6792 0.781738C24.3121 0.781738 24.8185 1.03493 25.1983 1.5413C25.5781 2.04768 25.8312 2.68064 25.8312 3.56679Z" fill="#17A2BE"/>
<path d="M152.719 98.1321C152.719 97.2459 153.478 95.4736 154.871 92.6885C156.263 89.7769 157.276 87.6248 158.036 85.8525C160.821 79.2696 162.846 73.1932 163.985 67.7496C165.251 62.3061 165.758 56.736 165.758 50.9127C165.758 45.5958 165.251 40.4055 164.239 35.3417C163.226 30.278 161.707 25.2143 159.681 20.0239C158.542 17.3655 157.149 14.074 155.377 10.4028C153.605 6.73163 152.719 4.45295 152.719 3.56679C152.719 2.68064 152.972 2.04768 153.352 1.5413C153.731 1.03493 154.364 0.781738 154.997 0.781738C156.39 0.781738 157.782 1.41471 159.302 2.80724C160.821 4.07317 162.72 6.22526 164.745 9.13691C169.176 15.4666 172.467 22.0494 174.619 29.0121C176.771 35.9747 177.911 43.3171 177.911 50.9127C177.911 57.8754 177.025 64.4582 175.126 70.9145C173.353 77.2441 170.568 83.3206 166.897 89.2705C164.365 93.3215 162.087 96.2332 160.188 98.1321C158.289 100.031 156.516 101.044 154.997 101.044C154.364 101.044 153.731 100.791 153.352 100.158C152.972 99.6512 152.719 99.0182 152.719 98.1321Z" fill="#17A2BE"/>
<path d="M52.5255 68.3643C57.3808 68.3643 61.3167 64.4283 61.3167 59.5731C61.3167 54.7178 57.3808 50.7819 52.5255 50.7819C47.6702 50.7819 43.7343 54.7178 43.7343 59.5731C43.7343 64.4283 47.6702 68.3643 52.5255 68.3643Z" fill="#17A2BE"/>
<path d="M126.349 68.3643C121.494 68.3643 117.558 64.4283 117.558 59.5731C117.558 54.7178 121.494 50.7819 126.349 50.7819C131.205 50.7819 135.141 54.7178 135.141 59.5731C135.141 64.4283 131.205 68.3643 126.349 68.3643Z" fill="#17A2BE"/>
<path d="M2.62751 136.048V125.118H2.38729C1.84678 125.118 1.45642 124.968 1.18617 124.697C0.915917 124.427 0.765778 124.037 0.765778 123.496C0.765778 122.926 0.915917 122.505 1.2162 122.265C1.51648 121.995 1.96689 121.875 2.62751 121.875H6.26089C8.30279 121.875 9.80418 121.965 10.7351 122.145C11.6959 122.325 12.5067 122.595 13.1673 123.016C14.3384 123.706 15.2392 124.727 15.8698 126.019C16.5004 127.34 16.8307 128.841 16.8307 130.553C16.8307 132.355 16.4704 133.946 15.7497 135.297C15.029 136.648 14.0081 137.669 12.6869 138.36C12.0863 138.69 11.3957 138.901 10.5849 139.051C9.80418 139.201 8.60307 139.261 7.01159 139.261H2.62751C1.96689 139.261 1.48645 139.141 1.18617 138.901C0.915917 138.63 0.765778 138.21 0.765778 137.639C0.765778 137.129 0.915917 136.709 1.18617 136.438C1.45642 136.198 1.84678 136.048 2.38729 136.048H2.62751ZM6.41103 125.058V136.048H7.25181C9.11354 136.048 10.4648 135.598 11.3356 134.697C12.2364 133.796 12.6568 132.385 12.6568 130.523C12.6568 128.661 12.2064 127.31 11.3356 126.379C10.4348 125.478 9.08351 125.028 7.28184 125.028C7.04161 125.028 6.86145 125.028 6.74134 125.028C6.62122 125.028 6.50111 125.058 6.41103 125.058Z" fill="#17A2BE"/>
<path d="M32.9681 135.72H33.2083C33.7188 135.72 34.1392 135.87 34.4094 136.141C34.6797 136.411 34.8298 136.831 34.8298 137.342C34.8298 137.912 34.6797 138.303 34.4094 138.573C34.1091 138.813 33.6287 138.933 32.9681 138.933H31.5868C31.1063 138.933 30.746 138.843 30.5058 138.663C30.2656 138.483 30.0554 138.122 29.9052 137.642C29.0945 138.182 28.2237 138.603 27.3228 138.873C26.422 139.143 25.4911 139.294 24.5603 139.294C22.9988 139.294 21.7677 138.903 20.8668 138.122C19.966 137.342 19.5156 136.261 19.5156 134.909C19.5156 133.438 20.0861 132.297 21.2572 131.486C22.4283 130.676 24.0498 130.285 26.1517 130.285C26.6322 130.285 27.1126 130.315 27.6531 130.345C28.1636 130.405 28.7642 130.495 29.4248 130.585V130.315C29.4248 129.444 29.2146 128.754 28.7942 128.303C28.3438 127.853 27.7432 127.613 26.9024 127.613C26.2418 127.613 25.4311 127.853 24.4401 128.333C23.4192 128.814 22.6985 129.054 22.2181 129.054C21.7677 129.054 21.3773 128.904 21.107 128.634C20.8368 128.393 20.6867 128.033 20.6867 127.583C20.6867 126.802 21.2572 126.171 22.4283 125.691C23.5693 125.24 25.1608 125 27.1427 125C29.2446 125 30.716 125.391 31.6168 126.201C32.5177 127.012 32.9681 128.363 32.9681 130.285V135.72ZM29.4248 132.898C28.9443 132.777 28.4939 132.717 28.0735 132.657C27.6531 132.597 27.2928 132.567 26.9325 132.567C25.8515 132.567 25.0107 132.747 24.4101 133.108C23.7795 133.468 23.4792 133.979 23.4792 134.609C23.4792 135.18 23.6894 135.6 24.0798 135.9C24.4702 136.201 25.0107 136.351 25.7614 136.351C26.422 136.351 27.0526 136.261 27.6531 136.051C28.2537 135.87 28.8542 135.57 29.4248 135.15V132.898Z" fill="#17A2BE"/>
<path d="M46.8838 135.716H50.0367C50.7274 135.716 51.2078 135.836 51.4781 136.076C51.7483 136.317 51.8985 136.737 51.8985 137.308C51.8985 137.878 51.7483 138.298 51.4781 138.539C51.1778 138.809 50.6973 138.929 50.0367 138.929H40.1275C39.4669 138.929 38.9864 138.809 38.6862 138.539C38.4159 138.298 38.2658 137.878 38.2658 137.308C38.2658 136.737 38.4159 136.317 38.6862 136.076C38.9564 135.836 39.4369 135.716 40.1275 135.716H43.2804V128.599H41.6289C40.9683 128.599 40.4878 128.479 40.2176 128.209C39.9473 127.969 39.7972 127.548 39.7972 126.978C39.7972 126.407 39.9173 125.987 40.2176 125.747C40.4878 125.507 40.9383 125.386 41.6289 125.386H46.043C46.3133 125.386 46.5235 125.446 46.6736 125.537C46.8237 125.657 46.8838 125.807 46.8838 126.017V135.716ZM44.7818 118.75C45.5025 118.75 45.9529 118.9 46.1932 119.171C46.4334 119.441 46.5535 120.102 46.5535 121.122C46.5535 122.113 46.4334 122.744 46.2232 122.984C46.013 123.224 45.5325 123.345 44.7518 123.345C43.9711 123.345 43.4906 123.224 43.2804 123.014C43.0402 122.774 42.9501 122.324 42.9501 121.663C42.9501 120.402 43.0702 119.621 43.2804 119.261C43.5207 118.93 44.0011 118.75 44.7818 118.75Z" fill="#17A2BE"/>
<path d="M64.8523 135.507H68.0052C68.6658 135.507 69.1463 135.627 69.4165 135.867C69.6868 136.107 69.8369 136.528 69.8369 137.098C69.8369 137.669 69.6868 138.089 69.4165 138.329C69.1463 138.599 68.6658 138.72 68.0052 138.72H58.066C57.4054 138.72 56.9249 138.599 56.6547 138.329C56.3844 138.089 56.2343 137.669 56.2343 137.098C56.2343 136.528 56.3844 136.107 56.6547 135.867C56.9249 135.627 57.3753 135.507 58.066 135.507H61.2189V122.775H59.5974C58.9368 122.775 58.4563 122.655 58.1561 122.384C57.8858 122.144 57.7357 121.724 57.7357 121.153C57.7357 120.583 57.8858 120.162 58.1561 119.922C58.4563 119.652 58.9368 119.532 59.5974 119.532H63.9815C64.2517 119.532 64.4619 119.592 64.6121 119.682C64.7622 119.802 64.8523 119.952 64.8523 120.162V135.507Z" fill="#17A2BE"/>
<path d="M78.2261 128.214L80.8685 134.46L83.6311 128.214H83.3909C82.8804 128.214 82.46 128.064 82.1898 127.793C81.9195 127.523 81.7694 127.133 81.7694 126.592C81.7694 126.022 81.9195 125.601 82.1898 125.361C82.46 125.121 82.9405 125.001 83.6311 125.001H87.0843C87.775 125.001 88.2554 125.121 88.5257 125.361C88.7959 125.631 88.946 126.022 88.946 126.592C88.946 127.133 88.7959 127.523 88.5257 127.793C88.2554 128.064 87.865 128.214 87.3245 128.214H87.0843L81.0487 141.156H81.7093C82.3699 141.156 82.8504 141.276 83.1507 141.546C83.4209 141.786 83.571 142.207 83.571 142.777C83.571 143.348 83.4209 143.768 83.1507 144.008C82.8504 144.279 82.3699 144.399 81.7093 144.399H75.2833C74.6227 144.399 74.1423 144.279 73.842 144.008C73.5717 143.768 73.4216 143.348 73.4216 142.777C73.4216 142.207 73.5717 141.786 73.842 141.546C74.1423 141.276 74.6227 141.156 75.2833 141.156H77.5655L78.9467 138.213L74.5026 128.214H74.2624C73.7219 128.214 73.3315 128.064 73.0613 127.793C72.761 127.523 72.6409 127.133 72.6409 126.592C72.6409 126.022 72.791 125.601 73.0613 125.361C73.3315 125.121 73.812 125.001 74.5026 125.001H78.2261C78.8867 125.001 79.3671 125.121 79.6674 125.361C79.9377 125.631 80.0878 126.022 80.0878 126.592C80.0878 127.133 79.9377 127.523 79.6674 127.793C79.3972 128.064 78.9768 128.214 78.4663 128.214H78.2261Z" fill="#17A2BE"/>
<path d="M114.404 131.664V136.138H116.596C118.157 136.138 119.238 135.958 119.869 135.628C120.53 135.297 120.83 134.697 120.83 133.916C120.83 133.105 120.53 132.535 119.929 132.174C119.329 131.844 118.248 131.664 116.746 131.664H114.404ZM121.881 130.042C122.932 130.433 123.713 130.973 124.223 131.634C124.734 132.324 124.974 133.195 124.974 134.246C124.974 135.147 124.764 135.958 124.313 136.679C123.893 137.399 123.292 138 122.481 138.48C122.001 138.75 121.491 138.961 120.89 139.081C120.319 139.201 119.509 139.261 118.428 139.261H110.771C110.14 139.261 109.66 139.141 109.389 138.871C109.119 138.63 108.969 138.21 108.969 137.639C108.969 137.129 109.119 136.709 109.359 136.438C109.629 136.198 110.02 136.048 110.53 136.048H110.771V125.118H110.53C110.02 125.118 109.629 124.968 109.359 124.697C109.119 124.427 108.969 124.037 108.969 123.496C108.969 122.926 109.119 122.505 109.389 122.265C109.69 121.995 110.14 121.875 110.771 121.875H117.527C119.599 121.875 121.16 122.265 122.211 123.076C123.292 123.887 123.833 125.058 123.833 126.589C123.833 127.37 123.653 128.03 123.322 128.601C123.022 129.202 122.511 129.682 121.881 130.042ZM114.404 125.028V128.721H116.386C117.587 128.721 118.428 128.571 118.908 128.301C119.419 128 119.659 127.52 119.659 126.859C119.659 126.229 119.449 125.748 118.998 125.478C118.548 125.178 117.827 125.028 116.836 125.028H114.404Z" fill="#17A2BE"/>
<path d="M137.118 135.716H140.271C140.962 135.716 141.442 135.836 141.712 136.076C141.983 136.317 142.133 136.737 142.133 137.308C142.133 137.878 141.983 138.298 141.712 138.539C141.412 138.809 140.932 138.929 140.271 138.929H130.362C129.701 138.929 129.221 138.809 128.92 138.539C128.65 138.298 128.5 137.878 128.5 137.308C128.5 136.737 128.65 136.317 128.92 136.076C129.191 135.836 129.671 135.716 130.362 135.716H133.515V128.599H131.863C131.202 128.599 130.722 128.479 130.452 128.209C130.182 127.969 130.031 127.548 130.031 126.978C130.031 126.407 130.152 125.987 130.452 125.747C130.722 125.507 131.172 125.386 131.863 125.386H136.277C136.547 125.386 136.758 125.446 136.908 125.537C137.058 125.657 137.118 125.807 137.118 126.017V135.716ZM135.016 118.75C135.737 118.75 136.187 118.9 136.427 119.171C136.668 119.441 136.788 120.102 136.788 121.122C136.788 122.113 136.668 122.744 136.457 122.984C136.247 123.224 135.767 123.345 134.986 123.345C134.205 123.345 133.725 123.224 133.515 123.014C133.274 122.774 133.184 122.324 133.184 121.663C133.184 120.402 133.304 119.621 133.515 119.261C133.755 118.93 134.235 118.75 135.016 118.75Z" fill="#17A2BE"/>
<path d="M152.113 126.349H156.587C157.278 126.349 157.728 126.469 158.029 126.709C158.299 126.979 158.449 127.37 158.449 127.94C158.449 128.511 158.299 128.931 158.029 129.171C157.728 129.442 157.248 129.562 156.587 129.562H152.113V133.315C152.113 134.366 152.263 135.087 152.594 135.477C152.924 135.867 153.494 136.078 154.305 136.078C155.056 136.078 155.957 135.867 157.008 135.417C158.029 134.967 158.719 134.756 159.08 134.756C159.47 134.756 159.83 134.907 160.101 135.237C160.401 135.537 160.551 135.928 160.551 136.378C160.551 137.129 159.86 137.819 158.509 138.45C157.128 139.05 155.596 139.381 153.855 139.381C152.864 139.381 151.963 139.231 151.212 138.96C150.432 138.69 149.831 138.3 149.411 137.789C149.08 137.399 148.84 136.918 148.72 136.378C148.57 135.837 148.51 134.907 148.51 133.645V129.562H147.129C146.468 129.562 145.987 129.442 145.717 129.171C145.447 128.931 145.297 128.511 145.297 127.94C145.297 127.37 145.447 126.949 145.717 126.709C145.987 126.469 146.468 126.349 147.129 126.349H148.51V122.925C148.51 122.235 148.66 121.784 148.93 121.514C149.2 121.214 149.681 121.094 150.311 121.094C150.972 121.094 151.422 121.214 151.693 121.514C151.963 121.784 152.113 122.235 152.113 122.925V126.349Z" fill="#17A2BE"/>
<path d="M167.26 138.783C166.99 138.993 166.75 139.143 166.479 139.233C166.209 139.323 165.939 139.383 165.639 139.383C165.218 139.383 164.918 139.263 164.768 139.053C164.588 138.813 164.498 138.393 164.498 137.792V135.84C164.498 135.21 164.618 134.729 164.828 134.459C165.038 134.189 165.398 134.069 165.939 134.069C166.509 134.069 166.99 134.339 167.35 134.909C167.56 135.21 167.741 135.42 167.891 135.57C168.371 136.02 168.912 136.321 169.572 136.531C170.203 136.771 170.924 136.861 171.734 136.861C172.425 136.861 172.995 136.741 173.416 136.471C173.836 136.17 174.046 135.84 174.046 135.39C174.046 134.609 172.905 134.039 170.653 133.738C170.173 133.678 169.782 133.618 169.482 133.588C167.771 133.348 166.509 132.897 165.699 132.207C164.858 131.516 164.437 130.585 164.437 129.414C164.437 128.033 164.948 126.982 165.939 126.231C166.93 125.481 168.371 125.09 170.203 125.09C170.833 125.09 171.494 125.15 172.155 125.24C172.845 125.36 173.506 125.511 174.227 125.721C174.437 125.481 174.647 125.3 174.887 125.18C175.097 125.06 175.368 125 175.638 125C176.058 125 176.359 125.12 176.569 125.39C176.779 125.631 176.869 125.991 176.869 126.502V128.303C176.869 128.724 176.779 129.054 176.539 129.294C176.329 129.504 176.028 129.624 175.638 129.624C175.248 129.624 174.557 129.264 173.596 128.573C172.605 127.883 171.644 127.522 170.653 127.522C169.903 127.522 169.302 127.643 168.882 127.913C168.461 128.153 168.251 128.483 168.251 128.934C168.251 129.624 169.122 130.075 170.893 130.315C171.404 130.375 171.794 130.435 172.095 130.465C174.317 130.796 175.818 131.276 176.659 131.907C177.47 132.537 177.89 133.498 177.89 134.759C177.89 136.231 177.349 137.372 176.238 138.182C175.157 138.993 173.626 139.383 171.614 139.383C170.833 139.383 170.083 139.323 169.362 139.233C168.641 139.143 167.921 138.993 167.26 138.783Z" fill="#17A2BE"/>
</svg>
