<svg width="178" height="145" viewBox="0 0 178 145" fill="none" xmlns="http://www.w3.org/2000/svg">
<path d="M25.8312 3.62881C25.8312 4.51496 25.0717 6.28727 23.8057 9.19892C22.4132 12.1106 21.2739 14.3892 20.6409 16.035C17.8559 22.6178 15.8304 28.5677 14.691 34.0112C13.5517 39.4547 12.9187 45.1514 12.9187 50.9747C12.9187 56.2917 13.4251 61.6086 14.4378 66.6723C15.324 71.6095 16.8431 76.6732 18.8686 81.7369C19.8814 84.3954 21.4005 87.6868 23.1728 91.358C24.9451 95.0292 25.8312 97.3079 25.8312 98.1941C25.8312 99.0802 25.5781 99.8398 25.1983 100.346C24.8185 100.853 24.3121 101.106 23.6792 101.106C22.4132 101.106 21.0207 100.473 19.375 99.0802C17.8559 97.6877 15.957 95.5356 13.9315 92.624C9.50069 86.2943 6.20926 79.7114 4.05717 72.7488C1.90509 65.7862 0.765747 58.5703 0.765747 50.9747C0.765747 44.0121 1.6519 37.3026 3.42421 30.973C5.32311 24.6433 7.98157 18.5668 11.6528 12.6169C14.0581 8.69254 16.2101 5.78089 18.2356 3.7554C20.2611 1.8565 22.0334 0.84375 23.6792 0.84375C24.3121 0.84375 24.8185 1.09694 25.1983 1.60332C25.5781 2.10969 25.8312 2.74265 25.8312 3.62881Z" fill="#873DEC"/>
<path d="M152.719 98.1941C152.719 97.3079 153.478 95.5356 154.871 92.7506C156.263 89.8389 157.276 87.6868 158.036 85.9145C160.821 79.3316 162.846 73.2552 163.985 67.8117C165.251 62.3681 165.758 56.798 165.758 50.9747C165.758 45.6578 165.251 40.4675 164.239 35.4037C163.226 30.34 161.707 25.2763 159.681 20.0859C158.542 17.4275 157.149 14.1361 155.377 10.4649C153.605 6.79364 152.719 4.51496 152.719 3.62881C152.719 2.74265 152.972 2.10969 153.352 1.60332C153.731 1.09694 154.364 0.84375 154.997 0.84375C156.39 0.84375 157.782 1.47672 159.302 2.86925C160.821 4.13518 162.72 6.28727 164.745 9.19892C169.176 15.5286 172.467 22.1114 174.619 29.0741C176.771 36.0367 177.911 43.3791 177.911 50.9747C177.911 57.9374 177.025 64.5202 175.126 70.9765C173.353 77.3062 170.568 83.3826 166.897 89.3325C164.365 93.3835 162.087 96.2952 160.188 98.1941C158.289 100.093 156.516 101.106 154.997 101.106C154.364 101.106 153.731 100.853 153.352 100.22C152.972 99.7132 152.719 99.0802 152.719 98.1941Z" fill="#873DEC"/>
<path d="M52.5255 68.4263C57.3808 68.4263 61.3167 64.4903 61.3167 59.6351C61.3167 54.7798 57.3808 50.8439 52.5255 50.8439C47.6702 50.8439 43.7343 54.7798 43.7343 59.6351C43.7343 64.4903 47.6702 68.4263 52.5255 68.4263Z" fill="#873DEC"/>
<path d="M126.349 68.4263C121.494 68.4263 117.558 64.4903 117.558 59.6351C117.558 54.7798 121.494 50.8439 126.349 50.8439C131.205 50.8439 135.141 54.7798 135.141 59.6351C135.141 64.4903 131.205 68.4263 126.349 68.4263Z" fill="#873DEC"/>
<path d="M2.62751 136.11V125.18H2.38729C1.84678 125.18 1.45642 125.03 1.18617 124.76C0.915917 124.489 0.765778 124.099 0.765778 123.559C0.765778 122.988 0.915917 122.568 1.2162 122.327C1.51648 122.057 1.96689 121.937 2.62751 121.937H6.26089C8.30279 121.937 9.80418 122.027 10.7351 122.207C11.6959 122.387 12.5067 122.658 13.1673 123.078C14.3384 123.769 15.2392 124.79 15.8698 126.081C16.5004 127.402 16.8307 128.903 16.8307 130.615C16.8307 132.417 16.4704 134.008 15.7497 135.359C15.029 136.711 14.0081 137.732 12.6869 138.422C12.0863 138.753 11.3957 138.963 10.5849 139.113C9.80418 139.263 8.60307 139.323 7.01159 139.323H2.62751C1.96689 139.323 1.48645 139.203 1.18617 138.963C0.915917 138.693 0.765778 138.272 0.765778 137.702C0.765778 137.191 0.915917 136.771 1.18617 136.501C1.45642 136.26 1.84678 136.11 2.38729 136.11H2.62751ZM6.41103 125.12V136.11H7.25181C9.11354 136.11 10.4648 135.66 11.3356 134.759C12.2364 133.858 12.6568 132.447 12.6568 130.585C12.6568 128.723 12.2064 127.372 11.3356 126.441C10.4348 125.54 9.08351 125.09 7.28184 125.09C7.04161 125.09 6.86145 125.09 6.74134 125.09C6.62122 125.09 6.50111 125.12 6.41103 125.12Z" fill="#873DEC"/>
<path d="M32.9681 135.782H33.2083C33.7188 135.782 34.1392 135.932 34.4094 136.203C34.6797 136.473 34.8298 136.893 34.8298 137.404C34.8298 137.974 34.6797 138.365 34.4094 138.635C34.1091 138.875 33.6287 138.995 32.9681 138.995H31.5868C31.1063 138.995 30.746 138.905 30.5058 138.725C30.2656 138.545 30.0554 138.185 29.9052 137.704C29.0945 138.245 28.2237 138.665 27.3228 138.935C26.422 139.206 25.4911 139.356 24.5603 139.356C22.9988 139.356 21.7677 138.965 20.8668 138.185C19.966 137.404 19.5156 136.323 19.5156 134.972C19.5156 133.5 20.0861 132.359 21.2572 131.548C22.4283 130.738 24.0498 130.347 26.1517 130.347C26.6322 130.347 27.1126 130.377 27.6531 130.407C28.1636 130.467 28.7642 130.557 29.4248 130.648V130.377C29.4248 129.507 29.2146 128.816 28.7942 128.365C28.3438 127.915 27.7432 127.675 26.9024 127.675C26.2418 127.675 25.4311 127.915 24.4401 128.395C23.4192 128.876 22.6985 129.116 22.2181 129.116C21.7677 129.116 21.3773 128.966 21.107 128.696C20.8368 128.456 20.6867 128.095 20.6867 127.645C20.6867 126.864 21.2572 126.233 22.4283 125.753C23.5693 125.303 25.1608 125.062 27.1427 125.062C29.2446 125.062 30.716 125.453 31.6168 126.263C32.5177 127.074 32.9681 128.426 32.9681 130.347V135.782ZM29.4248 132.96C28.9443 132.84 28.4939 132.78 28.0735 132.719C27.6531 132.659 27.2928 132.629 26.9325 132.629C25.8515 132.629 25.0107 132.81 24.4101 133.17C23.7795 133.53 23.4792 134.041 23.4792 134.671C23.4792 135.242 23.6894 135.662 24.0798 135.963C24.4702 136.263 25.0107 136.413 25.7614 136.413C26.422 136.413 27.0526 136.323 27.6531 136.113C28.2537 135.932 28.8542 135.632 29.4248 135.212V132.96Z" fill="#873DEC"/>
<path d="M46.8838 135.778H50.0367C50.7274 135.778 51.2078 135.898 51.4781 136.138C51.7483 136.379 51.8985 136.799 51.8985 137.37C51.8985 137.94 51.7483 138.361 51.4781 138.601C51.1778 138.871 50.6973 138.991 50.0367 138.991H40.1275C39.4669 138.991 38.9864 138.871 38.6862 138.601C38.4159 138.361 38.2658 137.94 38.2658 137.37C38.2658 136.799 38.4159 136.379 38.6862 136.138C38.9564 135.898 39.4369 135.778 40.1275 135.778H43.2804V128.662H41.6289C40.9683 128.662 40.4878 128.541 40.2176 128.271C39.9473 128.031 39.7972 127.611 39.7972 127.04C39.7972 126.47 39.9173 126.049 40.2176 125.809C40.4878 125.569 40.9383 125.449 41.6289 125.449H46.043C46.3133 125.449 46.5235 125.509 46.6736 125.599C46.8237 125.719 46.8838 125.869 46.8838 126.079V135.778ZM44.7818 118.812C45.5025 118.812 45.9529 118.963 46.1932 119.233C46.4334 119.503 46.5535 120.164 46.5535 121.185C46.5535 122.176 46.4334 122.806 46.2232 123.046C46.013 123.287 45.5325 123.407 44.7518 123.407C43.9711 123.407 43.4906 123.287 43.2804 123.076C43.0402 122.836 42.9501 122.386 42.9501 121.725C42.9501 120.464 43.0702 119.683 43.2804 119.323C43.5207 118.993 44.0011 118.812 44.7818 118.812Z" fill="#873DEC"/>
<path d="M64.8523 135.569H68.0052C68.6658 135.569 69.1463 135.689 69.4165 135.929C69.6868 136.169 69.8369 136.59 69.8369 137.16C69.8369 137.731 69.6868 138.151 69.4165 138.391C69.1463 138.662 68.6658 138.782 68.0052 138.782H58.066C57.4054 138.782 56.9249 138.662 56.6547 138.391C56.3844 138.151 56.2343 137.731 56.2343 137.16C56.2343 136.59 56.3844 136.169 56.6547 135.929C56.9249 135.689 57.3753 135.569 58.066 135.569H61.2189V122.837H59.5974C58.9368 122.837 58.4563 122.717 58.1561 122.447C57.8858 122.206 57.7357 121.786 57.7357 121.215C57.7357 120.645 57.8858 120.224 58.1561 119.984C58.4563 119.714 58.9368 119.594 59.5974 119.594H63.9815C64.2517 119.594 64.4619 119.654 64.6121 119.744C64.7622 119.864 64.8523 120.014 64.8523 120.224V135.569Z" fill="#873DEC"/>
<path d="M78.2261 128.276L80.8685 134.522L83.6311 128.276H83.3909C82.8804 128.276 82.46 128.126 82.1898 127.855C81.9195 127.585 81.7694 127.195 81.7694 126.654C81.7694 126.084 81.9195 125.663 82.1898 125.423C82.46 125.183 82.9405 125.063 83.6311 125.063H87.0843C87.775 125.063 88.2554 125.183 88.5257 125.423C88.7959 125.693 88.946 126.084 88.946 126.654C88.946 127.195 88.7959 127.585 88.5257 127.855C88.2554 128.126 87.865 128.276 87.3245 128.276H87.0843L81.0487 141.218H81.7093C82.3699 141.218 82.8504 141.338 83.1507 141.608C83.4209 141.848 83.571 142.269 83.571 142.839C83.571 143.41 83.4209 143.83 83.1507 144.071C82.8504 144.341 82.3699 144.461 81.7093 144.461H75.2833C74.6227 144.461 74.1423 144.341 73.842 144.071C73.5717 143.83 73.4216 143.41 73.4216 142.839C73.4216 142.269 73.5717 141.848 73.842 141.608C74.1423 141.338 74.6227 141.218 75.2833 141.218H77.5655L78.9467 138.275L74.5026 128.276H74.2624C73.7219 128.276 73.3315 128.126 73.0613 127.855C72.761 127.585 72.6409 127.195 72.6409 126.654C72.6409 126.084 72.791 125.663 73.0613 125.423C73.3315 125.183 73.812 125.063 74.5026 125.063H78.2261C78.8867 125.063 79.3671 125.183 79.6674 125.423C79.9377 125.693 80.0878 126.084 80.0878 126.654C80.0878 127.195 79.9377 127.585 79.6674 127.855C79.3972 128.126 78.9768 128.276 78.4663 128.276H78.2261Z" fill="#873DEC"/>
<path d="M114.404 131.726V136.2H116.596C118.157 136.2 119.238 136.02 119.869 135.69C120.53 135.359 120.83 134.759 120.83 133.978C120.83 133.167 120.53 132.597 119.929 132.237C119.329 131.906 118.248 131.726 116.746 131.726H114.404ZM121.881 130.105C122.932 130.495 123.713 131.035 124.223 131.696C124.734 132.387 124.974 133.258 124.974 134.309C124.974 135.209 124.764 136.02 124.313 136.741C123.893 137.461 123.292 138.062 122.481 138.542C122.001 138.813 121.491 139.023 120.89 139.143C120.319 139.263 119.509 139.323 118.428 139.323H110.771C110.14 139.323 109.66 139.203 109.389 138.933C109.119 138.693 108.969 138.272 108.969 137.702C108.969 137.191 109.119 136.771 109.359 136.501C109.629 136.26 110.02 136.11 110.53 136.11H110.771V125.18H110.53C110.02 125.18 109.629 125.03 109.359 124.76C109.119 124.489 108.969 124.099 108.969 123.559C108.969 122.988 109.119 122.568 109.389 122.327C109.69 122.057 110.14 121.937 110.771 121.937H117.527C119.599 121.937 121.16 122.327 122.211 123.138C123.292 123.949 123.833 125.12 123.833 126.651C123.833 127.432 123.653 128.093 123.322 128.663C123.022 129.264 122.511 129.744 121.881 130.105ZM114.404 125.09V128.783H116.386C117.587 128.783 118.428 128.633 118.908 128.363C119.419 128.063 119.659 127.582 119.659 126.922C119.659 126.291 119.449 125.811 118.998 125.54C118.548 125.24 117.827 125.09 116.836 125.09H114.404Z" fill="#873DEC"/>
<path d="M137.118 135.778H140.271C140.962 135.778 141.442 135.898 141.712 136.138C141.983 136.379 142.133 136.799 142.133 137.37C142.133 137.94 141.983 138.361 141.712 138.601C141.412 138.871 140.932 138.991 140.271 138.991H130.362C129.701 138.991 129.221 138.871 128.92 138.601C128.65 138.361 128.5 137.94 128.5 137.37C128.5 136.799 128.65 136.379 128.92 136.138C129.191 135.898 129.671 135.778 130.362 135.778H133.515V128.662H131.863C131.202 128.662 130.722 128.541 130.452 128.271C130.182 128.031 130.031 127.611 130.031 127.04C130.031 126.47 130.152 126.049 130.452 125.809C130.722 125.569 131.172 125.449 131.863 125.449H136.277C136.547 125.449 136.758 125.509 136.908 125.599C137.058 125.719 137.118 125.869 137.118 126.079V135.778ZM135.016 118.812C135.737 118.812 136.187 118.963 136.427 119.233C136.668 119.503 136.788 120.164 136.788 121.185C136.788 122.176 136.668 122.806 136.457 123.046C136.247 123.287 135.767 123.407 134.986 123.407C134.205 123.407 133.725 123.287 133.515 123.076C133.274 122.836 133.184 122.386 133.184 121.725C133.184 120.464 133.304 119.683 133.515 119.323C133.755 118.993 134.235 118.812 135.016 118.812Z" fill="#873DEC"/>
<path d="M152.113 126.411H156.587C157.278 126.411 157.728 126.531 158.029 126.771C158.299 127.041 158.449 127.432 158.449 128.002C158.449 128.573 158.299 128.993 158.029 129.234C157.728 129.504 157.248 129.624 156.587 129.624H152.113V133.377C152.113 134.428 152.263 135.149 152.594 135.539C152.924 135.93 153.494 136.14 154.305 136.14C155.056 136.14 155.957 135.93 157.008 135.479C158.029 135.029 158.719 134.819 159.08 134.819C159.47 134.819 159.83 134.969 160.101 135.299C160.401 135.599 160.551 135.99 160.551 136.44C160.551 137.191 159.86 137.882 158.509 138.512C157.128 139.113 155.596 139.443 153.855 139.443C152.864 139.443 151.963 139.293 151.212 139.023C150.432 138.752 149.831 138.362 149.411 137.852C149.08 137.461 148.84 136.981 148.72 136.44C148.57 135.9 148.51 134.969 148.51 133.708V129.624H147.129C146.468 129.624 145.987 129.504 145.717 129.234C145.447 128.993 145.297 128.573 145.297 128.002C145.297 127.432 145.447 127.011 145.717 126.771C145.987 126.531 146.468 126.411 147.129 126.411H148.51V122.988C148.51 122.297 148.66 121.847 148.93 121.576C149.2 121.276 149.681 121.156 150.311 121.156C150.972 121.156 151.422 121.276 151.693 121.576C151.963 121.847 152.113 122.297 152.113 122.988V126.411Z" fill="#873DEC"/>
<path d="M167.26 138.845C166.99 139.055 166.75 139.205 166.479 139.295C166.209 139.386 165.939 139.446 165.639 139.446C165.218 139.446 164.918 139.326 164.768 139.115C164.588 138.875 164.498 138.455 164.498 137.854V135.902C164.498 135.272 164.618 134.791 164.828 134.521C165.038 134.251 165.398 134.131 165.939 134.131C166.509 134.131 166.99 134.401 167.35 134.971C167.56 135.272 167.741 135.482 167.891 135.632C168.371 136.082 168.912 136.383 169.572 136.593C170.203 136.833 170.924 136.923 171.734 136.923C172.425 136.923 172.995 136.803 173.416 136.533C173.836 136.233 174.046 135.902 174.046 135.452C174.046 134.671 172.905 134.101 170.653 133.8C170.173 133.74 169.782 133.68 169.482 133.65C167.771 133.41 166.509 132.96 165.699 132.269C164.858 131.578 164.437 130.647 164.437 129.476C164.437 128.095 164.948 127.044 165.939 126.293C166.93 125.543 168.371 125.152 170.203 125.152C170.833 125.152 171.494 125.212 172.155 125.302C172.845 125.423 173.506 125.573 174.227 125.783C174.437 125.543 174.647 125.363 174.887 125.242C175.097 125.122 175.368 125.062 175.638 125.062C176.058 125.062 176.359 125.182 176.569 125.453C176.779 125.693 176.869 126.053 176.869 126.564V128.365C176.869 128.786 176.779 129.116 176.539 129.356C176.329 129.566 176.028 129.687 175.638 129.687C175.248 129.687 174.557 129.326 173.596 128.636C172.605 127.945 171.644 127.585 170.653 127.585C169.903 127.585 169.302 127.705 168.882 127.975C168.461 128.215 168.251 128.545 168.251 128.996C168.251 129.687 169.122 130.137 170.893 130.377C171.404 130.437 171.794 130.497 172.095 130.527C174.317 130.858 175.818 131.338 176.659 131.969C177.47 132.599 177.89 133.56 177.89 134.821C177.89 136.293 177.349 137.434 176.238 138.245C175.157 139.055 173.626 139.446 171.614 139.446C170.833 139.446 170.083 139.386 169.362 139.295C168.641 139.205 167.921 139.055 167.26 138.845Z" fill="#873DEC"/>
</svg>
