<svg width="90" height="16" viewBox="0 0 90 16" fill="none" xmlns="http://www.w3.org/2000/svg">
<path d="M7.16 7.176C7.81067 7.35733 8.312 7.688 8.664 8.168C9.02667 8.648 9.208 9.23467 9.208 9.928C9.208 10.888 8.86133 11.64 8.168 12.184C7.48533 12.728 6.54133 13 5.336 13H1.208C0.898667 13 0.653333 12.9147 0.472 12.744C0.301333 12.5733 0.216 12.3333 0.216 12.024V2.696C0.216 2.38667 0.301333 2.14667 0.472 1.976C0.653333 1.80533 0.898667 1.72 1.208 1.72H5.176C6.34933 1.72 7.26667 1.98133 7.928 2.504C8.6 3.016 8.936 3.736 8.936 4.664C8.936 5.26133 8.776 5.77867 8.456 6.216C8.14667 6.65333 7.71467 6.97333 7.16 7.176ZM2.232 6.472H4.84C6.25867 6.472 6.968 5.944 6.968 4.888C6.968 4.35467 6.792 3.96 6.44 3.704C6.088 3.448 5.55467 3.32 4.84 3.32H2.232V6.472ZM5.112 11.4C5.85867 11.4 6.40267 11.2667 6.744 11C7.08533 10.7333 7.256 10.3173 7.256 9.752C7.256 9.18667 7.08 8.76533 6.728 8.488C6.38667 8.21067 5.848 8.072 5.112 8.072H2.232V11.4H5.112ZM14.6099 13.128C13.8099 13.128 13.1059 12.9627 12.4979 12.632C11.9005 12.3013 11.4365 11.8267 11.1059 11.208C10.7752 10.5893 10.6099 9.86933 10.6099 9.048C10.6099 8.22667 10.7752 7.512 11.1059 6.904C11.4365 6.28533 11.9005 5.81067 12.4979 5.48C13.1059 5.14933 13.8099 4.984 14.6099 4.984C15.4099 4.984 16.1085 5.14933 16.7059 5.48C17.3139 5.81067 17.7779 6.28533 18.0979 6.904C18.4285 7.512 18.5939 8.22667 18.5939 9.048C18.5939 9.86933 18.4285 10.5893 18.0979 11.208C17.7779 11.8267 17.3139 12.3013 16.7059 12.632C16.1085 12.9627 15.4099 13.128 14.6099 13.128ZM14.5939 11.576C15.2445 11.576 15.7405 11.3627 16.0819 10.936C16.4232 10.5093 16.5939 9.88 16.5939 9.048C16.5939 8.22667 16.4232 7.60267 16.0819 7.176C15.7405 6.73867 15.2499 6.52 14.6099 6.52C13.9699 6.52 13.4739 6.73867 13.1219 7.176C12.7805 7.60267 12.6099 8.22667 12.6099 9.048C12.6099 9.88 12.7805 10.5093 13.1219 10.936C13.4632 11.3627 13.9539 11.576 14.5939 11.576ZM26.853 1.64C27.1517 1.64 27.397 1.72533 27.589 1.896C27.781 2.06667 27.877 2.29067 27.877 2.568V12.136C27.877 12.424 27.7863 12.6533 27.605 12.824C27.4237 12.9947 27.1837 13.08 26.885 13.08C26.5863 13.08 26.3463 12.9947 26.165 12.824C25.9837 12.6533 25.893 12.424 25.893 12.136V11.736C25.6583 12.1733 25.317 12.5147 24.869 12.76C24.4317 13.0053 23.9303 13.128 23.365 13.128C22.693 13.128 22.0903 12.9573 21.557 12.616C21.0343 12.2747 20.6237 11.7947 20.325 11.176C20.037 10.5467 19.893 9.82667 19.893 9.016C19.893 8.20533 20.037 7.496 20.325 6.888C20.6237 6.28 21.0343 5.81067 21.557 5.48C22.0797 5.14933 22.6823 4.984 23.365 4.984C23.9303 4.984 24.4317 5.10133 24.869 5.336C25.3063 5.57067 25.6423 5.90133 25.877 6.328V2.536C25.877 2.26933 25.9623 2.056 26.133 1.896C26.3143 1.72533 26.5543 1.64 26.853 1.64ZM23.893 11.576C24.533 11.576 25.0237 11.3573 25.365 10.92C25.717 10.4827 25.893 9.85867 25.893 9.048C25.893 8.23733 25.717 7.61867 25.365 7.192C25.0237 6.75467 24.5383 6.536 23.909 6.536C23.269 6.536 22.773 6.74933 22.421 7.176C22.069 7.60267 21.893 8.216 21.893 9.016C21.893 9.82667 22.069 10.456 22.421 10.904C22.773 11.352 23.2637 11.576 23.893 11.576ZM35.4704 5.592C35.5557 5.4 35.6677 5.26133 35.8064 5.176C35.9557 5.08 36.1157 5.032 36.2864 5.032C36.5317 5.032 36.7504 5.11733 36.9424 5.288C37.145 5.448 37.2464 5.65067 37.2464 5.896C37.2464 6.01333 37.2144 6.136 37.1504 6.264L32.7824 15.416C32.601 15.7787 32.3184 15.96 31.9344 15.96C31.689 15.96 31.4704 15.88 31.2784 15.72C31.097 15.5707 31.0064 15.3787 31.0064 15.144C31.0064 15.0267 31.0384 14.8933 31.1024 14.744L32.1904 12.456L29.2144 6.264C29.161 6.15733 29.1344 6.03467 29.1344 5.896C29.1344 5.65067 29.2357 5.44267 29.4384 5.272C29.6517 5.10133 29.8917 5.016 30.1584 5.016C30.3397 5.016 30.505 5.064 30.6544 5.16C30.8037 5.24533 30.921 5.384 31.0064 5.576L33.2464 10.52L35.4704 5.592ZM49.916 11.336C50.556 11.336 50.876 11.608 50.876 12.152C50.876 12.7173 50.556 13 49.916 13H44.508C43.8573 13 43.532 12.7173 43.532 12.152C43.532 11.608 43.8573 11.336 44.508 11.336H46.172V4.04L44.636 4.984C44.4867 5.06933 44.3533 5.112 44.236 5.112C44.012 5.112 43.82 5.016 43.66 4.824C43.5107 4.632 43.436 4.41867 43.436 4.184C43.436 3.87467 43.5747 3.63467 43.852 3.464L46.332 1.928C46.652 1.736 46.956 1.64 47.244 1.64C47.5427 1.64 47.7827 1.73067 47.964 1.912C48.1453 2.09333 48.236 2.344 48.236 2.664V11.336H49.916ZM52.9817 13.544C52.9177 13.7467 52.8164 13.896 52.6777 13.992C52.5391 14.088 52.3844 14.136 52.2137 14.136C52.0004 14.136 51.8084 14.0613 51.6377 13.912C51.4777 13.7733 51.3977 13.592 51.3977 13.368C51.3977 13.272 51.4137 13.176 51.4457 13.08L55.1577 1.448C55.2217 1.24533 55.3231 1.096 55.4617 0.999999C55.6004 0.903999 55.7551 0.855999 55.9257 0.855999C56.1391 0.855999 56.3257 0.930666 56.4857 1.08C56.6564 1.21867 56.7417 1.4 56.7417 1.624C56.7417 1.72 56.7257 1.816 56.6937 1.912L52.9817 13.544ZM64.8294 7.176C65.48 7.35733 65.9814 7.688 66.3334 8.168C66.696 8.648 66.8774 9.23467 66.8774 9.928C66.8774 10.888 66.5307 11.64 65.8374 12.184C65.1547 12.728 64.2107 13 63.0054 13H58.8774C58.568 13 58.3227 12.9147 58.1414 12.744C57.9707 12.5733 57.8854 12.3333 57.8854 12.024V2.696C57.8854 2.38667 57.9707 2.14667 58.1414 1.976C58.3227 1.80533 58.568 1.72 58.8774 1.72H62.8454C64.0187 1.72 64.936 1.98133 65.5974 2.504C66.2694 3.016 66.6054 3.736 66.6054 4.664C66.6054 5.26133 66.4454 5.77867 66.1254 6.216C65.816 6.65333 65.384 6.97333 64.8294 7.176ZM59.9014 6.472H62.5094C63.928 6.472 64.6374 5.944 64.6374 4.888C64.6374 4.35467 64.4614 3.96 64.1094 3.704C63.7574 3.448 63.224 3.32 62.5094 3.32H59.9014V6.472ZM62.7814 11.4C63.528 11.4 64.072 11.2667 64.4134 11C64.7547 10.7333 64.9254 10.3173 64.9254 9.752C64.9254 9.18667 64.7494 8.76533 64.3974 8.488C64.056 8.21067 63.5174 8.072 62.7814 8.072H59.9014V11.4H62.7814ZM72.2792 13.128C71.4792 13.128 70.7752 12.9627 70.1672 12.632C69.5699 12.3013 69.1059 11.8267 68.7752 11.208C68.4446 10.5893 68.2792 9.86933 68.2792 9.048C68.2792 8.22667 68.4446 7.512 68.7752 6.904C69.1059 6.28533 69.5699 5.81067 70.1672 5.48C70.7752 5.14933 71.4792 4.984 72.2792 4.984C73.0792 4.984 73.7779 5.14933 74.3752 5.48C74.9832 5.81067 75.4472 6.28533 75.7673 6.904C76.0979 7.512 76.2632 8.22667 76.2632 9.048C76.2632 9.86933 76.0979 10.5893 75.7673 11.208C75.4472 11.8267 74.9832 12.3013 74.3752 12.632C73.7779 12.9627 73.0792 13.128 72.2792 13.128ZM72.2632 11.576C72.9139 11.576 73.4099 11.3627 73.7512 10.936C74.0926 10.5093 74.2632 9.88 74.2632 9.048C74.2632 8.22667 74.0926 7.60267 73.7512 7.176C73.4099 6.73867 72.9192 6.52 72.2792 6.52C71.6392 6.52 71.1432 6.73867 70.7912 7.176C70.4499 7.60267 70.2792 8.22667 70.2792 9.048C70.2792 9.88 70.4499 10.5093 70.7912 10.936C71.1326 11.3627 71.6232 11.576 72.2632 11.576ZM78.9864 13.096C78.6984 13.096 78.4584 13.016 78.2664 12.856C78.085 12.6853 77.9944 12.4453 77.9944 12.136V2.584C77.9944 2.27467 78.085 2.04 78.2664 1.88C78.4584 1.72 78.6984 1.64 78.9864 1.64C79.2744 1.64 79.5144 1.72 79.7064 1.88C79.8984 2.04 79.9944 2.27467 79.9944 2.584V12.136C79.9944 12.4453 79.8984 12.6853 79.7064 12.856C79.5144 13.016 79.2744 13.096 78.9864 13.096ZM88.6649 1.64C88.9635 1.64 89.2089 1.72533 89.4009 1.896C89.5929 2.06667 89.6889 2.29067 89.6889 2.568V12.136C89.6889 12.424 89.5982 12.6533 89.4169 12.824C89.2355 12.9947 88.9955 13.08 88.6969 13.08C88.3982 13.08 88.1582 12.9947 87.9769 12.824C87.7955 12.6533 87.7049 12.424 87.7049 12.136V11.736C87.4702 12.1733 87.1289 12.5147 86.6809 12.76C86.2435 13.0053 85.7422 13.128 85.1769 13.128C84.5049 13.128 83.9022 12.9573 83.3689 12.616C82.8462 12.2747 82.4355 11.7947 82.1369 11.176C81.8489 10.5467 81.7049 9.82667 81.7049 9.016C81.7049 8.20533 81.8489 7.496 82.1369 6.888C82.4355 6.28 82.8462 5.81067 83.3689 5.48C83.8915 5.14933 84.4942 4.984 85.1769 4.984C85.7422 4.984 86.2435 5.10133 86.6809 5.336C87.1182 5.57067 87.4542 5.90133 87.6889 6.328V2.536C87.6889 2.26933 87.7742 2.056 87.9449 1.896C88.1262 1.72533 88.3662 1.64 88.6649 1.64ZM85.7049 11.576C86.3449 11.576 86.8355 11.3573 87.1769 10.92C87.5289 10.4827 87.7049 9.85867 87.7049 9.048C87.7049 8.23733 87.5289 7.61867 87.1769 7.192C86.8355 6.75467 86.3502 6.536 85.7209 6.536C85.0809 6.536 84.5849 6.74933 84.2329 7.176C83.8809 7.60267 83.7049 8.216 83.7049 9.016C83.7049 9.82667 83.8809 10.456 84.2329 10.904C84.5849 11.352 85.0755 11.576 85.7049 11.576Z" fill="black"/>
</svg>
