<svg width="148" height="16" viewBox="0 0 148 16" fill="none" xmlns="http://www.w3.org/2000/svg">
<path d="M5.67 14.144C4.758 14.144 3.888 14.018 3.06 13.766C2.244 13.514 1.59 13.166 1.098 12.722C0.87 12.53 0.756 12.284 0.756 11.984C0.756 11.768 0.816 11.588 0.936 11.444C1.056 11.288 1.2 11.21 1.368 11.21C1.536 11.21 1.74 11.288 1.98 11.444C3.048 12.236 4.266 12.632 5.634 12.632C6.594 12.632 7.332 12.452 7.848 12.092C8.364 11.732 8.622 11.216 8.622 10.544C8.622 10.016 8.382 9.62 7.902 9.356C7.422 9.092 6.654 8.84 5.598 8.6C4.59 8.384 3.762 8.138 3.114 7.862C2.466 7.586 1.956 7.214 1.584 6.746C1.224 6.266 1.044 5.66 1.044 4.928C1.044 4.196 1.242 3.548 1.638 2.984C2.046 2.408 2.61 1.964 3.33 1.652C4.05 1.328 4.872 1.166 5.796 1.166C6.648 1.166 7.434 1.286 8.154 1.526C8.874 1.766 9.486 2.12 9.99 2.588C10.23 2.792 10.35 3.038 10.35 3.326C10.35 3.53 10.284 3.71 10.152 3.866C10.032 4.022 9.888 4.1 9.72 4.1C9.564 4.1 9.366 4.022 9.126 3.866C8.574 3.446 8.052 3.146 7.56 2.966C7.08 2.774 6.498 2.678 5.814 2.678C4.89 2.678 4.17 2.87 3.654 3.254C3.138 3.626 2.88 4.148 2.88 4.82C2.88 5.396 3.108 5.834 3.564 6.134C4.02 6.422 4.752 6.686 5.76 6.926C6.816 7.166 7.668 7.418 8.316 7.682C8.976 7.934 9.498 8.288 9.882 8.744C10.278 9.188 10.476 9.764 10.476 10.472C10.476 11.192 10.272 11.834 9.864 12.398C9.468 12.95 8.904 13.382 8.172 13.694C7.452 13.994 6.618 14.144 5.67 14.144ZM19.3762 5.036C19.6522 5.036 19.8682 5.114 20.0242 5.27C20.1922 5.426 20.2762 5.642 20.2762 5.918V13.244C20.2762 13.496 20.1922 13.7 20.0242 13.856C19.8562 14.012 19.6342 14.09 19.3582 14.09C19.1062 14.09 18.9022 14.018 18.7462 13.874C18.5902 13.718 18.5122 13.514 18.5122 13.262V12.578C18.2362 13.082 17.8522 13.466 17.3602 13.73C16.8802 13.994 16.3402 14.126 15.7402 14.126C13.6042 14.126 12.5362 12.95 12.5362 10.598V5.918C12.5362 5.642 12.6142 5.426 12.7702 5.27C12.9382 5.114 13.1662 5.036 13.4542 5.036C13.7302 5.036 13.9462 5.114 14.1022 5.27C14.2702 5.426 14.3542 5.642 14.3542 5.918V10.58C14.3542 11.288 14.4982 11.81 14.7862 12.146C15.0742 12.482 15.5182 12.65 16.1182 12.65C16.8262 12.65 17.3902 12.422 17.8102 11.966C18.2422 11.51 18.4582 10.904 18.4582 10.148V5.918C18.4582 5.654 18.5422 5.444 18.7102 5.288C18.8782 5.12 19.1002 5.036 19.3762 5.036ZM27.5632 5C28.3312 5 29.0092 5.186 29.5972 5.558C30.1852 5.93 30.6412 6.458 30.9652 7.142C31.3012 7.826 31.4692 8.624 31.4692 9.536C31.4692 10.436 31.3012 11.234 30.9652 11.93C30.6412 12.626 30.1792 13.166 29.5792 13.55C28.9912 13.934 28.3192 14.126 27.5632 14.126C26.9032 14.126 26.3212 13.988 25.8172 13.712C25.3132 13.424 24.9292 13.016 24.6652 12.488V13.208C24.6652 13.472 24.5812 13.688 24.4132 13.856C24.2572 14.012 24.0412 14.09 23.7652 14.09C23.4892 14.09 23.2672 14.012 23.0992 13.856C22.9312 13.688 22.8472 13.472 22.8472 13.208V2.084C22.8472 1.82 22.9312 1.61 23.0992 1.454C23.2792 1.298 23.5072 1.22 23.7832 1.22C24.0472 1.22 24.2572 1.298 24.4132 1.454C24.5812 1.598 24.6652 1.796 24.6652 2.048V6.656C24.9292 6.128 25.3132 5.72 25.8172 5.432C26.3212 5.144 26.9032 5 27.5632 5ZM27.1312 12.686C27.9112 12.686 28.5172 12.41 28.9492 11.858C29.3932 11.306 29.6152 10.532 29.6152 9.536C29.6152 8.552 29.3992 7.796 28.9672 7.268C28.5352 6.728 27.9232 6.458 27.1312 6.458C26.3392 6.458 25.7272 6.728 25.2952 7.268C24.8752 7.808 24.6652 8.576 24.6652 9.572C24.6652 10.568 24.8752 11.336 25.2952 11.876C25.7272 12.416 26.3392 12.686 27.1312 12.686ZM37.7758 12.704C38.0398 12.728 38.2258 12.8 38.3338 12.92C38.4538 13.028 38.5138 13.184 38.5138 13.388C38.5138 13.628 38.4178 13.814 38.2258 13.946C38.0458 14.066 37.7758 14.114 37.4158 14.09L36.9298 14.054C35.9578 13.982 35.2318 13.688 34.7518 13.172C34.2718 12.644 34.0318 11.87 34.0318 10.85V6.62H32.9518C32.4238 6.62 32.1598 6.386 32.1598 5.918C32.1598 5.702 32.2258 5.534 32.3578 5.414C32.5018 5.282 32.6998 5.216 32.9518 5.216H34.0318V3.362C34.0318 3.086 34.1098 2.87 34.2658 2.714C34.4338 2.558 34.6558 2.48 34.9318 2.48C35.2078 2.48 35.4298 2.558 35.5978 2.714C35.7658 2.87 35.8498 3.086 35.8498 3.362V5.216H37.6318C37.8838 5.216 38.0758 5.282 38.2078 5.414C38.3518 5.534 38.4238 5.702 38.4238 5.918C38.4238 6.146 38.3518 6.32 38.2078 6.44C38.0758 6.56 37.8838 6.62 37.6318 6.62H35.8498V10.976C35.8498 11.54 35.9638 11.954 36.1918 12.218C36.4318 12.482 36.7918 12.632 37.2718 12.668L37.7758 12.704ZM40.7645 14.09C40.5005 14.09 40.2785 14.018 40.0985 13.874C39.9305 13.73 39.8465 13.514 39.8465 13.226V5.918C39.8465 5.63 39.9305 5.414 40.0985 5.27C40.2785 5.114 40.5005 5.036 40.7645 5.036C41.0285 5.036 41.2445 5.114 41.4125 5.27C41.5805 5.414 41.6645 5.63 41.6645 5.918V13.226C41.6645 13.514 41.5805 13.73 41.4125 13.874C41.2445 14.018 41.0285 14.09 40.7645 14.09ZM40.7645 3.272C40.4165 3.272 40.1405 3.176 39.9365 2.984C39.7325 2.792 39.6305 2.54 39.6305 2.228C39.6305 1.916 39.7325 1.67 39.9365 1.49C40.1405 1.298 40.4165 1.202 40.7645 1.202C41.1005 1.202 41.3705 1.298 41.5745 1.49C41.7905 1.67 41.8985 1.916 41.8985 2.228C41.8985 2.54 41.7965 2.792 41.5925 2.984C41.3885 3.176 41.1125 3.272 40.7645 3.272ZM48.781 12.704C49.045 12.728 49.231 12.8 49.339 12.92C49.459 13.028 49.519 13.184 49.519 13.388C49.519 13.628 49.423 13.814 49.231 13.946C49.051 14.066 48.781 14.114 48.421 14.09L47.935 14.054C46.963 13.982 46.237 13.688 45.757 13.172C45.277 12.644 45.037 11.87 45.037 10.85V6.62H43.957C43.429 6.62 43.165 6.386 43.165 5.918C43.165 5.702 43.231 5.534 43.363 5.414C43.507 5.282 43.705 5.216 43.957 5.216H45.037V3.362C45.037 3.086 45.115 2.87 45.271 2.714C45.439 2.558 45.661 2.48 45.937 2.48C46.213 2.48 46.435 2.558 46.603 2.714C46.771 2.87 46.855 3.086 46.855 3.362V5.216H48.637C48.889 5.216 49.081 5.282 49.213 5.414C49.357 5.534 49.429 5.702 49.429 5.918C49.429 6.146 49.357 6.32 49.213 6.44C49.081 6.56 48.889 6.62 48.637 6.62H46.855V10.976C46.855 11.54 46.969 11.954 47.197 12.218C47.437 12.482 47.797 12.632 48.277 12.668L48.781 12.704ZM51.7697 14.09C51.5057 14.09 51.2837 14.018 51.1037 13.874C50.9357 13.73 50.8517 13.514 50.8517 13.226V2.102C50.8517 1.814 50.9357 1.598 51.1037 1.454C51.2837 1.298 51.5057 1.22 51.7697 1.22C52.0337 1.22 52.2497 1.298 52.4177 1.454C52.5857 1.598 52.6697 1.814 52.6697 2.102V13.226C52.6697 13.514 52.5857 13.73 52.4177 13.874C52.2497 14.018 52.0337 14.09 51.7697 14.09ZM62.1141 11.786C62.2821 11.786 62.4201 11.852 62.5281 11.984C62.6361 12.116 62.6901 12.284 62.6901 12.488C62.6901 12.836 62.4741 13.13 62.0421 13.37C61.6221 13.61 61.1601 13.796 60.6561 13.928C60.1641 14.06 59.6901 14.126 59.2341 14.126C57.8421 14.126 56.7441 13.724 55.9401 12.92C55.1361 12.104 54.7341 10.994 54.7341 9.59C54.7341 8.69 54.9081 7.892 55.2561 7.196C55.6161 6.5 56.1141 5.96 56.7501 5.576C57.3981 5.192 58.1301 5 58.9461 5C60.1221 5 61.0521 5.378 61.7361 6.134C62.4201 6.89 62.7621 7.91 62.7621 9.194C62.7621 9.674 62.5461 9.914 62.1141 9.914H56.5521C56.6721 11.774 57.5661 12.704 59.2341 12.704C59.6781 12.704 60.0621 12.644 60.3861 12.524C60.7101 12.404 61.0521 12.248 61.4121 12.056C61.4481 12.032 61.5441 11.984 61.7001 11.912C61.8681 11.828 62.0061 11.786 62.1141 11.786ZM58.9821 6.332C58.2861 6.332 57.7281 6.554 57.3081 6.998C56.8881 7.442 56.6361 8.066 56.5521 8.87H61.1961C61.1601 8.054 60.9501 7.43 60.5661 6.998C60.1941 6.554 59.6661 6.332 58.9821 6.332ZM64.9686 14.63C64.9086 14.822 64.8126 14.96 64.6806 15.044C64.5486 15.14 64.4046 15.188 64.2486 15.188C64.0446 15.188 63.8646 15.122 63.7086 14.99C63.5526 14.858 63.4746 14.684 63.4746 14.468C63.4746 14.384 63.4926 14.288 63.5286 14.18L67.7406 0.985999C67.8006 0.793999 67.8966 0.655999 68.0286 0.571999C68.1606 0.476 68.3046 0.428 68.4606 0.428C68.6646 0.428 68.8446 0.494 69.0006 0.625999C69.1566 0.757999 69.2346 0.931999 69.2346 1.148C69.2346 1.232 69.2166 1.328 69.1806 1.436L64.9686 14.63ZM74.7138 14.144C73.8018 14.144 72.9318 14.018 72.1038 13.766C71.2878 13.514 70.6338 13.166 70.1418 12.722C69.9138 12.53 69.7998 12.284 69.7998 11.984C69.7998 11.768 69.8598 11.588 69.9798 11.444C70.0998 11.288 70.2438 11.21 70.4118 11.21C70.5798 11.21 70.7838 11.288 71.0238 11.444C72.0918 12.236 73.3098 12.632 74.6778 12.632C75.6378 12.632 76.3758 12.452 76.8918 12.092C77.4078 11.732 77.6658 11.216 77.6658 10.544C77.6658 10.016 77.4258 9.62 76.9458 9.356C76.4658 9.092 75.6978 8.84 74.6418 8.6C73.6338 8.384 72.8058 8.138 72.1578 7.862C71.5098 7.586 70.9998 7.214 70.6278 6.746C70.2678 6.266 70.0878 5.66 70.0878 4.928C70.0878 4.196 70.2858 3.548 70.6818 2.984C71.0898 2.408 71.6538 1.964 72.3738 1.652C73.0938 1.328 73.9158 1.166 74.8398 1.166C75.6918 1.166 76.4778 1.286 77.1978 1.526C77.9178 1.766 78.5298 2.12 79.0338 2.588C79.2738 2.792 79.3938 3.038 79.3938 3.326C79.3938 3.53 79.3278 3.71 79.1958 3.866C79.0758 4.022 78.9318 4.1 78.7638 4.1C78.6078 4.1 78.4098 4.022 78.1698 3.866C77.6178 3.446 77.0958 3.146 76.6038 2.966C76.1238 2.774 75.5418 2.678 74.8578 2.678C73.9338 2.678 73.2138 2.87 72.6978 3.254C72.1818 3.626 71.9238 4.148 71.9238 4.82C71.9238 5.396 72.1518 5.834 72.6078 6.134C73.0638 6.422 73.7958 6.686 74.8038 6.926C75.8598 7.166 76.7118 7.418 77.3598 7.682C78.0198 7.934 78.5418 8.288 78.9258 8.744C79.3218 9.188 79.5198 9.764 79.5198 10.472C79.5198 11.192 79.3158 11.834 78.9078 12.398C78.5118 12.95 77.9478 13.382 77.2158 13.694C76.4958 13.994 75.6618 14.144 74.7138 14.144ZM88.4199 5.036C88.6959 5.036 88.9119 5.114 89.0679 5.27C89.2359 5.426 89.3199 5.642 89.3199 5.918V13.244C89.3199 13.496 89.2359 13.7 89.0679 13.856C88.8999 14.012 88.6779 14.09 88.4019 14.09C88.1499 14.09 87.9459 14.018 87.7899 13.874C87.6339 13.718 87.5559 13.514 87.5559 13.262V12.578C87.2799 13.082 86.8959 13.466 86.4039 13.73C85.9239 13.994 85.3839 14.126 84.7839 14.126C82.6479 14.126 81.5799 12.95 81.5799 10.598V5.918C81.5799 5.642 81.6579 5.426 81.8139 5.27C81.9819 5.114 82.2099 5.036 82.4979 5.036C82.7739 5.036 82.9899 5.114 83.1459 5.27C83.3139 5.426 83.3979 5.642 83.3979 5.918V10.58C83.3979 11.288 83.5419 11.81 83.8299 12.146C84.1179 12.482 84.5619 12.65 85.1619 12.65C85.8699 12.65 86.4339 12.422 86.8539 11.966C87.2859 11.51 87.5019 10.904 87.5019 10.148V5.918C87.5019 5.654 87.5859 5.444 87.7539 5.288C87.9219 5.12 88.1439 5.036 88.4199 5.036ZM96.607 5C97.375 5 98.053 5.186 98.641 5.558C99.229 5.93 99.685 6.458 100.009 7.142C100.345 7.826 100.513 8.624 100.513 9.536C100.513 10.436 100.345 11.234 100.009 11.93C99.685 12.626 99.223 13.166 98.623 13.55C98.035 13.934 97.363 14.126 96.607 14.126C95.947 14.126 95.365 13.988 94.861 13.712C94.357 13.424 93.973 13.016 93.709 12.488V13.208C93.709 13.472 93.625 13.688 93.457 13.856C93.301 14.012 93.085 14.09 92.809 14.09C92.533 14.09 92.311 14.012 92.143 13.856C91.975 13.688 91.891 13.472 91.891 13.208V2.084C91.891 1.82 91.975 1.61 92.143 1.454C92.323 1.298 92.551 1.22 92.827 1.22C93.091 1.22 93.301 1.298 93.457 1.454C93.625 1.598 93.709 1.796 93.709 2.048V6.656C93.973 6.128 94.357 5.72 94.861 5.432C95.365 5.144 95.947 5 96.607 5ZM96.175 12.686C96.955 12.686 97.561 12.41 97.993 11.858C98.437 11.306 98.659 10.532 98.659 9.536C98.659 8.552 98.443 7.796 98.011 7.268C97.579 6.728 96.967 6.458 96.175 6.458C95.383 6.458 94.771 6.728 94.339 7.268C93.919 7.808 93.709 8.576 93.709 9.572C93.709 10.568 93.919 11.336 94.339 11.876C94.771 12.416 95.383 12.686 96.175 12.686ZM106.82 12.704C107.084 12.728 107.27 12.8 107.378 12.92C107.498 13.028 107.558 13.184 107.558 13.388C107.558 13.628 107.462 13.814 107.27 13.946C107.09 14.066 106.82 14.114 106.46 14.09L105.974 14.054C105.002 13.982 104.276 13.688 103.796 13.172C103.316 12.644 103.076 11.87 103.076 10.85V6.62H101.996C101.468 6.62 101.204 6.386 101.204 5.918C101.204 5.702 101.27 5.534 101.402 5.414C101.546 5.282 101.744 5.216 101.996 5.216H103.076V3.362C103.076 3.086 103.154 2.87 103.31 2.714C103.478 2.558 103.7 2.48 103.976 2.48C104.252 2.48 104.474 2.558 104.642 2.714C104.81 2.87 104.894 3.086 104.894 3.362V5.216H106.676C106.928 5.216 107.12 5.282 107.252 5.414C107.396 5.534 107.468 5.702 107.468 5.918C107.468 6.146 107.396 6.32 107.252 6.44C107.12 6.56 106.928 6.62 106.676 6.62H104.894V10.976C104.894 11.54 105.008 11.954 105.236 12.218C105.476 12.482 105.836 12.632 106.316 12.668L106.82 12.704ZM109.808 14.09C109.544 14.09 109.322 14.018 109.142 13.874C108.974 13.73 108.89 13.514 108.89 13.226V5.918C108.89 5.63 108.974 5.414 109.142 5.27C109.322 5.114 109.544 5.036 109.808 5.036C110.072 5.036 110.288 5.114 110.456 5.27C110.624 5.414 110.708 5.63 110.708 5.918V13.226C110.708 13.514 110.624 13.73 110.456 13.874C110.288 14.018 110.072 14.09 109.808 14.09ZM109.808 3.272C109.46 3.272 109.184 3.176 108.98 2.984C108.776 2.792 108.674 2.54 108.674 2.228C108.674 1.916 108.776 1.67 108.98 1.49C109.184 1.298 109.46 1.202 109.808 1.202C110.144 1.202 110.414 1.298 110.618 1.49C110.834 1.67 110.942 1.916 110.942 2.228C110.942 2.54 110.84 2.792 110.636 2.984C110.432 3.176 110.156 3.272 109.808 3.272ZM117.825 12.704C118.089 12.728 118.275 12.8 118.383 12.92C118.503 13.028 118.563 13.184 118.563 13.388C118.563 13.628 118.467 13.814 118.275 13.946C118.095 14.066 117.825 14.114 117.465 14.09L116.979 14.054C116.007 13.982 115.281 13.688 114.801 13.172C114.321 12.644 114.081 11.87 114.081 10.85V6.62H113.001C112.473 6.62 112.209 6.386 112.209 5.918C112.209 5.702 112.275 5.534 112.407 5.414C112.551 5.282 112.749 5.216 113.001 5.216H114.081V3.362C114.081 3.086 114.159 2.87 114.315 2.714C114.483 2.558 114.705 2.48 114.981 2.48C115.257 2.48 115.479 2.558 115.647 2.714C115.815 2.87 115.899 3.086 115.899 3.362V5.216H117.681C117.933 5.216 118.125 5.282 118.257 5.414C118.401 5.534 118.473 5.702 118.473 5.918C118.473 6.146 118.401 6.32 118.257 6.44C118.125 6.56 117.933 6.62 117.681 6.62H115.899V10.976C115.899 11.54 116.013 11.954 116.241 12.218C116.481 12.482 116.841 12.632 117.321 12.668L117.825 12.704ZM120.813 14.09C120.549 14.09 120.327 14.018 120.147 13.874C119.979 13.73 119.895 13.514 119.895 13.226V2.102C119.895 1.814 119.979 1.598 120.147 1.454C120.327 1.298 120.549 1.22 120.813 1.22C121.077 1.22 121.293 1.298 121.461 1.454C121.629 1.598 121.713 1.814 121.713 2.102V13.226C121.713 13.514 121.629 13.73 121.461 13.874C121.293 14.018 121.077 14.09 120.813 14.09ZM131.158 11.786C131.326 11.786 131.464 11.852 131.572 11.984C131.68 12.116 131.734 12.284 131.734 12.488C131.734 12.836 131.518 13.13 131.086 13.37C130.666 13.61 130.204 13.796 129.7 13.928C129.208 14.06 128.734 14.126 128.278 14.126C126.886 14.126 125.788 13.724 124.984 12.92C124.18 12.104 123.778 10.994 123.778 9.59C123.778 8.69 123.952 7.892 124.3 7.196C124.66 6.5 125.158 5.96 125.794 5.576C126.442 5.192 127.174 5 127.99 5C129.166 5 130.096 5.378 130.78 6.134C131.464 6.89 131.806 7.91 131.806 9.194C131.806 9.674 131.59 9.914 131.158 9.914H125.596C125.716 11.774 126.61 12.704 128.278 12.704C128.722 12.704 129.106 12.644 129.43 12.524C129.754 12.404 130.096 12.248 130.456 12.056C130.492 12.032 130.588 11.984 130.744 11.912C130.912 11.828 131.05 11.786 131.158 11.786ZM128.026 6.332C127.33 6.332 126.772 6.554 126.352 6.998C125.932 7.442 125.68 8.066 125.596 8.87H130.24C130.204 8.054 129.994 7.43 129.61 6.998C129.238 6.554 128.71 6.332 128.026 6.332ZM146.277 12.47C146.565 12.47 146.781 12.536 146.925 12.668C147.069 12.8 147.141 12.986 147.141 13.226C147.141 13.742 146.853 14 146.277 14H140.265C139.677 14 139.383 13.742 139.383 13.226C139.383 12.986 139.455 12.8 139.599 12.668C139.755 12.536 139.977 12.47 140.265 12.47H142.335V3.488L140.481 4.658C140.361 4.73 140.241 4.766 140.121 4.766C139.917 4.766 139.737 4.676 139.581 4.496C139.437 4.316 139.365 4.112 139.365 3.884C139.365 3.608 139.485 3.392 139.725 3.236L142.497 1.472C142.773 1.304 143.037 1.22 143.289 1.22C143.553 1.22 143.769 1.304 143.937 1.472C144.105 1.64 144.189 1.868 144.189 2.156V12.47H146.277Z" fill="black"/>
</svg>
