<svg width="80" height="12" viewBox="0 0 80 12" fill="none" xmlns="http://www.w3.org/2000/svg">
<path d="M4.246 9.088C3.51267 9.088 2.87833 8.93033 2.343 8.615C1.80767 8.29233 1.39333 7.834 1.1 7.24C0.814 6.63867 0.671 5.931 0.671 5.117C0.671 4.31033 0.814 3.61 1.1 3.016C1.39333 2.41467 1.80767 1.95633 2.343 1.641C2.87833 1.31833 3.51267 1.157 4.246 1.157C4.73733 1.157 5.19933 1.23767 5.632 1.399C6.072 1.553 6.45333 1.77667 6.776 2.07C6.89333 2.18 6.952 2.30833 6.952 2.455C6.952 2.55767 6.92267 2.64933 6.864 2.73C6.80533 2.80333 6.73567 2.84 6.655 2.84C6.567 2.84 6.46067 2.79967 6.336 2.719C5.962 2.42567 5.621 2.22033 5.313 2.103C5.01233 1.98567 4.664 1.927 4.268 1.927C3.41733 1.927 2.761 2.20567 2.299 2.763C1.84433 3.313 1.617 4.09767 1.617 5.117C1.617 6.14367 1.84433 6.93567 2.299 7.493C2.761 8.043 3.41733 8.318 4.268 8.318C4.65667 8.318 5.005 8.25933 5.313 8.142C5.621 8.02467 5.962 7.81933 6.336 7.526C6.46067 7.44533 6.567 7.405 6.655 7.405C6.73567 7.405 6.80533 7.44167 6.864 7.515C6.92267 7.58833 6.952 7.68 6.952 7.79C6.952 7.93667 6.89333 8.065 6.776 8.175C6.45333 8.46833 6.072 8.69567 5.632 8.857C5.19933 9.011 4.73733 9.088 4.246 9.088ZM10.3949 3.511C11.7369 3.511 12.4079 4.215 12.4079 5.623V8.615C12.4079 8.747 12.3676 8.85333 12.2869 8.934C12.2136 9.01467 12.1109 9.055 11.9789 9.055C11.8469 9.055 11.7406 9.01467 11.6599 8.934C11.5792 8.85333 11.5389 8.747 11.5389 8.615V8.087C11.3996 8.40233 11.1869 8.648 10.9009 8.824C10.6149 8.99267 10.2849 9.077 9.91091 9.077C9.56625 9.077 9.24725 9.00733 8.95391 8.868C8.66791 8.72867 8.44058 8.53433 8.27191 8.285C8.10325 8.03567 8.01891 7.76067 8.01891 7.46C8.01891 7.05667 8.12158 6.745 8.32691 6.525C8.53225 6.29767 8.86958 6.13633 9.33891 6.041C9.80825 5.93833 10.4609 5.887 11.2969 5.887H11.5389V5.524C11.5389 5.084 11.4472 4.76133 11.2639 4.556C11.0879 4.35067 10.7982 4.248 10.3949 4.248C9.89625 4.248 9.39025 4.38367 8.87691 4.655C8.67891 4.77967 8.53958 4.842 8.45891 4.842C8.37091 4.842 8.29758 4.809 8.23891 4.743C8.18025 4.677 8.15091 4.59267 8.15091 4.49C8.15091 4.38733 8.18025 4.29933 8.23891 4.226C8.30491 4.14533 8.40758 4.06467 8.54691 3.984C8.80358 3.83733 9.09325 3.72367 9.41591 3.643C9.74591 3.555 10.0722 3.511 10.3949 3.511ZM10.0319 8.373C10.4719 8.373 10.8312 8.22633 11.1099 7.933C11.3959 7.63233 11.5389 7.24733 11.5389 6.778V6.459H11.3409C10.6956 6.459 10.2042 6.48833 9.86691 6.547C9.52958 6.59833 9.28758 6.69 9.14091 6.822C9.00158 6.94667 8.93191 7.13367 8.93191 7.383C8.93191 7.669 9.03458 7.90733 9.23991 8.098C9.45258 8.28133 9.71658 8.373 10.0319 8.373ZM16.7779 3.511C17.2473 3.511 17.6616 3.62833 18.0209 3.863C18.3803 4.09767 18.6589 4.42767 18.8569 4.853C19.0549 5.271 19.1539 5.75867 19.1539 6.316C19.1539 6.87333 19.0549 7.361 18.8569 7.779C18.6589 8.18967 18.3803 8.50867 18.0209 8.736C17.6689 8.96333 17.2546 9.077 16.7779 9.077C16.3599 9.077 15.9933 8.98533 15.6779 8.802C15.3699 8.61867 15.1353 8.35833 14.9739 8.021V10.606C14.9739 10.738 14.9336 10.8407 14.8529 10.914C14.7796 10.9947 14.6733 11.035 14.5339 11.035C14.3946 11.035 14.2846 10.9947 14.2039 10.914C14.1233 10.8333 14.0829 10.7307 14.0829 10.606V3.973C14.0829 3.841 14.1233 3.73467 14.2039 3.654C14.2846 3.57333 14.3946 3.533 14.5339 3.533C14.6733 3.533 14.7796 3.57333 14.8529 3.654C14.9336 3.73467 14.9739 3.841 14.9739 3.973V4.567C15.1353 4.22967 15.3699 3.96933 15.6779 3.786C15.9933 3.60267 16.3599 3.511 16.7779 3.511ZM16.6019 8.34C17.1226 8.34 17.5259 8.164 17.8119 7.812C18.0979 7.46 18.2409 6.96133 18.2409 6.316C18.2409 5.67067 18.0979 5.16833 17.8119 4.809C17.5259 4.44233 17.1226 4.259 16.6019 4.259C16.0813 4.259 15.6779 4.435 15.3919 4.787C15.1133 5.139 14.9739 5.64133 14.9739 6.294C14.9739 6.94667 15.1133 7.45267 15.3919 7.812C15.6779 8.164 16.0813 8.34 16.6019 8.34ZM22.9935 8.351C23.2502 8.373 23.3785 8.49033 23.3785 8.703C23.3785 8.82767 23.3309 8.923 23.2355 8.989C23.1475 9.04767 23.0119 9.06967 22.8285 9.055L22.5315 9.033C21.9449 8.989 21.5122 8.813 21.2335 8.505C20.9549 8.197 20.8155 7.73133 20.8155 7.108V4.347H20.0785C19.9539 4.347 19.8549 4.31767 19.7815 4.259C19.7155 4.193 19.6825 4.10867 19.6825 4.006C19.6825 3.896 19.7155 3.808 19.7815 3.742C19.8549 3.676 19.9539 3.643 20.0785 3.643H20.8155V2.4C20.8155 2.26067 20.8559 2.15433 20.9365 2.081C21.0172 2.00033 21.1272 1.96 21.2665 1.96C21.3985 1.96 21.5049 2.00033 21.5855 2.081C21.6662 2.15433 21.7065 2.26067 21.7065 2.4V3.643H22.9275C23.0449 3.643 23.1365 3.676 23.2025 3.742C23.2759 3.808 23.3125 3.896 23.3125 4.006C23.3125 4.10867 23.2759 4.193 23.2025 4.259C23.1365 4.31767 23.0449 4.347 22.9275 4.347H21.7065V7.152C21.7065 7.55533 21.7872 7.84867 21.9485 8.032C22.1172 8.208 22.3665 8.307 22.6965 8.329L22.9935 8.351ZM24.7518 9.055C24.6198 9.055 24.5098 9.01833 24.4218 8.945C24.3411 8.86433 24.3008 8.75433 24.3008 8.615V3.973C24.3008 3.83367 24.3411 3.72733 24.4218 3.654C24.5098 3.57333 24.6198 3.533 24.7518 3.533C24.8838 3.533 24.9901 3.57333 25.0708 3.654C25.1515 3.72733 25.1918 3.83367 25.1918 3.973V8.615C25.1918 8.76167 25.1515 8.87167 25.0708 8.945C24.9901 9.01833 24.8838 9.055 24.7518 9.055ZM24.7518 2.378C24.5758 2.378 24.4328 2.32667 24.3228 2.224C24.2128 2.12133 24.1578 1.98567 24.1578 1.817C24.1578 1.65567 24.2128 1.52367 24.3228 1.421C24.4328 1.31833 24.5758 1.267 24.7518 1.267C24.9278 1.267 25.0708 1.31833 25.1808 1.421C25.2908 1.52367 25.3458 1.65567 25.3458 1.817C25.3458 1.98567 25.2908 2.12133 25.1808 2.224C25.0708 2.32667 24.9278 2.378 24.7518 2.378ZM29.1234 9.077C28.6174 9.077 28.1701 8.96333 27.7814 8.736C27.4001 8.50867 27.1031 8.186 26.8904 7.768C26.6851 7.34267 26.5824 6.85133 26.5824 6.294C26.5824 5.73667 26.6851 5.249 26.8904 4.831C27.1031 4.40567 27.4001 4.07933 27.7814 3.852C28.1701 3.62467 28.6174 3.511 29.1234 3.511C29.6294 3.511 30.0768 3.62467 30.4654 3.852C30.8541 4.07933 31.1511 4.40567 31.3564 4.831C31.5691 5.249 31.6754 5.73667 31.6754 6.294C31.6754 6.85133 31.5691 7.34267 31.3564 7.768C31.1511 8.186 30.8541 8.50867 30.4654 8.736C30.0768 8.96333 29.6294 9.077 29.1234 9.077ZM29.1234 8.34C29.6514 8.34 30.0548 8.16767 30.3334 7.823C30.6194 7.471 30.7624 6.96133 30.7624 6.294C30.7624 5.64133 30.6194 5.139 30.3334 4.787C30.0474 4.42767 29.6441 4.248 29.1234 4.248C28.6028 4.248 28.1994 4.42767 27.9134 4.787C27.6274 5.139 27.4844 5.64133 27.4844 6.294C27.4844 6.954 27.6238 7.46 27.9024 7.812C28.1884 8.164 28.5954 8.34 29.1234 8.34ZM35.742 3.511C37.0253 3.511 37.667 4.21867 37.667 5.634V8.615C37.667 8.75433 37.6267 8.86433 37.546 8.945C37.4727 9.01833 37.3663 9.055 37.227 9.055C37.0877 9.055 36.9777 9.01833 36.897 8.945C36.8163 8.86433 36.776 8.75433 36.776 8.615V5.689C36.776 5.19033 36.677 4.82733 36.479 4.6C36.2883 4.37267 35.9803 4.259 35.555 4.259C35.0637 4.259 34.6713 4.40933 34.378 4.71C34.0847 5.01067 33.938 5.41767 33.938 5.931V8.615C33.938 8.75433 33.8977 8.86433 33.817 8.945C33.7437 9.01833 33.6373 9.055 33.498 9.055C33.3587 9.055 33.2487 9.01833 33.168 8.945C33.0873 8.86433 33.047 8.75433 33.047 8.615V3.973C33.047 3.841 33.0873 3.73467 33.168 3.654C33.2487 3.57333 33.3587 3.533 33.498 3.533C33.63 3.533 33.7327 3.57333 33.806 3.654C33.8867 3.73467 33.927 3.83733 33.927 3.962V4.523C34.103 4.193 34.3487 3.94367 34.664 3.775C34.9793 3.599 35.3387 3.511 35.742 3.511ZM39.134 9.396C39.1046 9.49133 39.057 9.56467 38.991 9.616C38.925 9.66733 38.8516 9.693 38.771 9.693C38.6683 9.693 38.5766 9.65633 38.496 9.583C38.4153 9.50967 38.375 9.418 38.375 9.308C38.375 9.264 38.386 9.21267 38.408 9.154L41.004 1.036C41.0333 0.940666 41.081 0.867333 41.147 0.816C41.213 0.764666 41.2863 0.738999 41.367 0.738999C41.4696 0.738999 41.5613 0.775666 41.642 0.848999C41.7226 0.922333 41.763 1.01767 41.763 1.135C41.763 1.157 41.7556 1.20467 41.741 1.278L39.134 9.396ZM45.8158 9.088C45.0824 9.088 44.4481 8.93033 43.9128 8.615C43.3774 8.29233 42.9631 7.834 42.6698 7.24C42.3838 6.63867 42.2408 5.931 42.2408 5.117C42.2408 4.31033 42.3838 3.61 42.6698 3.016C42.9631 2.41467 43.3774 1.95633 43.9128 1.641C44.4481 1.31833 45.0824 1.157 45.8158 1.157C46.3071 1.157 46.7691 1.23767 47.2018 1.399C47.6418 1.553 48.0231 1.77667 48.3458 2.07C48.4631 2.18 48.5218 2.30833 48.5218 2.455C48.5218 2.55767 48.4924 2.64933 48.4338 2.73C48.3751 2.80333 48.3054 2.84 48.2248 2.84C48.1368 2.84 48.0304 2.79967 47.9058 2.719C47.5318 2.42567 47.1908 2.22033 46.8828 2.103C46.5821 1.98567 46.2338 1.927 45.8378 1.927C44.9871 1.927 44.3308 2.20567 43.8688 2.763C43.4141 3.313 43.1868 4.09767 43.1868 5.117C43.1868 6.14367 43.4141 6.93567 43.8688 7.493C44.3308 8.043 44.9871 8.318 45.8378 8.318C46.2264 8.318 46.5748 8.25933 46.8828 8.142C47.1908 8.02467 47.5318 7.81933 47.9058 7.526C48.0304 7.44533 48.1368 7.405 48.2248 7.405C48.3054 7.405 48.3751 7.44167 48.4338 7.515C48.4924 7.58833 48.5218 7.68 48.5218 7.79C48.5218 7.93667 48.4631 8.065 48.3458 8.175C48.0231 8.46833 47.6418 8.69567 47.2018 8.857C46.7691 9.011 46.3071 9.088 45.8158 9.088ZM51.9647 3.511C53.3067 3.511 53.9777 4.215 53.9777 5.623V8.615C53.9777 8.747 53.9374 8.85333 53.8567 8.934C53.7834 9.01467 53.6807 9.055 53.5487 9.055C53.4167 9.055 53.3104 9.01467 53.2297 8.934C53.149 8.85333 53.1087 8.747 53.1087 8.615V8.087C52.9694 8.40233 52.7567 8.648 52.4707 8.824C52.1847 8.99267 51.8547 9.077 51.4807 9.077C51.136 9.077 50.817 9.00733 50.5237 8.868C50.2377 8.72867 50.0104 8.53433 49.8417 8.285C49.673 8.03567 49.5887 7.76067 49.5887 7.46C49.5887 7.05667 49.6914 6.745 49.8967 6.525C50.102 6.29767 50.4394 6.13633 50.9087 6.041C51.378 5.93833 52.0307 5.887 52.8667 5.887H53.1087V5.524C53.1087 5.084 53.017 4.76133 52.8337 4.556C52.6577 4.35067 52.368 4.248 51.9647 4.248C51.466 4.248 50.96 4.38367 50.4467 4.655C50.2487 4.77967 50.1094 4.842 50.0287 4.842C49.9407 4.842 49.8674 4.809 49.8087 4.743C49.75 4.677 49.7207 4.59267 49.7207 4.49C49.7207 4.38733 49.75 4.29933 49.8087 4.226C49.8747 4.14533 49.9774 4.06467 50.1167 3.984C50.3734 3.83733 50.663 3.72367 50.9857 3.643C51.3157 3.555 51.642 3.511 51.9647 3.511ZM51.6017 8.373C52.0417 8.373 52.401 8.22633 52.6797 7.933C52.9657 7.63233 53.1087 7.24733 53.1087 6.778V6.459H52.9107C52.2654 6.459 51.774 6.48833 51.4367 6.547C51.0994 6.59833 50.8574 6.69 50.7107 6.822C50.5714 6.94667 50.5017 7.13367 50.5017 7.383C50.5017 7.669 50.6044 7.90733 50.8097 8.098C51.0224 8.28133 51.2864 8.373 51.6017 8.373ZM58.3477 3.511C58.817 3.511 59.2314 3.62833 59.5907 3.863C59.95 4.09767 60.2287 4.42767 60.4267 4.853C60.6247 5.271 60.7237 5.75867 60.7237 6.316C60.7237 6.87333 60.6247 7.361 60.4267 7.779C60.2287 8.18967 59.95 8.50867 59.5907 8.736C59.2387 8.96333 58.8244 9.077 58.3477 9.077C57.9297 9.077 57.563 8.98533 57.2477 8.802C56.9397 8.61867 56.705 8.35833 56.5437 8.021V10.606C56.5437 10.738 56.5034 10.8407 56.4227 10.914C56.3494 10.9947 56.243 11.035 56.1037 11.035C55.9644 11.035 55.8544 10.9947 55.7737 10.914C55.693 10.8333 55.6527 10.7307 55.6527 10.606V3.973C55.6527 3.841 55.693 3.73467 55.7737 3.654C55.8544 3.57333 55.9644 3.533 56.1037 3.533C56.243 3.533 56.3494 3.57333 56.4227 3.654C56.5034 3.73467 56.5437 3.841 56.5437 3.973V4.567C56.705 4.22967 56.9397 3.96933 57.2477 3.786C57.563 3.60267 57.9297 3.511 58.3477 3.511ZM58.1717 8.34C58.6924 8.34 59.0957 8.164 59.3817 7.812C59.6677 7.46 59.8107 6.96133 59.8107 6.316C59.8107 5.67067 59.6677 5.16833 59.3817 4.809C59.0957 4.44233 58.6924 4.259 58.1717 4.259C57.651 4.259 57.2477 4.435 56.9617 4.787C56.683 5.139 56.5437 5.64133 56.5437 6.294C56.5437 6.94667 56.683 7.45267 56.9617 7.812C57.2477 8.164 57.651 8.34 58.1717 8.34ZM64.5633 8.351C64.82 8.373 64.9483 8.49033 64.9483 8.703C64.9483 8.82767 64.9006 8.923 64.8053 8.989C64.7173 9.04767 64.5816 9.06967 64.3983 9.055L64.1013 9.033C63.5146 8.989 63.082 8.813 62.8033 8.505C62.5246 8.197 62.3853 7.73133 62.3853 7.108V4.347H61.6483C61.5236 4.347 61.4246 4.31767 61.3513 4.259C61.2853 4.193 61.2523 4.10867 61.2523 4.006C61.2523 3.896 61.2853 3.808 61.3513 3.742C61.4246 3.676 61.5236 3.643 61.6483 3.643H62.3853V2.4C62.3853 2.26067 62.4256 2.15433 62.5063 2.081C62.587 2.00033 62.697 1.96 62.8363 1.96C62.9683 1.96 63.0746 2.00033 63.1553 2.081C63.236 2.15433 63.2763 2.26067 63.2763 2.4V3.643H64.4973C64.6146 3.643 64.7063 3.676 64.7723 3.742C64.8456 3.808 64.8823 3.896 64.8823 4.006C64.8823 4.10867 64.8456 4.193 64.7723 4.259C64.7063 4.31767 64.6146 4.347 64.4973 4.347H63.2763V7.152C63.2763 7.55533 63.357 7.84867 63.5183 8.032C63.687 8.208 63.9363 8.307 64.2663 8.329L64.5633 8.351ZM66.3216 9.055C66.1896 9.055 66.0796 9.01833 65.9916 8.945C65.9109 8.86433 65.8706 8.75433 65.8706 8.615V3.973C65.8706 3.83367 65.9109 3.72733 65.9916 3.654C66.0796 3.57333 66.1896 3.533 66.3216 3.533C66.4536 3.533 66.5599 3.57333 66.6406 3.654C66.7212 3.72733 66.7616 3.83367 66.7616 3.973V8.615C66.7616 8.76167 66.7212 8.87167 66.6406 8.945C66.5599 9.01833 66.4536 9.055 66.3216 9.055ZM66.3216 2.378C66.1456 2.378 66.0026 2.32667 65.8926 2.224C65.7826 2.12133 65.7276 1.98567 65.7276 1.817C65.7276 1.65567 65.7826 1.52367 65.8926 1.421C66.0026 1.31833 66.1456 1.267 66.3216 1.267C66.4976 1.267 66.6406 1.31833 66.7506 1.421C66.8606 1.52367 66.9156 1.65567 66.9156 1.817C66.9156 1.98567 66.8606 2.12133 66.7506 2.224C66.6406 2.32667 66.4976 2.378 66.3216 2.378ZM70.6932 9.077C70.1872 9.077 69.7399 8.96333 69.3512 8.736C68.9699 8.50867 68.6729 8.186 68.4602 7.768C68.2549 7.34267 68.1522 6.85133 68.1522 6.294C68.1522 5.73667 68.2549 5.249 68.4602 4.831C68.6729 4.40567 68.9699 4.07933 69.3512 3.852C69.7399 3.62467 70.1872 3.511 70.6932 3.511C71.1992 3.511 71.6466 3.62467 72.0352 3.852C72.4239 4.07933 72.7209 4.40567 72.9262 4.831C73.1389 5.249 73.2452 5.73667 73.2452 6.294C73.2452 6.85133 73.1389 7.34267 72.9262 7.768C72.7209 8.186 72.4239 8.50867 72.0352 8.736C71.6466 8.96333 71.1992 9.077 70.6932 9.077ZM70.6932 8.34C71.2212 8.34 71.6246 8.16767 71.9032 7.823C72.1892 7.471 72.3322 6.96133 72.3322 6.294C72.3322 5.64133 72.1892 5.139 71.9032 4.787C71.6172 4.42767 71.2139 4.248 70.6932 4.248C70.1726 4.248 69.7692 4.42767 69.4832 4.787C69.1972 5.139 69.0542 5.64133 69.0542 6.294C69.0542 6.954 69.1936 7.46 69.4722 7.812C69.7582 8.164 70.1652 8.34 70.6932 8.34ZM77.3118 3.511C78.5951 3.511 79.2368 4.21867 79.2368 5.634V8.615C79.2368 8.75433 79.1964 8.86433 79.1158 8.945C79.0424 9.01833 78.9361 9.055 78.7968 9.055C78.6574 9.055 78.5474 9.01833 78.4668 8.945C78.3861 8.86433 78.3458 8.75433 78.3458 8.615V5.689C78.3458 5.19033 78.2468 4.82733 78.0488 4.6C77.8581 4.37267 77.5501 4.259 77.1248 4.259C76.6334 4.259 76.2411 4.40933 75.9478 4.71C75.6544 5.01067 75.5078 5.41767 75.5078 5.931V8.615C75.5078 8.75433 75.4674 8.86433 75.3868 8.945C75.3134 9.01833 75.2071 9.055 75.0678 9.055C74.9284 9.055 74.8184 9.01833 74.7378 8.945C74.6571 8.86433 74.6168 8.75433 74.6168 8.615V3.973C74.6168 3.841 74.6571 3.73467 74.7378 3.654C74.8184 3.57333 74.9284 3.533 75.0678 3.533C75.1998 3.533 75.3024 3.57333 75.3758 3.654C75.4564 3.73467 75.4968 3.83733 75.4968 3.962V4.523C75.6728 4.193 75.9184 3.94367 76.2338 3.775C76.5491 3.599 76.9084 3.511 77.3118 3.511Z" fill="black"/>
</svg>
