<svg width="47" height="40" viewBox="0 0 47 40" fill="none" xmlns="http://www.w3.org/2000/svg">
<path d="M0 16C0 7.16344 7.16344 0 16 0H31C39.8366 0 47 7.16344 47 16V24C47 32.8366 39.8366 40 31 40H16C7.16344 40 0 32.8366 0 24V16Z" fill="#72757E"/>
<path d="M12.9921 25.08C12.7895 25.08 12.6241 25.0213 12.4961 24.904C12.3788 24.776 12.3201 24.6107 12.3201 24.408V14.84H8.88013C8.68813 14.84 8.53879 14.792 8.43213 14.696C8.32546 14.6 8.27213 14.4613 8.27213 14.28C8.27213 14.0987 8.32546 13.96 8.43213 13.864C8.53879 13.768 8.68813 13.72 8.88013 13.72H17.0881C17.2801 13.72 17.4295 13.768 17.5361 13.864C17.6428 13.96 17.6961 14.0987 17.6961 14.28C17.6961 14.4613 17.6428 14.6 17.5361 14.696C17.4295 14.792 17.2801 14.84 17.0881 14.84H13.6481V24.408C13.6481 24.6107 13.5895 24.776 13.4721 24.904C13.3548 25.0213 13.1948 25.08 12.9921 25.08ZM23.8639 23.192C23.9812 23.192 24.0825 23.24 24.1679 23.336C24.2532 23.432 24.2959 23.5547 24.2959 23.704C24.2959 23.9707 24.1092 24.216 23.7359 24.44C23.3519 24.664 22.9465 24.8347 22.5199 24.952C22.0932 25.0587 21.6772 25.112 21.2719 25.112C20.0665 25.112 19.1119 24.7547 18.4079 24.04C17.7145 23.3253 17.3679 22.3387 17.3679 21.08C17.3679 20.28 17.5225 19.576 17.8319 18.968C18.1412 18.3493 18.5732 17.8693 19.1279 17.528C19.6932 17.1867 20.3332 17.016 21.0479 17.016C22.0612 17.016 22.8665 17.3467 23.4639 18.008C24.0612 18.6693 24.3599 19.5653 24.3599 20.696C24.3599 20.9093 24.3172 21.064 24.2319 21.16C24.1465 21.256 24.0079 21.304 23.8159 21.304H18.6639C18.7599 23.1387 19.6292 24.056 21.2719 24.056C21.6879 24.056 22.0452 24.0027 22.3439 23.896C22.6425 23.7787 22.9625 23.624 23.3039 23.432C23.5812 23.272 23.7679 23.192 23.8639 23.192ZM21.0639 18.024C20.3812 18.024 19.8319 18.2373 19.4159 18.664C19.0105 19.0907 18.7705 19.6933 18.6959 20.472H23.2239C23.2025 19.6827 23.0052 19.08 22.6319 18.664C22.2585 18.2373 21.7359 18.024 21.0639 18.024ZM32.5931 24.008C32.7211 24.136 32.7851 24.2907 32.7851 24.472C32.7851 24.632 32.7265 24.7707 32.6091 24.888C32.4918 25.0053 32.3531 25.064 32.1931 25.064C32.0225 25.064 31.8678 24.9893 31.7291 24.84L29.1371 21.88L26.5611 24.84C26.4225 24.9893 26.2678 25.064 26.0971 25.064C25.9371 25.064 25.7931 25.0053 25.6651 24.888C25.5478 24.7707 25.4891 24.6267 25.4891 24.456C25.4891 24.296 25.5531 24.1467 25.6811 24.008L28.3371 21.016L25.7931 18.12C25.6651 17.9707 25.6011 17.8213 25.6011 17.672C25.6011 17.5013 25.6598 17.3573 25.7771 17.24C25.9051 17.1227 26.0438 17.064 26.1931 17.064C26.3638 17.064 26.5185 17.1387 26.6571 17.288L29.1371 20.136L31.6171 17.288C31.7558 17.1387 31.9105 17.064 32.0811 17.064C32.2411 17.064 32.3798 17.1227 32.4971 17.24C32.6145 17.3573 32.6731 17.496 32.6731 17.656C32.6731 17.8373 32.6091 17.992 32.4811 18.12L29.9371 21.016L32.5931 24.008ZM38.1544 24.056C38.5277 24.088 38.7144 24.2587 38.7144 24.568C38.7144 24.7493 38.645 24.888 38.5064 24.984C38.3784 25.0693 38.181 25.1013 37.9144 25.08L37.4824 25.048C36.629 24.984 35.9997 24.728 35.5944 24.28C35.189 23.832 34.9864 23.1547 34.9864 22.248V18.232H33.9144C33.733 18.232 33.589 18.1893 33.4824 18.104C33.3864 18.008 33.3384 17.8853 33.3384 17.736C33.3384 17.576 33.3864 17.448 33.4824 17.352C33.589 17.256 33.733 17.208 33.9144 17.208H34.9864V15.4C34.9864 15.1973 35.045 15.0427 35.1624 14.936C35.2797 14.8187 35.4397 14.76 35.6424 14.76C35.8344 14.76 35.989 14.8187 36.1064 14.936C36.2237 15.0427 36.2824 15.1973 36.2824 15.4V17.208H38.0584C38.229 17.208 38.3624 17.256 38.4584 17.352C38.565 17.448 38.6184 17.576 38.6184 17.736C38.6184 17.8853 38.565 18.008 38.4584 18.104C38.3624 18.1893 38.229 18.232 38.0584 18.232H36.2824V22.312C36.2824 22.8987 36.3997 23.3253 36.6344 23.592C36.8797 23.848 37.2424 23.992 37.7224 24.024L38.1544 24.056Z" fill="#72757E"/>
<path d="M16 1H31V-1H16V1ZM46 16V24H48V16H46ZM31 39H16V41H31V39ZM1 24V16H-1V24H1ZM16 39C7.71573 39 1 32.2843 1 24H-1C-1 33.3888 6.61116 41 16 41V39ZM46 24C46 32.2843 39.2843 39 31 39V41C40.3888 41 48 33.3888 48 24H46ZM31 1C39.2843 1 46 7.71573 46 16H48C48 6.61116 40.3888 -1 31 -1V1ZM16 -1C6.61116 -1 -1 6.61116 -1 16H1C1 7.71573 7.71573 1 16 1V-1Z" fill="#72757E"/>
</svg>
