<svg width="53" height="10" viewBox="0 0 53 10" fill="none" xmlns="http://www.w3.org/2000/svg">
<path d="M3.78 9.096C3.172 9.096 2.592 9.012 2.04 8.844C1.496 8.676 1.06 8.444 0.732 8.148C0.58 8.02 0.504 7.856 0.504 7.656C0.504 7.512 0.544 7.392 0.624 7.296C0.704 7.192 0.8 7.14 0.912 7.14C1.024 7.14 1.16 7.192 1.32 7.296C2.032 7.824 2.844 8.088 3.756 8.088C4.396 8.088 4.888 7.968 5.232 7.728C5.576 7.488 5.748 7.144 5.748 6.696C5.748 6.344 5.588 6.08 5.268 5.904C4.948 5.728 4.436 5.56 3.732 5.4C3.06 5.256 2.508 5.092 2.076 4.908C1.644 4.724 1.304 4.476 1.056 4.164C0.816 3.844 0.696 3.44 0.696 2.952C0.696 2.464 0.828 2.032 1.092 1.656C1.364 1.272 1.74 0.976 2.22 0.767999C2.7 0.551999 3.248 0.443999 3.864 0.443999C4.432 0.443999 4.956 0.523999 5.436 0.684C5.916 0.844 6.324 1.08 6.66 1.392C6.82 1.528 6.9 1.692 6.9 1.884C6.9 2.02 6.856 2.14 6.768 2.244C6.688 2.348 6.592 2.4 6.48 2.4C6.376 2.4 6.244 2.348 6.084 2.244C5.716 1.964 5.368 1.764 5.04 1.644C4.72 1.516 4.332 1.452 3.876 1.452C3.26 1.452 2.78 1.58 2.436 1.836C2.092 2.084 1.92 2.432 1.92 2.88C1.92 3.264 2.072 3.556 2.376 3.756C2.68 3.948 3.168 4.124 3.84 4.284C4.544 4.444 5.112 4.612 5.544 4.788C5.984 4.956 6.332 5.192 6.588 5.496C6.852 5.792 6.984 6.176 6.984 6.648C6.984 7.128 6.848 7.556 6.576 7.932C6.312 8.3 5.936 8.588 5.448 8.796C4.968 8.996 4.412 9.096 3.78 9.096ZM12.9114 3.024C13.0954 3.024 13.2394 3.076 13.3434 3.18C13.4554 3.284 13.5114 3.428 13.5114 3.612V8.496C13.5114 8.664 13.4554 8.8 13.3434 8.904C13.2314 9.008 13.0834 9.06 12.8994 9.06C12.7314 9.06 12.5954 9.012 12.4914 8.916C12.3874 8.812 12.3354 8.676 12.3354 8.508V8.052C12.1514 8.388 11.8954 8.644 11.5674 8.82C11.2474 8.996 10.8874 9.084 10.4874 9.084C9.06344 9.084 8.35144 8.3 8.35144 6.732V3.612C8.35144 3.428 8.40344 3.284 8.50744 3.18C8.61944 3.076 8.77144 3.024 8.96344 3.024C9.14744 3.024 9.29144 3.076 9.39544 3.18C9.50744 3.284 9.56344 3.428 9.56344 3.612V6.72C9.56344 7.192 9.65944 7.54 9.85144 7.764C10.0434 7.988 10.3394 8.1 10.7394 8.1C11.2114 8.1 11.5874 7.948 11.8674 7.644C12.1554 7.34 12.2994 6.936 12.2994 6.432V3.612C12.2994 3.436 12.3554 3.296 12.4674 3.192C12.5794 3.08 12.7274 3.024 12.9114 3.024ZM18.3635 3C18.8755 3 19.3275 3.124 19.7195 3.372C20.1115 3.62 20.4155 3.972 20.6315 4.428C20.8555 4.884 20.9675 5.416 20.9675 6.024C20.9675 6.624 20.8555 7.156 20.6315 7.62C20.4155 8.084 20.1075 8.444 19.7075 8.7C19.3155 8.956 18.8675 9.084 18.3635 9.084C17.9235 9.084 17.5355 8.992 17.1995 8.808C16.8635 8.616 16.6075 8.344 16.4315 7.992V8.472C16.4315 8.648 16.3755 8.792 16.2635 8.904C16.1595 9.008 16.0155 9.06 15.8315 9.06C15.6475 9.06 15.4995 9.008 15.3875 8.904C15.2755 8.792 15.2195 8.648 15.2195 8.472V1.056C15.2195 0.88 15.2755 0.74 15.3875 0.636C15.5075 0.532 15.6595 0.48 15.8435 0.48C16.0195 0.48 16.1595 0.532 16.2635 0.636C16.3755 0.731999 16.4315 0.863999 16.4315 1.032V4.104C16.6075 3.752 16.8635 3.48 17.1995 3.288C17.5355 3.096 17.9235 3 18.3635 3ZM18.0755 8.124C18.5955 8.124 18.9995 7.94 19.2875 7.572C19.5835 7.204 19.7315 6.688 19.7315 6.024C19.7315 5.368 19.5875 4.864 19.2995 4.512C19.0115 4.152 18.6035 3.972 18.0755 3.972C17.5475 3.972 17.1395 4.152 16.8515 4.512C16.5715 4.872 16.4315 5.384 16.4315 6.048C16.4315 6.712 16.5715 7.224 16.8515 7.584C17.1395 7.944 17.5475 8.124 18.0755 8.124ZM25.1659 8.136C25.3419 8.152 25.4659 8.2 25.5379 8.28C25.6179 8.352 25.6579 8.456 25.6579 8.592C25.6579 8.752 25.5939 8.876 25.4659 8.964C25.3459 9.044 25.1659 9.076 24.9259 9.06L24.6019 9.036C23.9539 8.988 23.4699 8.792 23.1499 8.448C22.8299 8.096 22.6699 7.58 22.6699 6.9V4.08H21.9499C21.5979 4.08 21.4219 3.924 21.4219 3.612C21.4219 3.468 21.4659 3.356 21.5539 3.276C21.6499 3.188 21.7819 3.144 21.9499 3.144H22.6699V1.908C22.6699 1.724 22.7219 1.58 22.8259 1.476C22.9379 1.372 23.0859 1.32 23.2699 1.32C23.4539 1.32 23.6019 1.372 23.7139 1.476C23.8259 1.58 23.8819 1.724 23.8819 1.908V3.144H25.0699C25.2379 3.144 25.3659 3.188 25.4539 3.276C25.5499 3.356 25.5979 3.468 25.5979 3.612C25.5979 3.764 25.5499 3.88 25.4539 3.96C25.3659 4.04 25.2379 4.08 25.0699 4.08H23.8819V6.984C23.8819 7.36 23.9579 7.636 24.1099 7.812C24.2699 7.988 24.5099 8.088 24.8299 8.112L25.1659 8.136ZM27.1523 9.06C26.9763 9.06 26.8283 9.012 26.7083 8.916C26.5963 8.82 26.5403 8.676 26.5403 8.484V3.612C26.5403 3.42 26.5963 3.276 26.7083 3.18C26.8283 3.076 26.9763 3.024 27.1523 3.024C27.3283 3.024 27.4723 3.076 27.5843 3.18C27.6963 3.276 27.7523 3.42 27.7523 3.612V8.484C27.7523 8.676 27.6963 8.82 27.5843 8.916C27.4723 9.012 27.3283 9.06 27.1523 9.06ZM27.1523 1.848C26.9203 1.848 26.7363 1.784 26.6003 1.656C26.4643 1.528 26.3963 1.36 26.3963 1.152C26.3963 0.944 26.4643 0.78 26.6003 0.659999C26.7363 0.532 26.9203 0.468 27.1523 0.468C27.3763 0.468 27.5563 0.532 27.6923 0.659999C27.8363 0.78 27.9083 0.944 27.9083 1.152C27.9083 1.36 27.8403 1.528 27.7043 1.656C27.5683 1.784 27.3843 1.848 27.1523 1.848ZM32.4907 8.136C32.6667 8.152 32.7907 8.2 32.8627 8.28C32.9427 8.352 32.9827 8.456 32.9827 8.592C32.9827 8.752 32.9187 8.876 32.7907 8.964C32.6707 9.044 32.4907 9.076 32.2507 9.06L31.9267 9.036C31.2787 8.988 30.7947 8.792 30.4747 8.448C30.1547 8.096 29.9947 7.58 29.9947 6.9V4.08H29.2747C28.9227 4.08 28.7467 3.924 28.7467 3.612C28.7467 3.468 28.7907 3.356 28.8787 3.276C28.9747 3.188 29.1067 3.144 29.2747 3.144H29.9947V1.908C29.9947 1.724 30.0467 1.58 30.1507 1.476C30.2627 1.372 30.4107 1.32 30.5947 1.32C30.7787 1.32 30.9267 1.372 31.0387 1.476C31.1507 1.58 31.2067 1.724 31.2067 1.908V3.144H32.3947C32.5627 3.144 32.6907 3.188 32.7787 3.276C32.8747 3.356 32.9227 3.468 32.9227 3.612C32.9227 3.764 32.8747 3.88 32.7787 3.96C32.6907 4.04 32.5627 4.08 32.3947 4.08H31.2067V6.984C31.2067 7.36 31.2827 7.636 31.4347 7.812C31.5947 7.988 31.8347 8.088 32.1547 8.112L32.4907 8.136ZM34.4771 9.06C34.3011 9.06 34.1531 9.012 34.0331 8.916C33.9211 8.82 33.8651 8.676 33.8651 8.484V1.068C33.8651 0.875999 33.9211 0.731999 34.0331 0.636C34.1531 0.532 34.3011 0.48 34.4771 0.48C34.6531 0.48 34.7971 0.532 34.9091 0.636C35.0211 0.731999 35.0771 0.875999 35.0771 1.068V8.484C35.0771 8.676 35.0211 8.82 34.9091 8.916C34.7971 9.012 34.6531 9.06 34.4771 9.06ZM41.3674 7.524C41.4794 7.524 41.5714 7.568 41.6434 7.656C41.7154 7.744 41.7514 7.856 41.7514 7.992C41.7514 8.224 41.6074 8.42 41.3194 8.58C41.0394 8.74 40.7314 8.864 40.3954 8.952C40.0674 9.04 39.7514 9.084 39.4474 9.084C38.5194 9.084 37.7874 8.816 37.2514 8.28C36.7154 7.736 36.4474 6.996 36.4474 6.06C36.4474 5.46 36.5634 4.928 36.7954 4.464C37.0354 4 37.3674 3.64 37.7914 3.384C38.2234 3.128 38.7114 3 39.2554 3C40.0394 3 40.6594 3.252 41.1154 3.756C41.5714 4.26 41.7994 4.94 41.7994 5.796C41.7994 6.116 41.6554 6.276 41.3674 6.276H37.6594C37.7394 7.516 38.3354 8.136 39.4474 8.136C39.7434 8.136 39.9994 8.096 40.2154 8.016C40.4314 7.936 40.6594 7.832 40.8994 7.704C40.9234 7.688 40.9874 7.656 41.0914 7.608C41.2034 7.552 41.2954 7.524 41.3674 7.524ZM39.2794 3.888C38.8154 3.888 38.4434 4.036 38.1634 4.332C37.8834 4.628 37.7154 5.044 37.6594 5.58H40.7554C40.7314 5.036 40.5914 4.62 40.3354 4.332C40.0874 4.036 39.7354 3.888 39.2794 3.888ZM51.519 7.98C51.711 7.98 51.855 8.024 51.951 8.112C52.055 8.2 52.107 8.324 52.107 8.484C52.107 8.828 51.911 9 51.519 9H46.887C46.711 9 46.571 8.952 46.467 8.856C46.371 8.752 46.323 8.624 46.323 8.472C46.323 8.288 46.395 8.12 46.539 7.968L49.359 4.884C49.735 4.476 50.007 4.104 50.175 3.768C50.343 3.432 50.427 3.1 50.427 2.772C50.427 2.348 50.303 2.024 50.055 1.8C49.815 1.568 49.471 1.452 49.023 1.452C48.343 1.452 47.667 1.712 46.995 2.232C46.907 2.288 46.831 2.332 46.767 2.364C46.711 2.388 46.651 2.4 46.587 2.4C46.475 2.4 46.379 2.348 46.299 2.244C46.219 2.14 46.179 2.016 46.179 1.872C46.179 1.672 46.259 1.512 46.419 1.392C46.755 1.104 47.159 0.876 47.631 0.707999C48.103 0.531999 48.579 0.443999 49.059 0.443999C49.851 0.443999 50.479 0.647999 50.943 1.056C51.415 1.456 51.651 2 51.651 2.688C51.651 3.176 51.543 3.64 51.327 4.08C51.119 4.52 50.767 5.012 50.271 5.556L48.003 7.98H51.519Z" fill="black"/>
</svg>
