<svg width="247" height="247" viewBox="0 0 247 247" fill="none" xmlns="http://www.w3.org/2000/svg">
<path fill-rule="evenodd" clip-rule="evenodd" d="M246.279 61.5391C246.279 27.5747 218.705 0 184.74 0H61.6639C27.6995 0 0.124756 27.5747 0.124756 61.5391V184.615C0.124756 218.58 27.6995 246.155 61.6639 246.155H184.74C218.705 246.155 246.279 218.58 246.279 184.615V61.5391Z" fill="#17A2BE"/>
<path d="M59.5655 53.5668C59.5655 54.4529 58.806 56.2253 57.54 59.1369C56.1475 62.0486 55.0082 64.3272 54.3752 65.9729C51.5901 72.5558 49.5646 78.5057 48.4253 83.9492C47.286 89.3927 46.653 95.0894 46.653 100.913C46.653 106.23 47.1594 111.547 48.1721 116.61C49.0583 121.547 50.5774 126.611 52.6029 131.675C53.6156 134.333 55.1347 137.625 56.9071 141.296C58.6794 144.967 59.5655 147.246 59.5655 148.132C59.5655 149.018 59.3123 149.778 58.9326 150.284C58.5528 150.791 58.0464 151.044 57.4134 151.044C56.1475 151.044 54.755 150.411 53.1093 149.018C51.5901 147.626 49.6912 145.474 47.6657 142.562C43.235 136.232 39.9435 129.649 37.7915 122.687C35.6394 115.724 34.5 108.508 34.5 100.913C34.5 93.9501 35.3862 87.2406 37.1585 80.911C39.0574 74.5813 41.7158 68.5048 45.3871 62.5549C47.7923 58.6305 49.9444 55.7189 51.9699 53.6934C53.9954 51.7945 55.7677 50.7817 57.4134 50.7817C58.0464 50.7817 58.5528 51.0349 58.9326 51.5413C59.3123 52.0477 59.5655 52.6806 59.5655 53.5668Z" fill="white"/>
<path d="M186.453 148.132C186.453 147.246 187.213 145.474 188.605 142.689C189.998 139.777 191.01 137.625 191.77 135.852C194.555 129.27 196.58 123.193 197.72 117.75C198.986 112.306 199.492 106.736 199.492 100.913C199.492 95.5958 198.986 90.4055 197.973 85.3417C196.96 80.278 195.441 75.2143 193.416 70.0239C192.276 67.3655 190.884 64.074 189.111 60.4028C187.339 56.7316 186.453 54.4529 186.453 53.5668C186.453 52.6806 186.706 52.0477 187.086 51.5413C187.466 51.0349 188.099 50.7817 188.732 50.7817C190.124 50.7817 191.517 51.4147 193.036 52.8072C194.555 54.0732 196.454 56.2253 198.479 59.1369C202.91 65.4666 206.202 72.0494 208.354 79.0121C210.506 85.9747 211.645 93.3171 211.645 100.913C211.645 107.875 210.759 114.458 208.86 120.914C207.088 127.244 204.303 133.321 200.631 139.271C198.1 143.322 195.821 146.233 193.922 148.132C192.023 150.031 190.251 151.044 188.732 151.044C188.099 151.044 187.466 150.791 187.086 150.158C186.706 149.651 186.453 149.018 186.453 148.132Z" fill="white"/>
<path d="M86.2598 118.364C91.115 118.364 95.051 114.428 95.051 109.573C95.051 104.718 91.115 100.782 86.2598 100.782C81.4045 100.782 77.4686 104.718 77.4686 109.573C77.4686 114.428 81.4045 118.364 86.2598 118.364Z" fill="white"/>
<path d="M160.084 118.364C155.228 118.364 151.292 114.428 151.292 109.573C151.292 104.718 155.228 100.782 160.084 100.782C164.939 100.782 168.875 104.718 168.875 109.573C168.875 114.428 164.939 118.364 160.084 118.364Z" fill="white"/>
<path d="M36.3618 186.048V175.118H36.1216C35.5811 175.118 35.1907 174.968 34.9205 174.697C34.6502 174.427 34.5001 174.037 34.5001 173.496C34.5001 172.926 34.6502 172.505 34.9505 172.265C35.2508 171.995 35.7012 171.875 36.3618 171.875H39.9952C42.0371 171.875 43.5385 171.965 44.4694 172.145C45.4303 172.325 46.241 172.595 46.9016 173.016C48.0727 173.706 48.9735 174.727 49.6041 176.019C50.2347 177.34 50.565 178.841 50.565 180.553C50.565 182.355 50.2047 183.946 49.484 185.297C48.7634 186.648 47.7424 187.669 46.4212 188.36C45.8206 188.69 45.13 188.901 44.3192 189.051C43.5385 189.201 42.3374 189.261 40.7459 189.261H36.3618C35.7012 189.261 35.2208 189.141 34.9205 188.901C34.6502 188.63 34.5001 188.21 34.5001 187.639C34.5001 187.129 34.6502 186.709 34.9205 186.438C35.1907 186.198 35.5811 186.048 36.1216 186.048H36.3618ZM40.1453 175.058V186.048H40.9861C42.8479 186.048 44.1991 185.598 45.0699 184.697C45.9708 183.796 46.3911 182.385 46.3911 180.523C46.3911 178.661 45.9407 177.31 45.0699 176.379C44.1691 175.478 42.8178 175.028 41.0161 175.028C40.7759 175.028 40.5958 175.028 40.4756 175.028C40.3555 175.028 40.2354 175.058 40.1453 175.058Z" fill="white"/>
<path d="M66.7024 185.72H66.9426C67.4531 185.72 67.8735 185.87 68.1437 186.141C68.414 186.411 68.5641 186.831 68.5641 187.342C68.5641 187.912 68.414 188.303 68.1437 188.573C67.8434 188.813 67.363 188.933 66.7024 188.933H65.3211C64.8406 188.933 64.4803 188.843 64.2401 188.663C63.9999 188.483 63.7897 188.122 63.6395 187.642C62.8288 188.182 61.958 188.603 61.0571 188.873C60.1563 189.143 59.2254 189.294 58.2945 189.294C56.7331 189.294 55.5019 188.903 54.6011 188.122C53.7003 187.342 53.2498 186.261 53.2498 184.909C53.2498 183.438 53.8204 182.297 54.9915 181.486C56.1626 180.676 57.7841 180.285 59.886 180.285C60.3665 180.285 60.8469 180.315 61.3874 180.345C61.8979 180.405 62.4985 180.495 63.1591 180.585V180.315C63.1591 179.444 62.9489 178.754 62.5285 178.303C62.0781 177.853 61.4775 177.613 60.6367 177.613C59.9761 177.613 59.1654 177.853 58.1744 178.333C57.1535 178.814 56.4328 179.054 55.9524 179.054C55.5019 179.054 55.1116 178.904 54.8413 178.634C54.5711 178.393 54.4209 178.033 54.4209 177.583C54.4209 176.802 54.9915 176.171 56.1626 175.691C57.3036 175.24 58.8951 175 60.877 175C62.9789 175 64.4503 175.391 65.3511 176.201C66.252 177.012 66.7024 178.363 66.7024 180.285V185.72ZM63.1591 182.898C62.6786 182.777 62.2282 182.717 61.8078 182.657C61.3874 182.597 61.0271 182.567 60.6668 182.567C59.5857 182.567 58.745 182.747 58.1444 183.108C57.5138 183.468 57.2135 183.979 57.2135 184.609C57.2135 185.18 57.4237 185.6 57.8141 185.9C58.2045 186.201 58.745 186.351 59.4957 186.351C60.1563 186.351 60.7869 186.261 61.3874 186.051C61.988 185.87 62.5885 185.57 63.1591 185.15V182.898Z" fill="white"/>
<path d="M80.6181 185.716H83.771C84.4617 185.716 84.9421 185.836 85.2124 186.076C85.4826 186.317 85.6328 186.737 85.6328 187.308C85.6328 187.878 85.4826 188.298 85.2124 188.539C84.9121 188.809 84.4317 188.929 83.771 188.929H73.8618C73.2012 188.929 72.7208 188.809 72.4205 188.539C72.1502 188.298 72.0001 187.878 72.0001 187.308C72.0001 186.737 72.1502 186.317 72.4205 186.076C72.6907 185.836 73.1712 185.716 73.8618 185.716H77.0148V178.599H75.3632C74.7026 178.599 74.2222 178.479 73.9519 178.209C73.6817 177.969 73.5315 177.548 73.5315 176.978C73.5315 176.407 73.6516 175.987 73.9519 175.747C74.2222 175.507 74.6726 175.386 75.3632 175.386H79.7773C80.0476 175.386 80.2578 175.446 80.4079 175.537C80.5581 175.657 80.6181 175.807 80.6181 176.017V185.716ZM78.5162 168.75C79.2368 168.75 79.6872 168.9 79.9275 169.171C80.1677 169.441 80.2878 170.102 80.2878 171.122C80.2878 172.113 80.1677 172.744 79.9575 172.984C79.7473 173.224 79.2669 173.345 78.4861 173.345C77.7054 173.345 77.225 173.224 77.0148 173.014C76.7745 172.774 76.6844 172.324 76.6844 171.663C76.6844 170.402 76.8046 169.621 77.0148 169.261C77.255 168.93 77.7354 168.75 78.5162 168.75Z" fill="white"/>
<path d="M98.5866 185.507H101.74C102.4 185.507 102.881 185.627 103.151 185.867C103.421 186.107 103.571 186.528 103.571 187.098C103.571 187.669 103.421 188.089 103.151 188.329C102.881 188.599 102.4 188.72 101.74 188.72H91.8003C91.1397 188.72 90.6592 188.599 90.389 188.329C90.1187 188.089 89.9686 187.669 89.9686 187.098C89.9686 186.528 90.1187 186.107 90.389 185.867C90.6592 185.627 91.1097 185.507 91.8003 185.507H94.9532V172.775H93.3317C92.6711 172.775 92.1907 172.655 91.8904 172.384C91.6201 172.144 91.47 171.724 91.47 171.153C91.47 170.583 91.6201 170.162 91.8904 169.922C92.1907 169.652 92.6711 169.532 93.3317 169.532H97.7158C97.9861 169.532 98.1963 169.592 98.3464 169.682C98.4965 169.802 98.5866 169.952 98.5866 170.162V185.507Z" fill="white"/>
<path d="M111.96 178.214L114.603 184.46L117.365 178.214H117.125C116.615 178.214 116.194 178.064 115.924 177.793C115.654 177.523 115.504 177.133 115.504 176.592C115.504 176.022 115.654 175.601 115.924 175.361C116.194 175.121 116.675 175.001 117.365 175.001H120.819C121.509 175.001 121.99 175.121 122.26 175.361C122.53 175.631 122.68 176.022 122.68 176.592C122.68 177.133 122.53 177.523 122.26 177.793C121.99 178.064 121.599 178.214 121.059 178.214H120.819L114.783 191.156H115.444C116.104 191.156 116.585 191.276 116.885 191.546C117.155 191.786 117.305 192.207 117.305 192.777C117.305 193.348 117.155 193.768 116.885 194.008C116.585 194.279 116.104 194.399 115.444 194.399H109.018C108.357 194.399 107.877 194.279 107.576 194.008C107.306 193.768 107.156 193.348 107.156 192.777C107.156 192.207 107.306 191.786 107.576 191.546C107.877 191.276 108.357 191.156 109.018 191.156H111.3L112.681 188.213L108.237 178.214H107.997C107.456 178.214 107.066 178.064 106.796 177.793C106.495 177.523 106.375 177.133 106.375 176.592C106.375 176.022 106.525 175.601 106.796 175.361C107.066 175.121 107.546 175.001 108.237 175.001H111.96C112.621 175.001 113.101 175.121 113.402 175.361C113.672 175.631 113.822 176.022 113.822 176.592C113.822 177.133 113.672 177.523 113.402 177.793C113.131 178.064 112.711 178.214 112.201 178.214H111.96Z" fill="white"/>
<path d="M148.138 181.664V186.138H150.33C151.892 186.138 152.973 185.958 153.603 185.628C154.264 185.297 154.564 184.697 154.564 183.916C154.564 183.105 154.264 182.535 153.663 182.174C153.063 181.844 151.982 181.664 150.48 181.664H148.138ZM155.615 180.042C156.666 180.433 157.447 180.973 157.957 181.634C158.468 182.324 158.708 183.195 158.708 184.246C158.708 185.147 158.498 185.958 158.047 186.679C157.627 187.399 157.026 188 156.216 188.48C155.735 188.75 155.225 188.961 154.624 189.081C154.054 189.201 153.243 189.261 152.162 189.261H144.505C143.874 189.261 143.394 189.141 143.124 188.871C142.853 188.63 142.703 188.21 142.703 187.639C142.703 187.129 142.853 186.709 143.094 186.438C143.364 186.198 143.754 186.048 144.265 186.048H144.505V175.118H144.265C143.754 175.118 143.364 174.968 143.094 174.697C142.853 174.427 142.703 174.037 142.703 173.496C142.703 172.926 142.853 172.505 143.124 172.265C143.424 171.995 143.874 171.875 144.505 171.875H151.261C153.333 171.875 154.894 172.265 155.945 173.076C157.026 173.887 157.567 175.058 157.567 176.589C157.567 177.37 157.387 178.03 157.056 178.601C156.756 179.202 156.246 179.682 155.615 180.042ZM148.138 175.028V178.721H150.12C151.321 178.721 152.162 178.571 152.642 178.301C153.153 178 153.393 177.52 153.393 176.859C153.393 176.229 153.183 175.748 152.732 175.478C152.282 175.178 151.561 175.028 150.57 175.028H148.138Z" fill="white"/>
<path d="M170.852 185.716H174.005C174.696 185.716 175.176 185.836 175.447 186.076C175.717 186.317 175.867 186.737 175.867 187.308C175.867 187.878 175.717 188.298 175.447 188.539C175.146 188.809 174.666 188.929 174.005 188.929H164.096C163.435 188.929 162.955 188.809 162.655 188.539C162.384 188.298 162.234 187.878 162.234 187.308C162.234 186.737 162.384 186.317 162.655 186.076C162.925 185.836 163.405 185.716 164.096 185.716H167.249V178.599H165.597C164.937 178.599 164.456 178.479 164.186 178.209C163.916 177.969 163.766 177.548 163.766 176.978C163.766 176.407 163.886 175.987 164.186 175.747C164.456 175.507 164.907 175.386 165.597 175.386H170.012C170.282 175.386 170.492 175.446 170.642 175.537C170.792 175.657 170.852 175.807 170.852 176.017V185.716ZM168.75 168.75C169.471 168.75 169.921 168.9 170.162 169.171C170.402 169.441 170.522 170.102 170.522 171.122C170.522 172.113 170.402 172.744 170.192 172.984C169.981 173.224 169.501 173.345 168.72 173.345C167.94 173.345 167.459 173.224 167.249 173.014C167.009 172.774 166.919 172.324 166.919 171.663C166.919 170.402 167.039 169.621 167.249 169.261C167.489 168.93 167.97 168.75 168.75 168.75Z" fill="white"/>
<path d="M185.847 176.349H190.322C191.012 176.349 191.463 176.469 191.763 176.709C192.033 176.979 192.183 177.37 192.183 177.94C192.183 178.511 192.033 178.931 191.763 179.171C191.463 179.442 190.982 179.562 190.322 179.562H185.847V183.315C185.847 184.366 185.998 185.087 186.328 185.477C186.658 185.867 187.229 186.078 188.039 186.078C188.79 186.078 189.691 185.867 190.742 185.417C191.763 184.967 192.454 184.756 192.814 184.756C193.204 184.756 193.565 184.907 193.835 185.237C194.135 185.537 194.285 185.928 194.285 186.378C194.285 187.129 193.595 187.819 192.243 188.45C190.862 189.05 189.331 189.381 187.589 189.381C186.598 189.381 185.697 189.231 184.947 188.96C184.166 188.69 183.565 188.3 183.145 187.789C182.815 187.399 182.574 186.918 182.454 186.378C182.304 185.837 182.244 184.907 182.244 183.645V179.562H180.863C180.202 179.562 179.722 179.442 179.451 179.171C179.181 178.931 179.031 178.511 179.031 177.94C179.031 177.37 179.181 176.949 179.451 176.709C179.722 176.469 180.202 176.349 180.863 176.349H182.244V172.925C182.244 172.235 182.394 171.784 182.664 171.514C182.935 171.214 183.415 171.094 184.046 171.094C184.706 171.094 185.157 171.214 185.427 171.514C185.697 171.784 185.847 172.235 185.847 172.925V176.349Z" fill="white"/>
<path d="M200.994 188.783C200.724 188.993 200.484 189.143 200.214 189.233C199.943 189.323 199.673 189.383 199.373 189.383C198.953 189.383 198.652 189.263 198.502 189.053C198.322 188.813 198.232 188.393 198.232 187.792V185.84C198.232 185.21 198.352 184.729 198.562 184.459C198.772 184.189 199.133 184.069 199.673 184.069C200.244 184.069 200.724 184.339 201.084 184.909C201.295 185.21 201.475 185.42 201.625 185.57C202.105 186.02 202.646 186.321 203.307 186.531C203.937 186.771 204.658 186.861 205.469 186.861C206.159 186.861 206.73 186.741 207.15 186.471C207.571 186.17 207.781 185.84 207.781 185.39C207.781 184.609 206.64 184.039 204.388 183.738C203.907 183.678 203.517 183.618 203.216 183.588C201.505 183.348 200.244 182.897 199.433 182.207C198.592 181.516 198.172 180.585 198.172 179.414C198.172 178.033 198.682 176.982 199.673 176.231C200.664 175.481 202.105 175.09 203.937 175.09C204.568 175.09 205.228 175.15 205.889 175.24C206.58 175.36 207.24 175.511 207.961 175.721C208.171 175.481 208.381 175.3 208.622 175.18C208.832 175.06 209.102 175 209.372 175C209.793 175 210.093 175.12 210.303 175.39C210.513 175.631 210.603 175.991 210.603 176.502V178.303C210.603 178.724 210.513 179.054 210.273 179.294C210.063 179.504 209.763 179.624 209.372 179.624C208.982 179.624 208.291 179.264 207.33 178.573C206.339 177.883 205.378 177.522 204.388 177.522C203.637 177.522 203.036 177.643 202.616 177.913C202.196 178.153 201.985 178.483 201.985 178.934C201.985 179.624 202.856 180.075 204.628 180.315C205.138 180.375 205.529 180.435 205.829 180.465C208.051 180.796 209.552 181.276 210.393 181.907C211.204 182.537 211.624 183.498 211.624 184.759C211.624 186.231 211.084 187.372 209.973 188.182C208.892 188.993 207.36 189.383 205.348 189.383C204.568 189.383 203.817 189.323 203.096 189.233C202.376 189.143 201.655 188.993 200.994 188.783Z" fill="white"/>
</svg>
