<svg width="178" height="145" viewBox="0 0 178 145" fill="none" xmlns="http://www.w3.org/2000/svg">
<path d="M25.0655 3.56679C25.0655 4.45295 24.3059 6.22526 23.04 9.13691C21.6475 12.0486 20.5081 14.3272 19.8752 15.9729C17.0901 22.5558 15.0646 28.5057 13.9253 33.9492C12.7859 39.3927 12.153 45.0894 12.153 50.9127C12.153 56.2296 12.6593 61.5466 13.6721 66.6103C14.5582 71.5474 16.0774 76.6112 18.1029 81.6749C19.1156 84.3334 20.6347 87.6248 22.407 91.296C24.1793 94.9672 25.0655 97.2459 25.0655 98.1321C25.0655 99.0182 24.8123 99.7778 24.4325 100.284C24.0527 100.791 23.5464 101.044 22.9134 101.044C21.6475 101.044 20.2549 100.411 18.6092 99.0182C17.0901 97.6257 15.1912 95.4736 13.1657 92.562C8.73495 86.2323 5.44352 79.6494 3.29143 72.6868C1.13934 65.7242 0 58.5083 0 50.9127C0 43.9501 0.886154 37.2406 2.65846 30.911C4.55736 24.5813 7.21582 18.5048 10.887 12.5549C13.2923 8.63053 15.4444 5.71888 17.4699 3.69339C19.4954 1.79449 21.2677 0.781738 22.9134 0.781738C23.5464 0.781738 24.0527 1.03493 24.4325 1.5413C24.8123 2.04768 25.0655 2.68064 25.0655 3.56679Z" fill="black"/>
<path d="M151.953 98.1321C151.953 97.2459 152.713 95.4736 154.105 92.6885C155.498 89.7769 156.51 87.6248 157.27 85.8525C160.055 79.2696 162.08 73.1932 163.22 67.7496C164.486 62.3061 164.992 56.736 164.992 50.9127C164.992 45.5958 164.486 40.4055 163.473 35.3417C162.46 30.278 160.941 25.2143 158.916 20.0239C157.776 17.3655 156.384 14.074 154.611 10.4028C152.839 6.73163 151.953 4.45295 151.953 3.56679C151.953 2.68064 152.206 2.04768 152.586 1.5413C152.966 1.03493 153.599 0.781738 154.232 0.781738C155.624 0.781738 157.017 1.41471 158.536 2.80724C160.055 4.07317 161.954 6.22526 163.979 9.13691C168.41 15.4666 171.702 22.0494 173.854 29.0121C176.006 35.9747 177.145 43.3171 177.145 50.9127C177.145 57.8754 176.259 64.4582 174.36 70.9145C172.588 77.2441 169.803 83.3206 166.131 89.2705C163.6 93.3215 161.321 96.2332 159.422 98.1321C157.523 100.031 155.751 101.044 154.232 101.044C153.599 101.044 152.966 100.791 152.586 100.158C152.206 99.6512 151.953 99.0182 151.953 98.1321Z" fill="black"/>
<path d="M51.7598 68.3643C56.615 68.3643 60.551 64.4283 60.551 59.5731C60.551 54.7178 56.615 50.7819 51.7598 50.7819C46.9045 50.7819 42.9686 54.7178 42.9686 59.5731C42.9686 64.4283 46.9045 68.3643 51.7598 68.3643Z" fill="black"/>
<path d="M125.584 68.3643C120.728 68.3643 116.792 64.4283 116.792 59.5731C116.792 54.7178 120.728 50.7819 125.584 50.7819C130.439 50.7819 134.375 54.7178 134.375 59.5731C134.375 64.4283 130.439 68.3643 125.584 68.3643Z" fill="black"/>
<path d="M1.86173 136.048V125.118H1.62151C1.08101 125.118 0.690642 124.968 0.420391 124.697C0.15014 124.427 0 124.037 0 123.496C0 122.926 0.15014 122.505 0.450419 122.265C0.750698 121.995 1.20112 121.875 1.86173 121.875H5.49511C7.53701 121.875 9.0384 121.965 9.96927 122.145C10.9302 122.325 11.7409 122.595 12.4015 123.016C13.5726 123.706 14.4735 124.727 15.104 126.019C15.7346 127.34 16.0649 128.841 16.0649 130.553C16.0649 132.355 15.7046 133.946 14.9839 135.297C14.2633 136.648 13.2423 137.669 11.9211 138.36C11.3205 138.69 10.6299 138.901 9.81913 139.051C9.0384 139.201 7.83729 139.261 6.24581 139.261H1.86173C1.20112 139.261 0.72067 139.141 0.420391 138.901C0.15014 138.63 0 138.21 0 137.639C0 137.129 0.15014 136.709 0.420391 136.438C0.690642 136.198 1.08101 136.048 1.62151 136.048H1.86173ZM5.64525 125.058V136.048H6.48603C8.34776 136.048 9.69902 135.598 10.5698 134.697C11.4707 133.796 11.8911 132.385 11.8911 130.523C11.8911 128.661 11.4406 127.31 10.5698 126.379C9.66899 125.478 8.31773 125.028 6.51606 125.028C6.27584 125.028 6.09567 125.028 5.97556 125.028C5.85544 125.028 5.73533 125.058 5.64525 125.058Z" fill="black"/>
<path d="M32.2023 135.72H32.4426C32.953 135.72 33.3734 135.87 33.6437 136.141C33.9139 136.411 34.0641 136.831 34.0641 137.342C34.0641 137.912 33.9139 138.303 33.6437 138.573C33.3434 138.813 32.8629 138.933 32.2023 138.933H30.821C30.3406 138.933 29.9803 138.843 29.74 138.663C29.4998 138.483 29.2896 138.122 29.1395 137.642C28.3287 138.182 27.4579 138.603 26.5571 138.873C25.6562 139.143 24.7254 139.294 23.7945 139.294C22.2331 139.294 21.0019 138.903 20.1011 138.122C19.2002 137.342 18.7498 136.261 18.7498 134.909C18.7498 133.438 19.3203 132.297 20.4914 131.486C21.6625 130.676 23.284 130.285 25.386 130.285C25.8664 130.285 26.3469 130.315 26.8874 130.345C27.3979 130.405 27.9984 130.495 28.659 130.585V130.315C28.659 129.444 28.4488 128.754 28.0284 128.303C27.578 127.853 26.9775 127.613 26.1367 127.613C25.4761 127.613 24.6653 127.853 23.6744 128.333C22.6534 128.814 21.9328 129.054 21.4523 129.054C21.0019 129.054 20.6115 128.904 20.3413 128.634C20.071 128.393 19.9209 128.033 19.9209 127.583C19.9209 126.802 20.4914 126.171 21.6625 125.691C22.8036 125.24 24.3951 125 26.3769 125C28.4789 125 29.9502 125.391 30.8511 126.201C31.7519 127.012 32.2023 128.363 32.2023 130.285V135.72ZM28.659 132.898C28.1786 132.777 27.7282 132.717 27.3078 132.657C26.8874 132.597 26.5271 132.567 26.1667 132.567C25.0857 132.567 24.2449 132.747 23.6444 133.108C23.0138 133.468 22.7135 133.979 22.7135 134.609C22.7135 135.18 22.9237 135.6 23.3141 135.9C23.7044 136.201 24.2449 136.351 24.9956 136.351C25.6562 136.351 26.2868 136.261 26.8874 136.051C27.4879 135.87 28.0885 135.57 28.659 135.15V132.898Z" fill="black"/>
<path d="M46.118 135.716H49.2709C49.9616 135.716 50.442 135.836 50.7123 136.076C50.9825 136.317 51.1327 136.737 51.1327 137.308C51.1327 137.878 50.9825 138.298 50.7123 138.539C50.412 138.809 49.9316 138.929 49.2709 138.929H39.3617C38.7011 138.929 38.2207 138.809 37.9204 138.539C37.6501 138.298 37.5 137.878 37.5 137.308C37.5 136.737 37.6501 136.317 37.9204 136.076C38.1906 135.836 38.6711 135.716 39.3617 135.716H42.5147V128.599H40.8631C40.2025 128.599 39.7221 128.479 39.4518 128.209C39.1816 127.969 39.0314 127.548 39.0314 126.978C39.0314 126.407 39.1515 125.987 39.4518 125.747C39.7221 125.507 40.1725 125.386 40.8631 125.386H45.2772C45.5475 125.386 45.7577 125.446 45.9078 125.537C46.058 125.657 46.118 125.807 46.118 126.017V135.716ZM44.0161 118.75C44.7367 118.75 45.1871 118.9 45.4274 119.171C45.6676 119.441 45.7877 120.102 45.7877 121.122C45.7877 122.113 45.6676 122.744 45.4574 122.984C45.2472 123.224 44.7668 123.345 43.986 123.345C43.2053 123.345 42.7249 123.224 42.5147 123.014C42.2744 122.774 42.1844 122.324 42.1844 121.663C42.1844 120.402 42.3045 119.621 42.5147 119.261C42.7549 118.93 43.2353 118.75 44.0161 118.75Z" fill="black"/>
<path d="M64.0865 135.507H67.2395C67.9001 135.507 68.3805 135.627 68.6508 135.867C68.921 136.107 69.0712 136.528 69.0712 137.098C69.0712 137.669 68.921 138.089 68.6508 138.329C68.3805 138.599 67.9001 138.72 67.2395 138.72H57.3002C56.6396 138.72 56.1591 138.599 55.8889 138.329C55.6186 138.089 55.4685 137.669 55.4685 137.098C55.4685 136.528 55.6186 136.107 55.8889 135.867C56.1591 135.627 56.6096 135.507 57.3002 135.507H60.4531V122.775H58.8316C58.171 122.775 57.6906 122.655 57.3903 122.384C57.12 122.144 56.9699 121.724 56.9699 121.153C56.9699 120.583 57.12 120.162 57.3903 119.922C57.6906 119.652 58.171 119.532 58.8316 119.532H63.2157C63.486 119.532 63.6962 119.592 63.8463 119.682C63.9964 119.802 64.0865 119.952 64.0865 120.162V135.507Z" fill="black"/>
<path d="M77.4603 128.214L80.1028 134.46L82.8653 128.214H82.6251C82.1146 128.214 81.6943 128.064 81.424 127.793C81.1537 127.523 81.0036 127.133 81.0036 126.592C81.0036 126.022 81.1537 125.601 81.424 125.361C81.6943 125.121 82.1747 125.001 82.8653 125.001H86.3186C87.0092 125.001 87.4896 125.121 87.7599 125.361C88.0301 125.631 88.1803 126.022 88.1803 126.592C88.1803 127.133 88.0301 127.523 87.7599 127.793C87.4896 128.064 87.0993 128.214 86.5588 128.214H86.3186L80.2829 141.156H80.9436C81.6042 141.156 82.0846 141.276 82.3849 141.546C82.6551 141.786 82.8053 142.207 82.8053 142.777C82.8053 143.348 82.6551 143.768 82.3849 144.008C82.0846 144.279 81.6042 144.399 80.9436 144.399H74.5176C73.857 144.399 73.3765 144.279 73.0762 144.008C72.806 143.768 72.6558 143.348 72.6558 142.777C72.6558 142.207 72.806 141.786 73.0762 141.546C73.3765 141.276 73.857 141.156 74.5176 141.156H76.7997L78.181 138.213L73.7369 128.214H73.4966C72.9561 128.214 72.5658 128.064 72.2955 127.793C71.9952 127.523 71.8751 127.133 71.8751 126.592C71.8751 126.022 72.0253 125.601 72.2955 125.361C72.5658 125.121 73.0462 125.001 73.7369 125.001H77.4603C78.1209 125.001 78.6014 125.121 78.9017 125.361C79.1719 125.631 79.322 126.022 79.322 126.592C79.322 127.133 79.1719 127.523 78.9017 127.793C78.6314 128.064 78.211 128.214 77.7005 128.214H77.4603Z" fill="black"/>
<path d="M113.638 131.664V136.138H115.83C117.392 136.138 118.473 135.958 119.103 135.628C119.764 135.297 120.064 134.697 120.064 133.916C120.064 133.105 119.764 132.535 119.163 132.174C118.563 131.844 117.482 131.664 115.98 131.664H113.638ZM121.115 130.042C122.166 130.433 122.947 130.973 123.457 131.634C123.968 132.324 124.208 133.195 124.208 134.246C124.208 135.147 123.998 135.958 123.547 136.679C123.127 137.399 122.526 138 121.716 138.48C121.235 138.75 120.725 138.961 120.124 139.081C119.554 139.201 118.743 139.261 117.662 139.261H110.005C109.374 139.261 108.894 139.141 108.624 138.871C108.353 138.63 108.203 138.21 108.203 137.639C108.203 137.129 108.353 136.709 108.593 136.438C108.864 136.198 109.254 136.048 109.765 136.048H110.005V125.118H109.765C109.254 125.118 108.864 124.968 108.593 124.697C108.353 124.427 108.203 124.037 108.203 123.496C108.203 122.926 108.353 122.505 108.624 122.265C108.924 121.995 109.374 121.875 110.005 121.875H116.761C118.833 121.875 120.394 122.265 121.445 123.076C122.526 123.887 123.067 125.058 123.067 126.589C123.067 127.37 122.887 128.03 122.556 128.601C122.256 129.202 121.746 129.682 121.115 130.042ZM113.638 125.028V128.721H115.62C116.821 128.721 117.662 128.571 118.142 128.301C118.653 128 118.893 127.52 118.893 126.859C118.893 126.229 118.683 125.748 118.232 125.478C117.782 125.178 117.061 125.028 116.07 125.028H113.638Z" fill="black"/>
<path d="M136.352 135.716H139.505C140.196 135.716 140.676 135.836 140.947 136.076C141.217 136.317 141.367 136.737 141.367 137.308C141.367 137.878 141.217 138.298 140.947 138.539C140.646 138.809 140.166 138.929 139.505 138.929H129.596C128.935 138.929 128.455 138.809 128.155 138.539C127.884 138.298 127.734 137.878 127.734 137.308C127.734 136.737 127.884 136.317 128.155 136.076C128.425 135.836 128.905 135.716 129.596 135.716H132.749V128.599H131.097C130.437 128.599 129.956 128.479 129.686 128.209C129.416 127.969 129.266 127.548 129.266 126.978C129.266 126.407 129.386 125.987 129.686 125.747C129.956 125.507 130.407 125.386 131.097 125.386H135.511C135.782 125.386 135.992 125.446 136.142 125.537C136.292 125.657 136.352 125.807 136.352 126.017V135.716ZM134.25 118.75C134.971 118.75 135.421 118.9 135.662 119.171C135.902 119.441 136.022 120.102 136.022 121.122C136.022 122.113 135.902 122.744 135.692 122.984C135.481 123.224 135.001 123.345 134.22 123.345C133.44 123.345 132.959 123.224 132.749 123.014C132.509 122.774 132.419 122.324 132.419 121.663C132.419 120.402 132.539 119.621 132.749 119.261C132.989 118.93 133.47 118.75 134.25 118.75Z" fill="black"/>
<path d="M151.347 126.349H155.822C156.512 126.349 156.963 126.469 157.263 126.709C157.533 126.979 157.683 127.37 157.683 127.94C157.683 128.511 157.533 128.931 157.263 129.171C156.963 129.442 156.482 129.562 155.822 129.562H151.347V133.315C151.347 134.366 151.498 135.087 151.828 135.477C152.158 135.867 152.729 136.078 153.539 136.078C154.29 136.078 155.191 135.867 156.242 135.417C157.263 134.967 157.954 134.756 158.314 134.756C158.704 134.756 159.065 134.907 159.335 135.237C159.635 135.537 159.785 135.928 159.785 136.378C159.785 137.129 159.095 137.819 157.743 138.45C156.362 139.05 154.831 139.381 153.089 139.381C152.098 139.381 151.197 139.231 150.447 138.96C149.666 138.69 149.065 138.3 148.645 137.789C148.315 137.399 148.074 136.918 147.954 136.378C147.804 135.837 147.744 134.907 147.744 133.645V129.562H146.363C145.702 129.562 145.222 129.442 144.951 129.171C144.681 128.931 144.531 128.511 144.531 127.94C144.531 127.37 144.681 126.949 144.951 126.709C145.222 126.469 145.702 126.349 146.363 126.349H147.744V122.925C147.744 122.235 147.894 121.784 148.164 121.514C148.435 121.214 148.915 121.094 149.546 121.094C150.206 121.094 150.657 121.214 150.927 121.514C151.197 121.784 151.347 122.235 151.347 122.925V126.349Z" fill="black"/>
<path d="M166.494 138.783C166.224 138.993 165.984 139.143 165.714 139.233C165.443 139.323 165.173 139.383 164.873 139.383C164.452 139.383 164.152 139.263 164.002 139.053C163.822 138.813 163.732 138.393 163.732 137.792V135.84C163.732 135.21 163.852 134.729 164.062 134.459C164.272 134.189 164.633 134.069 165.173 134.069C165.744 134.069 166.224 134.339 166.584 134.909C166.795 135.21 166.975 135.42 167.125 135.57C167.605 136.02 168.146 136.321 168.806 136.531C169.437 136.771 170.158 136.861 170.968 136.861C171.659 136.861 172.23 136.741 172.65 136.471C173.07 136.17 173.281 135.84 173.281 135.39C173.281 134.609 172.14 134.039 169.887 133.738C169.407 133.678 169.017 133.618 168.716 133.588C167.005 133.348 165.744 132.897 164.933 132.207C164.092 131.516 163.672 130.585 163.672 129.414C163.672 128.033 164.182 126.982 165.173 126.231C166.164 125.481 167.605 125.09 169.437 125.09C170.068 125.09 170.728 125.15 171.389 125.24C172.08 125.36 172.74 125.511 173.461 125.721C173.671 125.481 173.881 125.3 174.121 125.18C174.332 125.06 174.602 125 174.872 125C175.292 125 175.593 125.12 175.803 125.39C176.013 125.631 176.103 125.991 176.103 126.502V128.303C176.103 128.724 176.013 129.054 175.773 129.294C175.563 129.504 175.262 129.624 174.872 129.624C174.482 129.624 173.791 129.264 172.83 128.573C171.839 127.883 170.878 127.522 169.887 127.522C169.137 127.522 168.536 127.643 168.116 127.913C167.695 128.153 167.485 128.483 167.485 128.934C167.485 129.624 168.356 130.075 170.128 130.315C170.638 130.375 171.029 130.435 171.329 130.465C173.551 130.796 175.052 131.276 175.893 131.907C176.704 132.537 177.124 133.498 177.124 134.759C177.124 136.231 176.584 137.372 175.473 138.182C174.392 138.993 172.86 139.383 170.848 139.383C170.068 139.383 169.317 139.323 168.596 139.233C167.876 139.143 167.155 138.993 166.494 138.783Z" fill="black"/>
</svg>
