<svg width="361" height="122" viewBox="0 0 361 122" fill="none" xmlns="http://www.w3.org/2000/svg">
<rect width="361" height="122" fill="#ACFFCF"/>
<path d="M17.984 27.416C17.6427 27.416 17.36 27.304 17.136 27.08C16.912 26.8453 16.8 26.5573 16.8 26.216C16.8 25.8747 16.912 25.592 17.136 25.368C17.36 25.1333 17.6427 25.016 17.984 25.016C18.3253 25.016 18.608 25.1333 18.832 25.368C19.056 25.592 19.168 25.8747 19.168 26.216C19.168 26.5573 19.056 26.8453 18.832 27.08C18.608 27.304 18.3253 27.416 17.984 27.416ZM17.984 35.976C17.6107 35.976 17.312 35.8587 17.088 35.624C16.864 35.4 16.7787 35.096 16.832 34.712L17.376 29C17.3973 28.7973 17.4613 28.6427 17.568 28.536C17.6853 28.4187 17.824 28.36 17.984 28.36C18.144 28.36 18.2773 28.4187 18.384 28.536C18.5013 28.6427 18.5707 28.7973 18.592 29L19.152 34.712L19.168 34.888C19.168 35.2187 19.056 35.48 18.832 35.672C18.608 35.8747 18.3253 35.976 17.984 35.976ZM28.2088 27.176C28.8594 27.3573 29.3608 27.688 29.7128 28.168C30.0754 28.648 30.2568 29.2347 30.2568 29.928C30.2568 30.888 29.9101 31.64 29.2168 32.184C28.5341 32.728 27.5901 33 26.3848 33H22.2568C21.9474 33 21.7021 32.9147 21.5208 32.744C21.3501 32.5733 21.2648 32.3333 21.2648 32.024V22.696C21.2648 22.3867 21.3501 22.1467 21.5208 21.976C21.7021 21.8053 21.9474 21.72 22.2568 21.72H26.2248C27.3981 21.72 28.3154 21.9813 28.9768 22.504C29.6488 23.016 29.9848 23.736 29.9848 24.664C29.9848 25.2613 29.8248 25.7787 29.5048 26.216C29.1954 26.6533 28.7634 26.9733 28.2088 27.176ZM23.2808 26.472H25.8888C27.3074 26.472 28.0168 25.944 28.0168 24.888C28.0168 24.3547 27.8408 23.96 27.4888 23.704C27.1368 23.448 26.6034 23.32 25.8888 23.32H23.2808V26.472ZM26.1608 31.4C26.9074 31.4 27.4514 31.2667 27.7928 31C28.1341 30.7333 28.3048 30.3173 28.3048 29.752C28.3048 29.1867 28.1288 28.7653 27.7768 28.488C27.4354 28.2107 26.8968 28.072 26.1608 28.072H23.2808V31.4H26.1608ZM38.2666 25.016C38.576 25.016 38.8213 25.1013 39.0026 25.272C39.184 25.4427 39.2746 25.672 39.2746 25.96V32.168C39.2746 32.4453 39.1786 32.6693 38.9866 32.84C38.8053 33.0107 38.5653 33.096 38.2666 33.096C37.9786 33.096 37.7493 33.016 37.5786 32.856C37.408 32.696 37.3226 32.4773 37.3226 32.2V31.8C37.0773 32.2267 36.7466 32.5573 36.3306 32.792C35.9146 33.016 35.4453 33.128 34.9226 33.128C33.0026 33.128 32.0426 32.0507 32.0426 29.896V25.96C32.0426 25.672 32.1333 25.4427 32.3146 25.272C32.496 25.1013 32.736 25.016 33.0346 25.016C33.344 25.016 33.5893 25.1013 33.7706 25.272C33.952 25.4427 34.0426 25.672 34.0426 25.96V29.912C34.0426 30.4667 34.1546 30.8773 34.3786 31.144C34.6026 31.4107 34.9546 31.544 35.4346 31.544C35.9893 31.544 36.432 31.3627 36.7626 31C37.104 30.6267 37.2746 30.136 37.2746 29.528V25.96C37.2746 25.672 37.3653 25.4427 37.5466 25.272C37.728 25.1013 37.968 25.016 38.2666 25.016ZM47.6283 30.856C47.8096 30.856 47.9536 30.9253 48.0603 31.064C48.1776 31.2027 48.2362 31.3893 48.2362 31.624C48.2362 31.9547 48.0389 32.232 47.6442 32.456C47.2816 32.6587 46.8709 32.824 46.4123 32.952C45.9536 33.0693 45.5162 33.128 45.1002 33.128C43.8416 33.128 42.8442 32.7653 42.1082 32.04C41.3722 31.3147 41.0042 30.3227 41.0042 29.064C41.0042 28.264 41.1642 27.5547 41.4842 26.936C41.8042 26.3173 42.2522 25.8373 42.8282 25.496C43.4149 25.1547 44.0763 24.984 44.8123 24.984C45.5162 24.984 46.1296 25.1387 46.6523 25.448C47.1749 25.7573 47.5803 26.1947 47.8682 26.76C48.1562 27.3253 48.3003 27.992 48.3003 28.76C48.3003 29.2187 48.0976 29.448 47.6923 29.448H42.9722C43.0362 30.184 43.2442 30.728 43.5962 31.08C43.9482 31.4213 44.4602 31.592 45.1322 31.592C45.4736 31.592 45.7723 31.5493 46.0283 31.464C46.2949 31.3787 46.5936 31.2613 46.9243 31.112C47.2443 30.9413 47.4789 30.856 47.6283 30.856ZM44.8602 26.392C44.3163 26.392 43.8789 26.5627 43.5482 26.904C43.2282 27.2453 43.0362 27.736 42.9722 28.376H46.5883C46.5669 27.7253 46.4069 27.2347 46.1083 26.904C45.8096 26.5627 45.3936 26.392 44.8602 26.392ZM54.5602 24.984C55.4989 24.984 56.1976 25.2507 56.6562 25.784C57.1149 26.3173 57.3442 27.1227 57.3442 28.2V32.136C57.3442 32.4347 57.2536 32.6693 57.0723 32.84C56.9016 33.0107 56.6616 33.096 56.3523 33.096C56.0429 33.096 55.7976 33.0107 55.6163 32.84C55.4349 32.6693 55.3443 32.4347 55.3443 32.136V28.312C55.3443 27.704 55.2269 27.2613 54.9922 26.984C54.7682 26.7067 54.4109 26.568 53.9202 26.568C53.3443 26.568 52.8803 26.7493 52.5282 27.112C52.1869 27.4747 52.0162 27.96 52.0162 28.568V32.136C52.0162 32.4347 51.9256 32.6693 51.7442 32.84C51.5629 33.0107 51.3176 33.096 51.0082 33.096C50.6989 33.096 50.4536 33.0107 50.2722 32.84C50.1016 32.6693 50.0162 32.4347 50.0162 32.136V25.944C50.0162 25.6667 50.1069 25.4427 50.2882 25.272C50.4696 25.1013 50.7149 25.016 51.0242 25.016C51.3016 25.016 51.5256 25.1013 51.6962 25.272C51.8776 25.432 51.9682 25.6453 51.9682 25.912V26.344C52.2349 25.9067 52.5922 25.5707 53.0402 25.336C53.4882 25.1013 53.9949 24.984 54.5602 24.984ZM67.9434 31.608C68.4767 31.64 68.7434 31.88 68.7434 32.328C68.7434 32.584 68.6367 32.7813 68.4234 32.92C68.2207 33.048 67.9274 33.1013 67.5434 33.08L67.1114 33.048C65.3194 32.92 64.4234 31.96 64.4234 30.168V26.68H63.6234C63.3354 26.68 63.1114 26.616 62.9514 26.488C62.802 26.36 62.7274 26.1733 62.7274 25.928C62.7274 25.6827 62.802 25.496 62.9514 25.368C63.1114 25.24 63.3354 25.176 63.6234 25.176H64.4234V23.704C64.4234 23.416 64.514 23.1867 64.6954 23.016C64.8767 22.8453 65.122 22.76 65.4314 22.76C65.73 22.76 65.97 22.8453 66.1514 23.016C66.3327 23.1867 66.4234 23.416 66.4234 23.704V25.176H67.7834C68.0714 25.176 68.29 25.24 68.4394 25.368C68.5994 25.496 68.6794 25.6827 68.6794 25.928C68.6794 26.1733 68.5994 26.36 68.4394 26.488C68.29 26.616 68.0714 26.68 67.7834 26.68H66.4234V30.312C66.4234 31.1013 66.786 31.5227 67.5114 31.576L67.9434 31.608ZM74.2336 25.016C74.511 24.9947 74.7296 25.0533 74.8896 25.192C75.0496 25.3307 75.1296 25.5387 75.1296 25.816C75.1296 26.104 75.0603 26.3173 74.9216 26.456C74.783 26.5947 74.5323 26.6853 74.1696 26.728L73.6896 26.776C73.0603 26.84 72.5963 27.0533 72.2976 27.416C72.0096 27.7787 71.8656 28.232 71.8656 28.776V32.136C71.8656 32.4453 71.7696 32.6853 71.5776 32.856C71.3856 33.016 71.1456 33.096 70.8576 33.096C70.5696 33.096 70.3296 33.016 70.1376 32.856C69.9563 32.6853 69.8656 32.4453 69.8656 32.136V25.944C69.8656 25.6453 69.9563 25.416 70.1376 25.256C70.3296 25.096 70.5643 25.016 70.8416 25.016C71.119 25.016 71.343 25.096 71.5136 25.256C71.6843 25.4053 71.7696 25.624 71.7696 25.912V26.552C71.9723 26.0827 72.271 25.72 72.6656 25.464C73.071 25.208 73.519 25.064 74.0096 25.032L74.2336 25.016ZM79.4314 24.984C80.5194 24.984 81.3247 25.256 81.8474 25.8C82.3807 26.3333 82.6474 27.1493 82.6474 28.248V32.152C82.6474 32.44 82.562 32.6693 82.3914 32.84C82.2207 33 81.986 33.08 81.6874 33.08C81.41 33.08 81.1807 32.9947 80.9994 32.824C80.8287 32.6533 80.7434 32.4293 80.7434 32.152V31.8C80.562 32.216 80.274 32.5413 79.8794 32.776C79.4954 33.0107 79.0474 33.128 78.5354 33.128C78.0127 33.128 77.538 33.0213 77.1114 32.808C76.6847 32.5947 76.3487 32.3013 76.1034 31.928C75.858 31.5547 75.7354 31.1387 75.7354 30.68C75.7354 30.104 75.8794 29.6507 76.1674 29.32C76.466 28.9893 76.946 28.7493 77.6074 28.6C78.2687 28.4507 79.1807 28.376 80.3434 28.376H80.7434V28.008C80.7434 27.4853 80.6314 27.1067 80.4074 26.872C80.1834 26.6267 79.8207 26.504 79.3194 26.504C79.01 26.504 78.6954 26.552 78.3754 26.648C78.0554 26.7333 77.6767 26.8613 77.2394 27.032C76.962 27.1707 76.7594 27.24 76.6314 27.24C76.4394 27.24 76.2794 27.1707 76.1514 27.032C76.034 26.8933 75.9754 26.712 75.9754 26.488C75.9754 26.3067 76.018 26.152 76.1034 26.024C76.1994 25.8853 76.354 25.7573 76.5674 25.64C76.9407 25.4373 77.3834 25.2773 77.8954 25.16C78.418 25.0427 78.93 24.984 79.4314 24.984ZM78.9354 31.688C79.4687 31.688 79.9007 31.512 80.2314 31.16C80.5727 30.7973 80.7434 30.3333 80.7434 29.768V29.432H80.4554C79.7407 29.432 79.186 29.464 78.7914 29.528C78.3967 29.592 78.114 29.704 77.9434 29.864C77.7727 30.024 77.6874 30.2427 77.6874 30.52C77.6874 30.8613 77.8047 31.144 78.0394 31.368C78.2847 31.5813 78.5834 31.688 78.9354 31.688ZM89.256 24.984C89.9387 24.984 90.5413 25.1493 91.064 25.48C91.5867 25.8107 91.992 26.28 92.28 26.888C92.5787 27.496 92.728 28.2053 92.728 29.016C92.728 29.8267 92.5787 30.5467 92.28 31.176C91.992 31.7947 91.5813 32.2747 91.048 32.616C90.5253 32.9573 89.928 33.128 89.256 33.128C88.6907 33.128 88.184 33.0053 87.736 32.76C87.2987 32.5147 86.9627 32.1733 86.728 31.736V32.136C86.728 32.424 86.6373 32.6533 86.456 32.824C86.2747 32.9947 86.0347 33.08 85.736 33.08C85.4373 33.08 85.1973 32.9947 85.016 32.824C84.8453 32.6533 84.76 32.424 84.76 32.136V22.568C84.76 22.2907 84.8507 22.0667 85.032 21.896C85.224 21.7253 85.4693 21.64 85.768 21.64C86.0667 21.64 86.3067 21.72 86.488 21.88C86.6693 22.04 86.76 22.2587 86.76 22.536V26.312C86.9947 25.8853 87.3307 25.56 87.768 25.336C88.2053 25.1013 88.7013 24.984 89.256 24.984ZM88.728 31.576C89.3573 31.576 89.848 31.352 90.2 30.904C90.552 30.456 90.728 29.8267 90.728 29.016C90.728 28.216 90.552 27.6027 90.2 27.176C89.8587 26.7493 89.368 26.536 88.728 26.536C88.088 26.536 87.592 26.7547 87.24 27.192C86.8987 27.6187 86.728 28.2373 86.728 29.048C86.728 29.8587 86.8987 30.4827 87.24 30.92C87.592 31.3573 88.088 31.576 88.728 31.576ZM97.8414 24.984C98.9294 24.984 99.7347 25.256 100.257 25.8C100.791 26.3333 101.057 27.1493 101.057 28.248V32.152C101.057 32.44 100.972 32.6693 100.801 32.84C100.631 33 100.396 33.08 100.097 33.08C99.82 33.08 99.5907 32.9947 99.4094 32.824C99.2387 32.6533 99.1534 32.4293 99.1534 32.152V31.8C98.972 32.216 98.684 32.5413 98.2894 32.776C97.9054 33.0107 97.4574 33.128 96.9454 33.128C96.4227 33.128 95.948 33.0213 95.5214 32.808C95.0947 32.5947 94.7587 32.3013 94.5134 31.928C94.268 31.5547 94.1454 31.1387 94.1454 30.68C94.1454 30.104 94.2894 29.6507 94.5774 29.32C94.876 28.9893 95.356 28.7493 96.0174 28.6C96.6787 28.4507 97.5907 28.376 98.7534 28.376H99.1534V28.008C99.1534 27.4853 99.0414 27.1067 98.8174 26.872C98.5934 26.6267 98.2307 26.504 97.7294 26.504C97.42 26.504 97.1054 26.552 96.7854 26.648C96.4654 26.7333 96.0867 26.8613 95.6494 27.032C95.372 27.1707 95.1694 27.24 95.0414 27.24C94.8494 27.24 94.6894 27.1707 94.5614 27.032C94.444 26.8933 94.3854 26.712 94.3854 26.488C94.3854 26.3067 94.428 26.152 94.5134 26.024C94.6094 25.8853 94.764 25.7573 94.9774 25.64C95.3507 25.4373 95.7934 25.2773 96.3054 25.16C96.828 25.0427 97.34 24.984 97.8414 24.984ZM97.3454 31.688C97.8787 31.688 98.3107 31.512 98.6414 31.16C98.9827 30.7973 99.1534 30.3333 99.1534 29.768V29.432H98.8654C98.1507 29.432 97.596 29.464 97.2014 29.528C96.8067 29.592 96.524 29.704 96.3534 29.864C96.1827 30.024 96.0974 30.2427 96.0974 30.52C96.0974 30.8613 96.2147 31.144 96.4494 31.368C96.6947 31.5813 96.9934 31.688 97.3454 31.688ZM102.05 35.912C101.666 35.9333 101.373 35.88 101.17 35.752C100.957 35.624 100.85 35.4267 100.85 35.16C100.85 34.7227 101.117 34.4827 101.65 34.44L102.082 34.408C102.445 34.3867 102.717 34.2747 102.898 34.072C103.079 33.8693 103.17 33.56 103.17 33.144V25.96C103.17 25.6507 103.261 25.416 103.442 25.256C103.634 25.096 103.874 25.016 104.162 25.016C104.45 25.016 104.69 25.096 104.882 25.256C105.074 25.416 105.17 25.6507 105.17 25.96V33C105.17 34.792 104.274 35.752 102.482 35.88L102.05 35.912ZM104.146 23.592C103.783 23.592 103.495 23.496 103.282 23.304C103.069 23.1013 102.962 22.84 102.962 22.52C102.962 22.2 103.069 21.944 103.282 21.752C103.495 21.56 103.783 21.464 104.146 21.464C104.498 21.464 104.781 21.56 104.994 21.752C105.218 21.944 105.33 22.2 105.33 22.52C105.33 22.84 105.223 23.1013 105.01 23.304C104.797 23.496 104.509 23.592 104.146 23.592ZM110.88 33.128C110.08 33.128 109.376 32.9627 108.768 32.632C108.171 32.3013 107.707 31.8267 107.376 31.208C107.046 30.5893 106.88 29.8693 106.88 29.048C106.88 28.2267 107.046 27.512 107.376 26.904C107.707 26.2853 108.171 25.8107 108.768 25.48C109.376 25.1493 110.08 24.984 110.88 24.984C111.68 24.984 112.379 25.1493 112.976 25.48C113.584 25.8107 114.048 26.2853 114.368 26.904C114.699 27.512 114.864 28.2267 114.864 29.048C114.864 29.8693 114.699 30.5893 114.368 31.208C114.048 31.8267 113.584 32.3013 112.976 32.632C112.379 32.9627 111.68 33.128 110.88 33.128ZM110.864 31.576C111.515 31.576 112.011 31.3627 112.352 30.936C112.694 30.5093 112.864 29.88 112.864 29.048C112.864 28.2267 112.694 27.6027 112.352 27.176C112.011 26.7387 111.52 26.52 110.88 26.52C110.24 26.52 109.744 26.7387 109.392 27.176C109.051 27.6027 108.88 28.2267 108.88 29.048C108.88 29.88 109.051 30.5093 109.392 30.936C109.734 31.3627 110.224 31.576 110.864 31.576ZM117.54 29.736C117.38 29.736 117.241 29.6827 117.124 29.576C117.017 29.4693 116.953 29.3147 116.932 29.112L116.34 22.888L116.324 22.728C116.324 22.3973 116.436 22.136 116.66 21.944C116.894 21.7413 117.188 21.64 117.54 21.64C117.913 21.64 118.217 21.7573 118.452 21.992C118.686 22.216 118.782 22.52 118.74 22.904L118.148 29.112C118.126 29.3147 118.057 29.4693 117.94 29.576C117.833 29.6827 117.7 29.736 117.54 29.736ZM117.54 33.096C117.198 33.096 116.916 32.984 116.692 32.76C116.468 32.5253 116.356 32.2373 116.356 31.896C116.356 31.5547 116.468 31.272 116.692 31.048C116.916 30.8133 117.198 30.696 117.54 30.696C117.881 30.696 118.164 30.8133 118.388 31.048C118.612 31.272 118.724 31.5547 118.724 31.896C118.724 32.2373 118.612 32.5253 118.388 32.76C118.164 32.984 117.881 33.096 117.54 33.096Z" fill="#16161A"/>
<rect x="16" y="58" width="329" height="48" rx="16" fill="#0F915B"/>
<rect x="16" y="56" width="329" height="48" rx="16" fill="#2CB67D"/>
<path d="M145.34 85.14C144.052 85.14 143.053 84.8087 142.344 84.146C141.644 83.4833 141.271 82.55 141.224 81.346C141.215 81.094 141.21 80.6833 141.21 80.114C141.21 79.5353 141.215 79.1153 141.224 78.854C141.271 77.6593 141.649 76.7307 142.358 76.068C143.077 75.396 144.071 75.06 145.34 75.06C146.171 75.06 146.894 75.2047 147.51 75.494C148.126 75.774 148.602 76.1613 148.938 76.656C149.274 77.1413 149.451 77.692 149.47 78.308V78.336C149.47 78.4107 149.437 78.476 149.372 78.532C149.316 78.5787 149.251 78.602 149.176 78.602H147.846C147.734 78.602 147.65 78.5787 147.594 78.532C147.538 78.4853 147.491 78.3967 147.454 78.266C147.305 77.678 147.057 77.2673 146.712 77.034C146.367 76.7913 145.905 76.67 145.326 76.67C143.982 76.67 143.282 77.4213 143.226 78.924C143.217 79.176 143.212 79.5633 143.212 80.086C143.212 80.6087 143.217 81.0053 143.226 81.276C143.282 82.7787 143.982 83.53 145.326 83.53C145.905 83.53 146.367 83.4087 146.712 83.166C147.067 82.9233 147.314 82.5127 147.454 81.934C147.482 81.8033 147.524 81.7147 147.58 81.668C147.645 81.6213 147.734 81.598 147.846 81.598H149.176C149.26 81.598 149.33 81.626 149.386 81.682C149.451 81.738 149.479 81.808 149.47 81.892C149.451 82.508 149.274 83.0633 148.938 83.558C148.602 84.0433 148.126 84.4307 147.51 84.72C146.894 85 146.171 85.14 145.34 85.14ZM155.071 85.14C153.802 85.14 152.813 84.818 152.103 84.174C151.394 83.53 151.021 82.5733 150.983 81.304C150.974 81.0333 150.969 80.6367 150.969 80.114C150.969 79.582 150.974 79.1807 150.983 78.91C151.021 77.6687 151.403 76.7167 152.131 76.054C152.859 75.3913 153.839 75.06 155.071 75.06C156.303 75.06 157.283 75.3913 158.011 76.054C158.749 76.7167 159.136 77.6687 159.173 78.91C159.192 79.4513 159.201 79.8527 159.201 80.114C159.201 80.366 159.192 80.7627 159.173 81.304C159.127 82.5733 158.749 83.53 158.039 84.174C157.33 84.818 156.341 85.14 155.071 85.14ZM155.071 83.53C155.697 83.53 156.196 83.3433 156.569 82.97C156.943 82.5873 157.143 82.0087 157.171 81.234C157.19 80.674 157.199 80.296 157.199 80.1C157.199 79.8853 157.19 79.5073 157.171 78.966C157.143 78.1913 156.943 77.6173 156.569 77.244C156.196 76.8613 155.697 76.67 155.071 76.67C154.455 76.67 153.961 76.8613 153.587 77.244C153.214 77.6173 153.013 78.1913 152.985 78.966C152.976 79.2367 152.971 79.6147 152.971 80.1C152.971 80.576 152.976 80.954 152.985 81.234C153.013 82.0087 153.209 82.5873 153.573 82.97C153.947 83.3433 154.446 83.53 155.071 83.53ZM161.551 85C161.457 85 161.378 84.9673 161.313 84.902C161.247 84.8367 161.215 84.7573 161.215 84.664V75.55C161.215 75.4473 161.243 75.3633 161.299 75.298C161.364 75.2327 161.448 75.2 161.551 75.2H162.629C162.741 75.2 162.825 75.2233 162.881 75.27C162.937 75.3073 162.988 75.3587 163.035 75.424L167.067 81.696V75.55C167.067 75.4473 167.095 75.3633 167.151 75.298C167.216 75.2327 167.3 75.2 167.403 75.2H168.579C168.681 75.2 168.765 75.2327 168.831 75.298C168.896 75.3633 168.929 75.4473 168.929 75.55V84.65C168.929 84.7527 168.896 84.8367 168.831 84.902C168.765 84.9673 168.686 85 168.593 85H167.501C167.342 85 167.207 84.9253 167.095 84.776L163.077 78.644V84.664C163.077 84.7667 163.044 84.8507 162.979 84.916C162.913 84.972 162.829 85 162.727 85H161.551ZM173.78 85C173.687 85 173.607 84.9673 173.542 84.902C173.477 84.8367 173.444 84.7573 173.444 84.664V76.922H170.854C170.761 76.922 170.681 76.8893 170.616 76.824C170.551 76.7587 170.518 76.6793 170.518 76.586V75.55C170.518 75.4473 170.546 75.3633 170.602 75.298C170.667 75.2327 170.751 75.2 170.854 75.2H177.994C178.097 75.2 178.181 75.2327 178.246 75.298C178.311 75.3633 178.344 75.4473 178.344 75.55V76.586C178.344 76.6793 178.311 76.7587 178.246 76.824C178.181 76.8893 178.097 76.922 177.994 76.922H175.418V84.664C175.418 84.7573 175.385 84.8367 175.32 84.902C175.255 84.9673 175.171 85 175.068 85H173.78ZM180.276 85C180.182 85 180.103 84.9673 180.038 84.902C179.972 84.8367 179.94 84.7573 179.94 84.664V75.536C179.94 75.4333 179.972 75.354 180.038 75.298C180.103 75.2327 180.182 75.2 180.276 75.2H181.592C181.694 75.2 181.774 75.2327 181.83 75.298C181.895 75.354 181.928 75.4333 181.928 75.536V84.664C181.928 84.7573 181.895 84.8367 181.83 84.902C181.774 84.9673 181.694 85 181.592 85H180.276ZM184.634 85C184.541 85 184.462 84.9673 184.396 84.902C184.331 84.8367 184.298 84.7573 184.298 84.664V75.55C184.298 75.4473 184.326 75.3633 184.382 75.298C184.448 75.2327 184.532 75.2 184.634 75.2H185.712C185.824 75.2 185.908 75.2233 185.964 75.27C186.02 75.3073 186.072 75.3587 186.118 75.424L190.15 81.696V75.55C190.15 75.4473 190.178 75.3633 190.234 75.298C190.3 75.2327 190.384 75.2 190.486 75.2H191.662C191.765 75.2 191.849 75.2327 191.914 75.298C191.98 75.3633 192.012 75.4473 192.012 75.55V84.65C192.012 84.7527 191.98 84.8367 191.914 84.902C191.849 84.9673 191.77 85 191.676 85H190.584C190.426 85 190.29 84.9253 190.178 84.776L186.16 78.644V84.664C186.16 84.7667 186.128 84.8507 186.062 84.916C185.997 84.972 185.913 85 185.81 85H184.634ZM198.278 85.14C197.018 85.14 196.038 84.818 195.338 84.174C194.638 83.53 194.288 82.5547 194.288 81.248V75.55C194.288 75.4473 194.316 75.3633 194.372 75.298C194.437 75.2327 194.521 75.2 194.624 75.2H195.898C196 75.2 196.08 75.2327 196.136 75.298C196.201 75.3633 196.234 75.4473 196.234 75.55V81.248C196.234 81.9947 196.411 82.5593 196.766 82.942C197.12 83.3153 197.624 83.502 198.278 83.502C198.931 83.502 199.43 83.3153 199.776 82.942C200.13 82.5593 200.308 81.9947 200.308 81.248V75.55C200.308 75.4473 200.34 75.3633 200.406 75.298C200.471 75.2327 200.555 75.2 200.658 75.2H201.918C202.02 75.2 202.1 75.2327 202.156 75.298C202.221 75.3633 202.254 75.4473 202.254 75.55V81.248C202.254 82.5547 201.904 83.53 201.204 84.174C200.513 84.818 199.538 85.14 198.278 85.14ZM203.72 85C203.645 85 203.575 84.972 203.51 84.916C203.454 84.86 203.426 84.79 203.426 84.706L203.454 84.58L206.828 75.55C206.893 75.3167 207.057 75.2 207.318 75.2H208.844C209.087 75.2 209.25 75.3167 209.334 75.55L212.708 84.58C212.717 84.608 212.722 84.65 212.722 84.706C212.722 84.79 212.694 84.86 212.638 84.916C212.582 84.972 212.517 85 212.442 85H211.224C211.103 85 211.009 84.972 210.944 84.916C210.879 84.86 210.837 84.7993 210.818 84.734L210.16 83.026H206.002L205.344 84.734C205.269 84.9113 205.134 85 204.938 85H203.72ZM209.67 81.416L208.074 77.09L206.492 81.416H209.67ZM214.54 85C214.447 85 214.367 84.9673 214.302 84.902C214.237 84.8367 214.204 84.7573 214.204 84.664V75.55C214.204 75.4473 214.232 75.3633 214.288 75.298C214.353 75.2327 214.437 75.2 214.54 75.2H218.166C219.305 75.2 220.196 75.466 220.84 75.998C221.493 76.53 221.82 77.286 221.82 78.266C221.82 78.9473 221.652 79.5213 221.316 79.988C220.989 80.4453 220.532 80.7767 219.944 80.982L221.988 84.552C222.016 84.608 222.03 84.6593 222.03 84.706C222.03 84.79 221.997 84.86 221.932 84.916C221.876 84.972 221.811 85 221.736 85H220.462C220.313 85 220.196 84.9673 220.112 84.902C220.037 84.8367 219.967 84.7433 219.902 84.622L218.096 81.304H216.15V84.664C216.15 84.7573 216.117 84.8367 216.052 84.902C215.996 84.9673 215.917 85 215.814 85H214.54ZM218.124 79.722C218.684 79.722 219.104 79.596 219.384 79.344C219.673 79.092 219.818 78.728 219.818 78.252C219.818 77.776 219.673 77.4073 219.384 77.146C219.104 76.8847 218.684 76.754 218.124 76.754H216.15V79.722H218.124Z" fill="#FFFFFE"/>
</svg>
