<svg width="98" height="14" viewBox="0 0 98 14" fill="none" xmlns="http://www.w3.org/2000/svg">
<path d="M5.818 5.932C6.38733 6.08133 6.826 6.36133 7.134 6.772C7.45133 7.18267 7.61 7.696 7.61 8.312C7.61 9.18 7.32533 9.84733 6.756 10.314C6.18667 10.7713 5.37933 11 4.334 11H0.806C0.628667 11 0.484 10.9487 0.372 10.846C0.269333 10.7433 0.218 10.608 0.218 10.44V1.69C0.218 1.522 0.269333 1.38667 0.372 1.284C0.484 1.18133 0.628667 1.13 0.806 1.13H4.18C5.19733 1.13 5.986 1.354 6.546 1.802C7.106 2.25 7.386 2.88467 7.386 3.706C7.386 4.238 7.246 4.69533 6.966 5.078C6.69533 5.46067 6.31267 5.74533 5.818 5.932ZM1.352 5.512H4.012C4.74933 5.512 5.30467 5.36267 5.678 5.064C6.06067 4.76533 6.252 4.33133 6.252 3.762C6.252 2.642 5.50533 2.082 4.012 2.082H1.352V5.512ZM4.222 10.048C4.99667 10.048 5.566 9.908 5.93 9.628C6.30333 9.33867 6.49 8.89067 6.49 8.284C6.49 7.07067 5.734 6.464 4.222 6.464H1.352V10.048H4.222ZM12.3816 11.098C11.7376 11.098 11.1683 10.9533 10.6736 10.664C10.1883 10.3747 9.81026 9.964 9.53959 9.432C9.27826 8.89067 9.14759 8.26533 9.14759 7.556C9.14759 6.84667 9.27826 6.226 9.53959 5.694C9.81026 5.15267 10.1883 4.73733 10.6736 4.448C11.1683 4.15867 11.7376 4.014 12.3816 4.014C13.0256 4.014 13.5949 4.15867 14.0896 4.448C14.5843 4.73733 14.9623 5.15267 15.2236 5.694C15.4943 6.226 15.6296 6.84667 15.6296 7.556C15.6296 8.26533 15.4943 8.89067 15.2236 9.432C14.9623 9.964 14.5843 10.3747 14.0896 10.664C13.5949 10.9533 13.0256 11.098 12.3816 11.098ZM12.3816 10.16C13.0536 10.16 13.5669 9.94067 13.9216 9.502C14.2856 9.054 14.4676 8.40533 14.4676 7.556C14.4676 6.72533 14.2856 6.086 13.9216 5.638C13.5576 5.18067 13.0443 4.952 12.3816 4.952C11.7189 4.952 11.2056 5.18067 10.8416 5.638C10.4776 6.086 10.2956 6.72533 10.2956 7.556C10.2956 8.396 10.4729 9.04 10.8276 9.488C11.1916 9.936 11.7096 10.16 12.3816 10.16ZM22.8632 1.06C23.0406 1.06 23.1806 1.11133 23.2832 1.214C23.3859 1.31667 23.4372 1.44733 23.4372 1.606V10.51C23.4372 10.678 23.3859 10.8133 23.2832 10.916C23.1806 11.0187 23.0406 11.07 22.8632 11.07C22.6859 11.07 22.5459 11.0187 22.4432 10.916C22.3499 10.8133 22.3032 10.678 22.3032 10.51V9.754C22.0979 10.1833 21.7946 10.5147 21.3932 10.748C21.0012 10.9813 20.5392 11.098 20.0072 11.098C19.4099 11.098 18.8826 10.9487 18.4252 10.65C17.9679 10.3513 17.6132 9.936 17.3612 9.404C17.1092 8.86267 16.9832 8.23733 16.9832 7.528C16.9832 6.828 17.1092 6.212 17.3612 5.68C17.6132 5.148 17.9679 4.73733 18.4252 4.448C18.8826 4.15867 19.4099 4.014 20.0072 4.014C20.5392 4.014 21.0012 4.13067 21.3932 4.364C21.7946 4.59733 22.0979 4.92867 22.3032 5.358V1.606C22.3032 1.438 22.3499 1.30733 22.4432 1.214C22.5459 1.11133 22.6859 1.06 22.8632 1.06ZM20.2312 10.16C20.8939 10.16 21.4026 9.936 21.7572 9.488C22.1212 9.03067 22.3032 8.38667 22.3032 7.556C22.3032 6.72533 22.1212 6.086 21.7572 5.638C21.4026 5.19 20.8939 4.966 20.2312 4.966C19.5686 4.966 19.0506 5.19 18.6772 5.638C18.3132 6.086 18.1312 6.716 18.1312 7.528C18.1312 8.35867 18.3132 9.00733 18.6772 9.474C19.0506 9.93133 19.5686 10.16 20.2312 10.16ZM30.5217 4.392C30.6243 4.168 30.7877 4.056 31.0117 4.056C31.1517 4.056 31.2777 4.10267 31.3897 4.196C31.5017 4.28933 31.5577 4.406 31.5577 4.546C31.5577 4.63 31.539 4.70467 31.5017 4.77L27.5677 13.254C27.521 13.3567 27.451 13.436 27.3577 13.492C27.2737 13.548 27.185 13.576 27.0917 13.576C26.9517 13.576 26.8257 13.5293 26.7137 13.436C26.611 13.352 26.5597 13.24 26.5597 13.1C26.5597 13.0253 26.5783 12.9507 26.6157 12.876L27.5957 10.762L24.8237 4.77C24.7863 4.70467 24.7677 4.63467 24.7677 4.56C24.7677 4.42 24.8283 4.29867 24.9497 4.196C25.0803 4.09333 25.2203 4.042 25.3697 4.042C25.463 4.042 25.5517 4.07 25.6357 4.126C25.729 4.182 25.799 4.26133 25.8457 4.364L28.1837 9.614L30.5217 4.392ZM42.6104 10.034C42.7784 10.034 42.9091 10.076 43.0024 10.16C43.0958 10.244 43.1424 10.3607 43.1424 10.51C43.1424 10.8367 42.9651 11 42.6104 11H37.1224C36.9638 11 36.8331 10.9533 36.7304 10.86C36.6278 10.7573 36.5764 10.636 36.5764 10.496C36.5764 10.3187 36.6418 10.1647 36.7724 10.034L40.1464 6.324C40.6131 5.80133 40.9491 5.33467 41.1544 4.924C41.3691 4.504 41.4764 4.084 41.4764 3.664C41.4764 3.12267 41.3178 2.70733 41.0004 2.418C40.6924 2.12867 40.2538 1.984 39.6844 1.984C39.2364 1.984 38.8071 2.068 38.3964 2.236C37.9858 2.39467 37.5751 2.642 37.1644 2.978C37.0244 3.09 36.8938 3.146 36.7724 3.146C36.6698 3.146 36.5811 3.09933 36.5064 3.006C36.4318 2.90333 36.3944 2.782 36.3944 2.642C36.3944 2.446 36.4691 2.28733 36.6184 2.166C37.0011 1.81133 37.4678 1.53133 38.0184 1.326C38.5691 1.12067 39.1338 1.018 39.7124 1.018C40.5991 1.018 41.3038 1.25133 41.8264 1.718C42.3584 2.18467 42.6244 2.81467 42.6244 3.608C42.6244 4.17733 42.4938 4.72333 42.2324 5.246C41.9804 5.76867 41.5604 6.352 40.9724 6.996L38.1724 10.034H42.6104ZM44.747 11.504C44.7096 11.6253 44.649 11.7187 44.565 11.784C44.481 11.8493 44.3876 11.882 44.285 11.882C44.1543 11.882 44.0376 11.8353 43.935 11.742C43.8323 11.6487 43.781 11.532 43.781 11.392C43.781 11.336 43.795 11.2707 43.823 11.196L47.127 0.863999C47.1643 0.742666 47.225 0.649333 47.309 0.584C47.393 0.518666 47.4863 0.485999 47.589 0.485999C47.7196 0.485999 47.8363 0.532666 47.939 0.625999C48.0416 0.719333 48.093 0.840666 48.093 0.99C48.093 1.018 48.0836 1.07867 48.065 1.172L44.747 11.504ZM56.7478 10.286C56.8131 10.3887 56.8458 10.496 56.8458 10.608C56.8458 10.748 56.7898 10.8647 56.6778 10.958C56.5751 11.042 56.4538 11.084 56.3138 11.084C56.0991 11.084 55.9311 10.9907 55.8098 10.804L53.9338 7.836C53.6911 7.45333 53.4391 7.192 53.1778 7.052C52.9165 6.90267 52.5618 6.828 52.1138 6.828H50.3498V10.482C50.3498 10.6593 50.2985 10.804 50.1958 10.916C50.0931 11.0187 49.9578 11.07 49.7898 11.07C49.6125 11.07 49.4725 11.0187 49.3698 10.916C49.2671 10.804 49.2158 10.6593 49.2158 10.482V1.69C49.2158 1.522 49.2671 1.38667 49.3698 1.284C49.4818 1.18133 49.6265 1.13 49.8038 1.13H53.2758C54.3491 1.13 55.1658 1.368 55.7258 1.844C56.2951 2.32 56.5798 3.02 56.5798 3.944C56.5798 4.728 56.3511 5.358 55.8938 5.834C55.4458 6.31 54.8018 6.59933 53.9618 6.702C54.1951 6.77667 54.4051 6.898 54.5918 7.066C54.7785 7.234 54.9651 7.46733 55.1518 7.766L56.7478 10.286ZM53.1778 5.876C53.9431 5.876 54.5125 5.71733 54.8858 5.4C55.2685 5.08267 55.4598 4.602 55.4598 3.958C55.4598 3.32333 55.2731 2.852 54.8998 2.544C54.5265 2.236 53.9525 2.082 53.1778 2.082H50.3498V5.876H53.1778ZM63.9935 9.418C64.0961 9.418 64.1848 9.46 64.2595 9.544C64.3341 9.628 64.3715 9.73533 64.3715 9.866C64.3715 10.0993 64.2081 10.314 63.8815 10.51C63.5455 10.706 63.1908 10.8553 62.8175 10.958C62.4441 11.0513 62.0801 11.098 61.7255 11.098C60.6708 11.098 59.8355 10.7853 59.2195 10.16C58.6128 9.53467 58.3095 8.67133 58.3095 7.57C58.3095 6.87 58.4448 6.254 58.7155 5.722C58.9861 5.18067 59.3641 4.76067 59.8495 4.462C60.3441 4.16333 60.9041 4.014 61.5295 4.014C62.4161 4.014 63.1208 4.30333 63.6435 4.882C64.1661 5.46067 64.4275 6.24467 64.4275 7.234C64.4275 7.42067 64.3901 7.556 64.3155 7.64C64.2408 7.724 64.1195 7.766 63.9515 7.766H59.4435C59.5275 9.37133 60.2881 10.174 61.7255 10.174C62.0895 10.174 62.4021 10.1273 62.6635 10.034C62.9248 9.93133 63.2048 9.796 63.5035 9.628C63.7461 9.488 63.9095 9.418 63.9935 9.418ZM61.5435 4.896C60.9461 4.896 60.4655 5.08267 60.1015 5.456C59.7468 5.82933 59.5368 6.35667 59.4715 7.038H63.4335C63.4148 6.34733 63.2421 5.82 62.9155 5.456C62.5888 5.08267 62.1315 4.896 61.5435 4.896ZM71.6983 4.042C71.8756 4.042 72.0156 4.09333 72.1183 4.196C72.2209 4.29867 72.2723 4.434 72.2723 4.602V10.538C72.2723 11.5553 72.0109 12.3207 71.4883 12.834C70.9656 13.3567 70.1909 13.618 69.1643 13.618C68.1656 13.618 67.3349 13.422 66.6723 13.03C66.3363 12.8433 66.1683 12.6287 66.1683 12.386C66.1683 12.2553 66.2009 12.148 66.2663 12.064C66.3409 11.98 66.4343 11.938 66.5463 11.938C66.6396 11.938 66.8076 12.0033 67.0503 12.134C67.3769 12.302 67.6989 12.4373 68.0163 12.54C68.3336 12.6427 68.7116 12.694 69.1503 12.694C69.8129 12.694 70.3123 12.5167 70.6483 12.162C70.9843 11.8167 71.1523 11.308 71.1523 10.636V9.432C70.9563 9.87067 70.6529 10.2067 70.2423 10.44C69.8409 10.6733 69.3649 10.79 68.8143 10.79C68.2169 10.79 67.6849 10.65 67.2183 10.37C66.7609 10.09 66.4016 9.69333 66.1403 9.18C65.8883 8.66667 65.7623 8.074 65.7623 7.402C65.7623 6.73 65.8883 6.13733 66.1403 5.624C66.4016 5.11067 66.7609 4.714 67.2183 4.434C67.6849 4.154 68.2169 4.014 68.8143 4.014C69.3556 4.014 69.8269 4.13067 70.2283 4.364C70.6296 4.59733 70.9329 4.92867 71.1383 5.358V4.602C71.1383 4.434 71.1849 4.29867 71.2783 4.196C71.3809 4.09333 71.5209 4.042 71.6983 4.042ZM69.0383 9.852C69.6916 9.852 70.2049 9.63733 70.5783 9.208C70.9516 8.76933 71.1383 8.16733 71.1383 7.402C71.1383 6.646 70.9516 6.05333 70.5783 5.624C70.2143 5.18533 69.7009 4.966 69.0383 4.966C68.3756 4.966 67.8529 5.18533 67.4703 5.624C67.0969 6.05333 66.9103 6.646 66.9103 7.402C66.9103 8.16733 67.0969 8.76933 67.4703 9.208C67.8529 9.63733 68.3756 9.852 69.0383 9.852ZM79.6214 4.042C79.7987 4.042 79.9341 4.09333 80.0274 4.196C80.1301 4.29867 80.1814 4.434 80.1814 4.602V10.524C80.1814 10.6827 80.1301 10.8133 80.0274 10.916C79.9341 11.0187 79.7987 11.07 79.6214 11.07C79.4534 11.07 79.3181 11.0233 79.2154 10.93C79.1221 10.8273 79.0754 10.6967 79.0754 10.538V9.838C78.8607 10.2487 78.5574 10.5613 78.1654 10.776C77.7827 10.9907 77.3487 11.098 76.8634 11.098C76.0514 11.098 75.4401 10.874 75.0294 10.426C74.6187 9.96867 74.4134 9.29667 74.4134 8.41V4.602C74.4134 4.434 74.4647 4.29867 74.5674 4.196C74.6701 4.09333 74.8101 4.042 74.9874 4.042C75.1647 4.042 75.3001 4.09333 75.3934 4.196C75.4961 4.29867 75.5474 4.434 75.5474 4.602V8.382C75.5474 8.98867 75.6687 9.43667 75.9114 9.726C76.1541 10.006 76.5367 10.146 77.0594 10.146C77.6567 10.146 78.1374 9.95467 78.5014 9.572C78.8654 9.18 79.0474 8.66667 79.0474 8.032V4.602C79.0474 4.434 79.0987 4.29867 79.2014 4.196C79.3041 4.09333 79.4441 4.042 79.6214 4.042ZM82.9331 11.07C82.7651 11.07 82.6251 11.0233 82.5131 10.93C82.4104 10.8273 82.3591 10.6873 82.3591 10.51V1.62C82.3591 1.44267 82.4104 1.30733 82.5131 1.214C82.6251 1.11133 82.7651 1.06 82.9331 1.06C83.0917 1.06 83.2224 1.11133 83.3251 1.214C83.4371 1.30733 83.4931 1.44267 83.4931 1.62V10.51C83.4931 10.6873 83.4371 10.8273 83.3251 10.93C83.2224 11.0233 83.0917 11.07 82.9331 11.07ZM88.469 4.014C90.177 4.014 91.031 4.91 91.031 6.702V10.51C91.031 10.678 90.9796 10.8133 90.877 10.916C90.7836 11.0187 90.653 11.07 90.485 11.07C90.317 11.07 90.1816 11.0187 90.079 10.916C89.9763 10.8133 89.925 10.678 89.925 10.51V9.838C89.7476 10.2393 89.477 10.552 89.113 10.776C88.749 10.9907 88.329 11.098 87.853 11.098C87.4143 11.098 87.0083 11.0093 86.635 10.832C86.271 10.6547 85.9816 10.4073 85.767 10.09C85.5523 9.77267 85.445 9.42267 85.445 9.04C85.445 8.52667 85.5756 8.13 85.837 7.85C86.0983 7.56067 86.5276 7.35533 87.125 7.234C87.7223 7.10333 88.553 7.038 89.617 7.038H89.925V6.576C89.925 6.016 89.8083 5.60533 89.575 5.344C89.351 5.08267 88.9823 4.952 88.469 4.952C87.8343 4.952 87.1903 5.12467 86.537 5.47C86.285 5.62867 86.1076 5.708 86.005 5.708C85.893 5.708 85.7996 5.666 85.725 5.582C85.6503 5.498 85.613 5.39067 85.613 5.26C85.613 5.12933 85.6503 5.01733 85.725 4.924C85.809 4.82133 85.9396 4.71867 86.117 4.616C86.4436 4.42933 86.8123 4.28467 87.223 4.182C87.643 4.07 88.0583 4.014 88.469 4.014ZM88.007 10.202C88.567 10.202 89.0243 10.0153 89.379 9.642C89.743 9.25933 89.925 8.76933 89.925 8.172V7.766H89.673C88.8516 7.766 88.2263 7.80333 87.797 7.878C87.3676 7.94333 87.0596 8.06 86.873 8.228C86.6956 8.38667 86.607 8.62467 86.607 8.942C86.607 9.306 86.7376 9.60933 86.999 9.852C87.2696 10.0853 87.6056 10.202 88.007 10.202ZM96.5508 4.042C96.9428 4.014 97.1388 4.17267 97.1388 4.518C97.1388 4.66733 97.0968 4.78867 97.0128 4.882C96.9288 4.966 96.7841 5.01733 96.5788 5.036L96.1588 5.078C95.5335 5.134 95.0668 5.358 94.7588 5.75C94.4601 6.13267 94.3108 6.58533 94.3108 7.108V10.51C94.3108 10.6967 94.2595 10.8367 94.1568 10.93C94.0541 11.0233 93.9188 11.07 93.7508 11.07C93.5828 11.07 93.4428 11.0233 93.3308 10.93C93.2281 10.8273 93.1768 10.6873 93.1768 10.51V4.602C93.1768 4.42467 93.2328 4.28933 93.3448 4.196C93.4568 4.09333 93.5921 4.042 93.7508 4.042C93.9001 4.042 94.0261 4.09333 94.1288 4.196C94.2315 4.28933 94.2828 4.42 94.2828 4.588V5.372C94.4788 4.96133 94.7541 4.64867 95.1088 4.434C95.4728 4.21933 95.8881 4.09333 96.3548 4.056L96.5508 4.042Z" fill="black"/>
</svg>
