<svg width="79" height="14" viewBox="0 0 79 14" fill="none" xmlns="http://www.w3.org/2000/svg">
<path d="M6.14 5.904C6.70933 6.06267 7.148 6.352 7.456 6.772C7.77333 7.192 7.932 7.70533 7.932 8.312C7.932 9.152 7.62867 9.81 7.022 10.286C6.42467 10.762 5.59867 11 4.544 11H0.932C0.661333 11 0.446667 10.9253 0.288 10.776C0.138667 10.6267 0.0640001 10.4167 0.0640001 10.146V1.984C0.0640001 1.71333 0.138667 1.50333 0.288 1.354C0.446667 1.20467 0.661333 1.13 0.932 1.13H4.404C5.43067 1.13 6.23333 1.35867 6.812 1.816C7.4 2.264 7.694 2.894 7.694 3.706C7.694 4.22867 7.554 4.68133 7.274 5.064C7.00333 5.44667 6.62533 5.72667 6.14 5.904ZM1.828 5.288H4.11C5.35133 5.288 5.972 4.826 5.972 3.902C5.972 3.43533 5.818 3.09 5.51 2.866C5.202 2.642 4.73533 2.53 4.11 2.53H1.828V5.288ZM4.348 9.6C5.00133 9.6 5.47733 9.48333 5.776 9.25C6.07467 9.01667 6.224 8.65267 6.224 8.158C6.224 7.66333 6.07 7.29467 5.762 7.052C5.46333 6.80933 4.992 6.688 4.348 6.688H1.828V9.6H4.348ZM12.6586 11.112C11.9586 11.112 11.3426 10.9673 10.8106 10.678C10.288 10.3887 9.88197 9.97333 9.59264 9.432C9.30331 8.89067 9.15864 8.26067 9.15864 7.542C9.15864 6.82333 9.30331 6.198 9.59264 5.666C9.88197 5.12467 10.288 4.70933 10.8106 4.42C11.3426 4.13067 11.9586 3.986 12.6586 3.986C13.3586 3.986 13.97 4.13067 14.4926 4.42C15.0246 4.70933 15.4306 5.12467 15.7106 5.666C16 6.198 16.1446 6.82333 16.1446 7.542C16.1446 8.26067 16 8.89067 15.7106 9.432C15.4306 9.97333 15.0246 10.3887 14.4926 10.678C13.97 10.9673 13.3586 11.112 12.6586 11.112ZM12.6446 9.754C13.214 9.754 13.648 9.56733 13.9466 9.194C14.2453 8.82067 14.3946 8.27 14.3946 7.542C14.3946 6.82333 14.2453 6.27733 13.9466 5.904C13.648 5.52133 13.2186 5.33 12.6586 5.33C12.0986 5.33 11.6646 5.52133 11.3566 5.904C11.058 6.27733 10.9086 6.82333 10.9086 7.542C10.9086 8.27 11.058 8.82067 11.3566 9.194C11.6553 9.56733 12.0846 9.754 12.6446 9.754ZM23.3714 1.06C23.6327 1.06 23.8474 1.13467 24.0154 1.284C24.1834 1.43333 24.2674 1.62933 24.2674 1.872V10.244C24.2674 10.496 24.188 10.6967 24.0294 10.846C23.8707 10.9953 23.6607 11.07 23.3994 11.07C23.138 11.07 22.928 10.9953 22.7694 10.846C22.6107 10.6967 22.5314 10.496 22.5314 10.244V9.894C22.326 10.2767 22.0274 10.5753 21.6354 10.79C21.2527 11.0047 20.814 11.112 20.3194 11.112C19.7314 11.112 19.204 10.9627 18.7374 10.664C18.28 10.3653 17.9207 9.94533 17.6594 9.404C17.4074 8.85333 17.2814 8.22333 17.2814 7.514C17.2814 6.80467 17.4074 6.184 17.6594 5.652C17.9207 5.12 18.28 4.70933 18.7374 4.42C19.1947 4.13067 19.722 3.986 20.3194 3.986C20.814 3.986 21.2527 4.08867 21.6354 4.294C22.018 4.49933 22.312 4.78867 22.5174 5.162V1.844C22.5174 1.61067 22.592 1.424 22.7414 1.284C22.9 1.13467 23.11 1.06 23.3714 1.06ZM20.7814 9.754C21.3414 9.754 21.7707 9.56267 22.0694 9.18C22.3774 8.79733 22.5314 8.25133 22.5314 7.542C22.5314 6.83267 22.3774 6.29133 22.0694 5.918C21.7707 5.53533 21.346 5.344 20.7954 5.344C20.2354 5.344 19.8014 5.53067 19.4934 5.904C19.1854 6.27733 19.0314 6.814 19.0314 7.514C19.0314 8.22333 19.1854 8.774 19.4934 9.166C19.8014 9.558 20.2307 9.754 20.7814 9.754ZM30.9116 4.518C30.9862 4.35 31.0842 4.22867 31.2056 4.154C31.3362 4.07 31.4762 4.028 31.6256 4.028C31.8402 4.028 32.0316 4.10267 32.1996 4.252C32.3769 4.392 32.4656 4.56933 32.4656 4.784C32.4656 4.88667 32.4376 4.994 32.3816 5.106L28.5596 13.114C28.4009 13.4313 28.1536 13.59 27.8176 13.59C27.6029 13.59 27.4116 13.52 27.2436 13.38C27.0849 13.2493 27.0056 13.0813 27.0056 12.876C27.0056 12.7733 27.0336 12.6567 27.0896 12.526L28.0416 10.524L25.4376 5.106C25.3909 5.01267 25.3676 4.90533 25.3676 4.784C25.3676 4.56933 25.4562 4.38733 25.6336 4.238C25.8202 4.08867 26.0302 4.014 26.2636 4.014C26.4222 4.014 26.5669 4.056 26.6976 4.14C26.8282 4.21467 26.9309 4.336 27.0056 4.504L28.9656 8.83L30.9116 4.518ZM43.5095 9.544C44.0695 9.544 44.3495 9.782 44.3495 10.258C44.3495 10.7527 44.0695 11 43.5095 11H38.1895C37.9468 11 37.7555 10.93 37.6155 10.79C37.4755 10.6407 37.4055 10.4587 37.4055 10.244C37.4055 9.964 37.5128 9.712 37.7275 9.488L40.9195 6.058C41.3115 5.62867 41.5962 5.23667 41.7735 4.882C41.9602 4.518 42.0535 4.15867 42.0535 3.804C42.0535 3.36533 41.9275 3.02933 41.6755 2.796C41.4235 2.56267 41.0642 2.446 40.5975 2.446C40.2148 2.446 39.8415 2.52067 39.4775 2.67C39.1228 2.81 38.7635 3.006 38.3995 3.258C38.3062 3.32333 38.2128 3.37933 38.1195 3.426C38.0262 3.46333 37.9328 3.482 37.8395 3.482C37.6808 3.482 37.5408 3.40733 37.4195 3.258C37.3075 3.10867 37.2515 2.93133 37.2515 2.726C37.2515 2.586 37.2748 2.46467 37.3215 2.362C37.3775 2.25933 37.4615 2.16133 37.5735 2.068C37.9842 1.74133 38.4648 1.48467 39.0155 1.298C39.5662 1.102 40.1168 1.004 40.6675 1.004C41.6288 1.004 42.3942 1.24667 42.9635 1.732C43.5422 2.21733 43.8315 2.87067 43.8315 3.692C43.8315 4.26133 43.7102 4.798 43.4675 5.302C43.2248 5.79667 42.8142 6.352 42.2355 6.968L39.8135 9.544H43.5095ZM46.2477 11.476C46.1917 11.6533 46.103 11.784 45.9817 11.868C45.8604 11.952 45.725 11.994 45.5757 11.994C45.389 11.994 45.221 11.9287 45.0717 11.798C44.9317 11.6767 44.8617 11.518 44.8617 11.322C44.8617 11.238 44.8757 11.154 44.9037 11.07L48.1517 0.891999C48.2077 0.714666 48.2964 0.583999 48.4177 0.499999C48.539 0.415999 48.6744 0.373999 48.8237 0.373999C49.0104 0.373999 49.1737 0.439332 49.3137 0.569999C49.463 0.691333 49.5377 0.849999 49.5377 1.046C49.5377 1.13 49.5237 1.214 49.4957 1.298L46.2477 11.476ZM56.6144 5.904C57.1837 6.06267 57.6224 6.352 57.9304 6.772C58.2477 7.192 58.4064 7.70533 58.4064 8.312C58.4064 9.152 58.103 9.81 57.4964 10.286C56.899 10.762 56.073 11 55.0184 11H51.4064C51.1357 11 50.921 10.9253 50.7624 10.776C50.613 10.6267 50.5384 10.4167 50.5384 10.146V1.984C50.5384 1.71333 50.613 1.50333 50.7624 1.354C50.921 1.20467 51.1357 1.13 51.4064 1.13H54.8784C55.905 1.13 56.7077 1.35867 57.2864 1.816C57.8744 2.264 58.1684 2.894 58.1684 3.706C58.1684 4.22867 58.0284 4.68133 57.7484 5.064C57.4777 5.44667 57.0997 5.72667 56.6144 5.904ZM52.3024 5.288H54.5844C55.8257 5.288 56.4464 4.826 56.4464 3.902C56.4464 3.43533 56.2924 3.09 55.9844 2.866C55.6764 2.642 55.2097 2.53 54.5844 2.53H52.3024V5.288ZM54.8224 9.6C55.4757 9.6 55.9517 9.48333 56.2504 9.25C56.549 9.01667 56.6984 8.65267 56.6984 8.158C56.6984 7.66333 56.5444 7.29467 56.2364 7.052C55.9377 6.80933 55.4664 6.688 54.8224 6.688H52.3024V9.6H54.8224ZM63.133 11.112C62.433 11.112 61.817 10.9673 61.285 10.678C60.7624 10.3887 60.3564 9.97333 60.067 9.432C59.7777 8.89067 59.633 8.26067 59.633 7.542C59.633 6.82333 59.7777 6.198 60.067 5.666C60.3564 5.12467 60.7624 4.70933 61.285 4.42C61.817 4.13067 62.433 3.986 63.133 3.986C63.833 3.986 64.4444 4.13067 64.967 4.42C65.499 4.70933 65.905 5.12467 66.185 5.666C66.4744 6.198 66.619 6.82333 66.619 7.542C66.619 8.26067 66.4744 8.89067 66.185 9.432C65.905 9.97333 65.499 10.3887 64.967 10.678C64.4444 10.9673 63.833 11.112 63.133 11.112ZM63.119 9.754C63.6884 9.754 64.1224 9.56733 64.421 9.194C64.7197 8.82067 64.869 8.27 64.869 7.542C64.869 6.82333 64.7197 6.27733 64.421 5.904C64.1224 5.52133 63.693 5.33 63.133 5.33C62.573 5.33 62.139 5.52133 61.831 5.904C61.5324 6.27733 61.383 6.82333 61.383 7.542C61.383 8.27 61.5324 8.82067 61.831 9.194C62.1297 9.56733 62.559 9.754 63.119 9.754ZM69.0017 11.084C68.7497 11.084 68.5397 11.014 68.3717 10.874C68.2131 10.7247 68.1337 10.5147 68.1337 10.244V1.886C68.1337 1.61533 68.2131 1.41 68.3717 1.27C68.5397 1.13 68.7497 1.06 69.0017 1.06C69.2537 1.06 69.4637 1.13 69.6317 1.27C69.7997 1.41 69.8837 1.61533 69.8837 1.886V10.244C69.8837 10.5147 69.7997 10.7247 69.6317 10.874C69.4637 11.014 69.2537 11.084 69.0017 11.084ZM77.4704 1.06C77.7318 1.06 77.9464 1.13467 78.1144 1.284C78.2824 1.43333 78.3664 1.62933 78.3664 1.872V10.244C78.3664 10.496 78.2871 10.6967 78.1284 10.846C77.9698 10.9953 77.7598 11.07 77.4984 11.07C77.2371 11.07 77.0271 10.9953 76.8684 10.846C76.7098 10.6967 76.6304 10.496 76.6304 10.244V9.894C76.4251 10.2767 76.1264 10.5753 75.7344 10.79C75.3518 11.0047 74.9131 11.112 74.4184 11.112C73.8304 11.112 73.3031 10.9627 72.8364 10.664C72.3791 10.3653 72.0198 9.94533 71.7584 9.404C71.5064 8.85333 71.3804 8.22333 71.3804 7.514C71.3804 6.80467 71.5064 6.184 71.7584 5.652C72.0198 5.12 72.3791 4.70933 72.8364 4.42C73.2938 4.13067 73.8211 3.986 74.4184 3.986C74.9131 3.986 75.3518 4.08867 75.7344 4.294C76.1171 4.49933 76.4111 4.78867 76.6164 5.162V1.844C76.6164 1.61067 76.6911 1.424 76.8404 1.284C76.9991 1.13467 77.2091 1.06 77.4704 1.06ZM74.8804 9.754C75.4404 9.754 75.8698 9.56267 76.1684 9.18C76.4764 8.79733 76.6304 8.25133 76.6304 7.542C76.6304 6.83267 76.4764 6.29133 76.1684 5.918C75.8698 5.53533 75.4451 5.344 74.8944 5.344C74.3344 5.344 73.9004 5.53067 73.5924 5.904C73.2844 6.27733 73.1304 6.814 73.1304 7.514C73.1304 8.22333 73.2844 8.774 73.5924 9.166C73.9004 9.558 74.3298 9.754 74.8804 9.754Z" fill="black"/>
</svg>
